<?xml version="1.0" encoding="utf-8"?>
<!-- Generator: Adobe Illustrator 26.5.0, SVG Export Plug-In . SVG Version: 6.00 Build 0)  -->
<svg version="1.1" id="Calque_1" xmlns="http://www.w3.org/2000/svg" xmlns:xlink="http://www.w3.org/1999/xlink" x="0px" y="0px"
	 viewBox="0 0 484.3 266.4" style="enable-background:new 0 0 484.3 266.4;" xml:space="preserve">
<style type="text/css">
	.st0{fill:#FFFFFF;}
	.st1{fill:#312B27;}
</style>
<g id="Calque_1-2">
	<path class="st0" d="M269.1,83.5l-13.9,14.9l-7-7.3h-40.8c-3.4-0.1-6-3-5.9-6.4c0.1-3.2,2.7-5.7,5.9-5.9c1.2,0.2,2.4,0.7,3.5,1.2
		c1.1,0.5,2.4,0.4,3.4-0.4c1-0.8,1.5-2,1.3-3.2c-0.2-1-0.2-1.9-0.2-2.9c0-9.7,7.9-17.6,17.6-17.6c1.8,0,3.5,0.3,5.2,0.8l0.4,0.1
		l5.6-4.9l-1.2-0.5c-3.2-1.4-6.6-2.1-10.1-2.1c-12.9,0-23.5,10.1-24.1,23c-0.5-0.1-0.9-0.1-1.4-0.1c-7-0.2-12.8,5.3-13,12.3
		c-0.2,7,5.3,12.8,12.3,13c0.2,0,0.5,0,0.7,0h36.9l11,11.5l19.3-20.5L269.1,83.5z"/>
	<path class="st1" d="M151.8,146.5c-9.6,0-20.1,7.1-20.1,18.6c0,11.8,8.2,20,20.1,20s20-8.2,20-20
		C171.8,153.6,161.4,146.5,151.8,146.5z M151.8,177.6c-6.7,0-11.9-5.5-11.9-12.5c0-6.1,5.4-11.2,11.9-11.2s11.9,5.1,11.9,11.2
		C163.7,172.1,158.4,177.6,151.8,177.6z"/>
	<path class="st1" d="M178.6,183.8h13c10,0,18-8.1,18-18c0-10-8.1-18-18-18h-13V183.8z M189.7,177.6h-3.3V154h3.4
		c7.3,0,12,4.6,12,11.8C201.8,174.4,195.6,177.6,189.7,177.6z"/>
	<path class="st1" d="M216.8,183.8h19.6v-6.2h-11.8v-8.8h11.2v-6.2h-11.2V154h11.8v-6.2h-19.6V183.8z"/>
	<path class="st0" d="M127.4,154.9l-4.8,4.6c-3.3-3.5-7-5.2-11.1-5.2c-6.7-0.1-12.3,5.3-12.4,12c0,0.1,0,0.2,0,0.4
		c0,2.3,0.5,4.5,1.6,6.5c1,1.9,2.6,3.4,4.5,4.4c2,1.1,4.2,1.6,6.4,1.6c1.9,0,3.8-0.4,5.5-1.1c2.1-1,3.9-2.4,5.5-4.1l4.7,4.9
		c-2.2,2.3-4.8,4.1-7.6,5.5c-2.6,1.1-5.4,1.6-8.2,1.5c-5.2,0.2-10.2-1.8-13.9-5.4c-5.9-6.4-7.1-15.8-2.9-23.5c1.7-2.9,4.1-5.2,7-6.8
		c3-1.7,6.4-2.6,9.9-2.6C117.6,147.5,123.4,150.2,127.4,154.9L127.4,154.9z"/>
	<path class="st0" d="M272.3,183.8h8.3v-36.1h-7.8v25.8l-2-2.8l-17.9-23h-8.3v36.1h7.8v-25.6l2.1,2.7L272.3,183.8z"/>
	<path class="st1" d="M289.3,183.8h19.6v-6.2h-11.8v-8.8h11.2v-6.2h-11.2V154h11.8v-6.2h-19.6V183.8z"/>
	<path class="st1" d="M338.1,183.8h10l-15.7-19.1l14.3-17h-9.4l-12,15.8H325v-15.8h-7.8v36.1h7.8v-16.6h0.3L338.1,183.8z"/>
	<path class="st1" d="M360.9,183.8h7.8V154h8.2v-6.2h-24.2v6.2h8.2V183.8z"/>
	<path class="st0" d="M244.9,192.7h9.7v3.2h-6v3.2h6v3.2h-6v7.9h-3.7L244.9,192.7z"/>
	<path class="st0" d="M267.4,192.2c2.6,0,5.2,0.9,7.1,2.7c1.9,1.6,3,4,3,6.6c0,2.5-1,4.9-2.9,6.5c-4.2,3.6-10.3,3.5-14.4-0.1
		c-1.9-1.6-2.9-4-2.9-6.5c0-1.6,0.5-3.2,1.4-4.6c0.9-1.4,2.2-2.6,3.7-3.4C263.9,192.7,265.6,192.2,267.4,192.2z M267.4,195.5
		c-1.7,0-3.3,0.6-4.5,1.7c-1.2,1.1-1.9,2.7-1.8,4.3c-0.1,1.8,0.8,3.6,2.3,4.6c1.2,0.9,2.7,1.3,4.1,1.3c1.7,0,3.3-0.6,4.5-1.7
		c2.3-2.1,2.5-5.8,0.4-8.1c-0.1-0.1-0.2-0.2-0.4-0.4C270.7,196.1,269.1,195.5,267.4,195.5L267.4,195.5z"/>
	<path class="st0" d="M281.5,192.7h3.9c1.6-0.1,3.1,0.1,4.6,0.5c0.9,0.3,1.7,0.9,2.2,1.7c0.6,0.8,0.9,1.8,0.8,2.9
		c0,1-0.3,2.1-0.9,2.9c-0.7,0.9-1.7,1.5-2.8,1.8l4.6,7.8h-4l-4.4-7.4h-0.3v7.4h-3.7L281.5,192.7z M285.2,199.5h1.2
		c0.8,0.1,1.7-0.1,2.4-0.4c0.5-0.3,0.7-0.8,0.7-1.4c0-0.4-0.1-0.7-0.3-1c-0.2-0.3-0.5-0.5-0.9-0.6c-0.7-0.2-1.3-0.2-2-0.2h-1
		L285.2,199.5z"/>
	<path class="st0" d="M305.2,192.7h9.7v3.2h-6v3.2h6v3.2h-6v7.9h-3.7L305.2,192.7z"/>
	<path class="st0" d="M318.5,192.7h3.7V207h5.4v3.2h-9.1V192.7z"/>
	<path class="st0" d="M330.8,192.7h10.6v3.3h-7v3.2h7v3.2h-7v4.6h7v3.3h-10.6V192.7z"/>
	<path class="st0" d="M345.2,192.7h10.6v3.3h-7v3.2h7v3.2h-7v4.6h7v3.3h-10.6V192.7z"/>
	<path class="st0" d="M357.6,192.7h10.8v3.3h-3.5v14.2h-3.8V196h-3.5V192.7z"/>
	<circle class="st0" cx="259.4" cy="67.5" r="5.6"/>
	<circle class="st1" cx="259.4" cy="53.4" r="5.6"/>
	<circle class="st1" cx="272.5" cy="75.3" r="5.6"/>
	<circle class="st1" cx="259.4" cy="81.6" r="5.6"/>
	<circle class="st1" cx="272.5" cy="59.6" r="5.6"/>
	<circle class="st1" cx="246.2" cy="75.3" r="5.6"/>
	<circle class="st1" cx="246.2" cy="59.6" r="5.6"/>
</g>
</svg>
