<svg xmlns="http://www.w3.org/2000/svg" xmlns:xlink="http://www.w3.org/1999/xlink" viewBox="0 0 484.3 266.44"><defs><style>.cls-1{fill:url(#Dégradé_sans_nom_76);}.cls-2{fill:#fff;}.cls-3{fill:#312b27;}</style><linearGradient id="Dégradé_sans_nom_76" x1="54.47" y1="-54.47" x2="429.84" y2="320.9" gradientUnits="userSpaceOnUse"><stop offset="0" stop-color="red"/><stop offset="1" stop-color="#ff6f08"/></linearGradient></defs><g id="Calque_2" data-name="Calque 2"><g id="Calque_1-2" data-name="Calque 1"><rect class="cls-1" width="484.3" height="266.44"/><path class="cls-2" d="M269.06,83.52,255.12,98.44l-7-7.34H207.27a6.12,6.12,0,0,1,0-12.23,12.82,12.82,0,0,1,3.51,1.23,3.25,3.25,0,0,0,3.38-.4,3.41,3.41,0,0,0,1.27-3.25,17.79,17.79,0,0,1-.24-2.92A17.6,17.6,0,0,1,238,56.76l.42.13L244.06,52l-1.23-.49a24.55,24.55,0,0,0-10.07-2.13,24.17,24.17,0,0,0-24.1,23,8.07,8.07,0,0,0-1.39-.14,12.67,12.67,0,1,0,0,25.33h36.87l11,11.49L274.41,88.6Z"/><path class="cls-3" d="M151.77,146.46c-9.65,0-20.06,7.11-20.06,18.59,0,11.77,8.25,20,20.06,20s20-8.23,20-20C171.82,153.57,161.41,146.46,151.77,146.46Zm0,31.14c-6.67,0-11.89-5.49-11.89-12.5,0-6.06,5.44-11.19,11.89-11.19s11.89,5.13,11.89,11.19C163.66,172.11,158.44,177.6,151.77,177.6Z"/><path class="cls-3" d="M178.62,183.78h13a18,18,0,1,0,0-36.05h-13Zm11.08-6.23h-3.32V154h3.42c7.29,0,12,4.62,12,11.79C201.8,174.45,195.55,177.55,189.7,177.55Z"/><path class="cls-3" d="M216.76,183.78h19.57v-6.23H224.52v-8.78h11.2v-6.23h-11.2V154h11.81v-6.24H216.76Z"/><path class="cls-2" d="M127.4,154.85l-4.85,4.62q-5-5.22-11.13-5.23a12.19,12.19,0,0,0-12.37,12.37,13,13,0,0,0,1.58,6.47,11.45,11.45,0,0,0,4.48,4.44,13,13,0,0,0,6.43,1.61,13.32,13.32,0,0,0,5.52-1.13,19.92,19.92,0,0,0,5.49-4.1l4.7,4.9a25.77,25.77,0,0,1-7.63,5.47,20.87,20.87,0,0,1-8.19,1.52,18.9,18.9,0,0,1-13.91-5.39,20.27,20.27,0,0,1-2.94-23.48,18.2,18.2,0,0,1,7-6.81,19.9,19.9,0,0,1,9.9-2.58,21,21,0,0,1,15.87,7.32Z"/><path class="cls-2" d="M272.34,183.78h8.31V147.73h-7.76v25.75l-2.05-2.79-17.88-23h-8.31v36.05h7.76V158.11l2.05,2.67Z"/><path class="cls-3" d="M289.32,183.78H308.9v-6.23H297.08v-8.78h11.21v-6.23H297.08V154H308.9v-6.24H289.32Z"/><path class="cls-3" d="M338.08,183.78h10l-15.69-19.05,14.29-17h-9.44l-12,15.77H325V147.73h-7.75v36.05H325V167.2h.33Z"/><path class="cls-3" d="M360.93,183.78h7.76V154h8.21v-6.24H352.71V154h8.22Z"/><path class="cls-2" d="M244.92,192.68h9.67v3.25h-6v3.19h6v3.21h-6v7.89h-3.69Z"/><path class="cls-2" d="M267.39,192.24a10.24,10.24,0,0,1,7.11,2.69,8.53,8.53,0,0,1,3,6.57,8.43,8.43,0,0,1-2.94,6.5,11,11,0,0,1-14.41-.07,8.6,8.6,0,0,1-2.91-6.49,8.4,8.4,0,0,1,1.36-4.62,9.63,9.63,0,0,1,3.71-3.35A10.91,10.91,0,0,1,267.39,192.24Zm0,3.27a6.48,6.48,0,0,0-4.55,1.69,5.58,5.58,0,0,0-1.84,4.3,5.4,5.4,0,0,0,2.32,4.61,6.82,6.82,0,0,0,4.14,1.32,6.34,6.34,0,0,0,4.49-1.72,5.74,5.74,0,0,0,0-8.47A6.43,6.43,0,0,0,267.35,195.51Z"/><path class="cls-2" d="M281.53,192.68h3.93a14.26,14.26,0,0,1,4.6.52,4.61,4.61,0,0,1,2.2,1.72,4.91,4.91,0,0,1,.83,2.85,4.47,4.47,0,0,1-.92,2.89,5.59,5.59,0,0,1-2.77,1.76l4.61,7.8H290l-4.38-7.43h-.34v7.43h-3.71Zm3.71,6.86h1.16a5,5,0,0,0,2.44-.42,1.52,1.52,0,0,0,.66-1.39,1.58,1.58,0,0,0-.33-1,1.8,1.8,0,0,0-.88-.61,7.55,7.55,0,0,0-2-.19h-1Z"/><path class="cls-2" d="M305.25,192.68h9.68v3.25h-6v3.19h6v3.21h-6v7.89h-3.69Z"/><path class="cls-2" d="M318.52,192.68h3.71V207h5.41v3.18h-9.12Z"/><path class="cls-2" d="M330.77,192.68h10.64V196h-7v3.17h7v3.21h-7v4.61h7v3.28H330.77Z"/><path class="cls-2" d="M345.18,192.68h10.64V196h-7v3.17h7v3.21h-7v4.61h7v3.28H345.18Z"/><path class="cls-2" d="M357.65,192.68h10.77V196h-3.55v14.25h-3.76V196h-3.46Z"/><circle class="cls-2" cx="259.36" cy="67.47" r="5.57"/><circle class="cls-3" cx="259.36" cy="53.39" r="5.57"/><circle class="cls-3" cx="272.51" cy="75.32" r="5.57"/><circle class="cls-3" cx="259.36" cy="81.56" r="5.57"/><circle class="cls-3" cx="272.51" cy="59.63" r="5.57"/><circle class="cls-3" cx="246.22" cy="75.32" r="5.57"/><circle class="cls-3" cx="246.22" cy="59.63" r="5.57"/></g></g></svg>