<?xml version="1.0" encoding="UTF-8" standalone="no"?>
<svg
   xmlns:dc="http://purl.org/dc/elements/1.1/"
   xmlns:cc="http://creativecommons.org/ns#"
   xmlns:rdf="http://www.w3.org/1999/02/22-rdf-syntax-ns#"
   xmlns:svg="http://www.w3.org/2000/svg"
   xmlns="http://www.w3.org/2000/svg"
   xmlns:sodipodi="http://sodipodi.sourceforge.net/DTD/sodipodi-0.dtd"
   xmlns:inkscape="http://www.inkscape.org/namespaces/inkscape"
   width="33.86"
   height="31.067"
   viewBox="0 0 33.86 31.067"
   version="1.1"
   id="svg8"
   sodipodi:docname="like.svg"
   inkscape:version="0.92.5 (2060ec1f9f, 2020-04-08)">
  <metadata
     id="metadata12">
    <rdf:RDF>
      <cc:Work
         rdf:about="">
        <dc:format>image/svg+xml</dc:format>
        <dc:type
           rdf:resource="http://purl.org/dc/dcmitype/StillImage" />
      </cc:Work>
    </rdf:RDF>
  </metadata>
  <sodipodi:namedview
     pagecolor="#ffffff"
     bordercolor="#666666"
     borderopacity="1"
     objecttolerance="10"
     gridtolerance="10"
     guidetolerance="10"
     inkscape:pageopacity="0"
     inkscape:pageshadow="2"
     inkscape:window-width="1920"
     inkscape:window-height="1056"
     id="namedview10"
     showgrid="false"
     inkscape:zoom="30.385941"
     inkscape:cx="23.823246"
     inkscape:cy="16.092308"
     inkscape:window-x="1920"
     inkscape:window-y="0"
     inkscape:window-maximized="1"
     inkscape:current-layer="svg8" />
  <defs
     id="defs4">
    <style
       id="style2">.a{fill:#fff;}</style>
  </defs>
  <path
     class="a"
     d="M 26.549,3 A 10.138,10.138 0 0 0 18.93,6.538 10.138,10.138 0 0 0 11.312,3 9.221,9.221 0 0 0 2,12.312 c 0,6.4 5.756,11.614 14.475,19.537 l 2.455,2.218 2.455,-2.235 C 30.1,23.926 35.86,18.711 35.86,12.312 A 9.221,9.221 0 0 0 26.549,3 Z M 19.1,29.326 18.931,29.495 18.762,29.326 C 10.7,22.029 5.386,17.2 5.386,12.312 a 5.786,5.786 0 0 1 5.926,-5.926 6.619,6.619 0 0 1 6.044,4 h 3.166 a 6.577,6.577 0 0 1 6.027,-4 5.786,5.786 0 0 1 5.926,5.926 C 32.474,17.2 27.158,22.029 19.1,29.326 Z"
     transform="translate(-2,-3)"
     id="path6"
     inkscape:connector-curvature="0"
     style="display:inline;opacity:1;fill:#ffffff;fill-opacity:1;fill-rule:nonzero;stroke:none;stroke-opacity:1" />
  <path
     style="fill:#fcffff;fill-opacity:1;fill-rule:nonzero;stroke:none;stroke-width:1.31639826;stroke-miterlimit:4;stroke-dasharray:none;stroke-opacity:1"
     d="M 14.722037,23.464259 C 11.236905,20.304346 7.4437127,16.442892 6.2024699,14.791373 5.0136979,13.209668 4.0559672,11.415232 3.7462044,10.189231 3.4706792,9.0987386 3.4925342,7.5552935 3.7973693,6.5758564 4.293523,4.9817114 5.2583799,3.8772193 6.8313441,3.1028013 7.5815896,2.7334326 7.835143,2.6795208 9.0301232,2.635286 c 1.0973168,-0.04062 1.5215798,0.00189 2.2612998,0.2265728 1.619214,0.4918212 3.098308,1.7199583 3.852989,3.199256 l 0.256493,0.5027682 1.609912,-3.16e-4 1.609913,-3.159e-4 0.37329,-0.7144274 C 19.525395,4.8318472 20.703526,3.760278 21.938721,3.1704778 22.954456,2.6854689 22.981575,2.680508 24.617169,2.680508 c 1.644741,0 1.656922,0.00227 2.653602,0.4948579 2.190028,1.0823705 3.467827,3.4101292 3.192045,5.8149275 -0.252257,2.1996516 -1.288866,4.2162746 -3.541005,6.8886806 -1.066402,1.265401 -4.908084,5.083478 -7.379602,7.334254 -0.868823,0.791225 -1.793903,1.638229 -2.055735,1.88223 l -0.476058,0.443636 z"
     id="path8457"
     inkscape:connector-curvature="0" />
  <path
     style="fill:#00ffff;fill-opacity:1;fill-rule:nonzero;stroke:none;stroke-width:0.32909957;stroke-miterlimit:4;stroke-dasharray:none;stroke-opacity:1"
     d="m 24.170447,3.5501152 c 0.20363,-0.00577 0.536843,-0.00577 0.740474,0 0.20363,0.00577 0.03702,0.010498 -0.370237,0.010498 -0.407261,0 -0.573868,-0.00472 -0.370237,-0.010498 z"
     id="path8459"
     inkscape:connector-curvature="0" />
  <path
     style="fill:#00ffff;fill-opacity:1;fill-rule:nonzero;stroke:none;stroke-width:0.32909957;stroke-miterlimit:4;stroke-dasharray:none;stroke-opacity:1"
     d="m 24.878637,3.5518764 c 0.03202,-0.00834 0.07645,-0.0078 0.09873,0.00122 0.02228,0.00901 -0.0039,0.015842 -0.05822,0.015171 -0.0543,-6.707e-4 -0.07253,-0.00805 -0.04051,-0.016391 z"
     id="path8461"
     inkscape:connector-curvature="0" />
  <path
     style="fill:#ffffff;fill-opacity:1;fill-rule:nonzero;stroke:none;stroke-width:1.31639826;stroke-miterlimit:4;stroke-dasharray:none;stroke-opacity:1"
     d="M 15.302221,26.266721 C 11.81709,23.106808 8.0238976,19.245354 6.7826548,17.593835 5.5938828,16.01213 4.6361521,14.217694 4.3263893,12.991693 4.0508641,11.901201 4.0727191,10.357756 4.3775542,9.3783185 4.8737079,7.7841735 5.8385648,6.6796814 7.411529,5.9052634 8.1617745,5.5358947 8.4153279,5.4819829 9.6103081,5.4377481 c 1.0973169,-0.04062 1.5215799,0.00189 2.2612999,0.2265728 1.619214,0.4918212 3.098307,1.7199583 3.852988,3.199256 l 0.256493,0.5027682 1.609912,-3.16e-4 1.609913,-3.159e-4 0.37329,-0.7144274 C 20.105579,7.6343093 21.28371,6.5627401 22.518905,5.9729399 23.53464,5.487931 23.561759,5.4829701 25.197353,5.4829701 c 1.644741,0 1.656922,0.00227 2.653602,0.4948579 2.190028,1.0823705 3.467827,3.4101292 3.192045,5.814928 -0.252257,2.199651 -1.288866,4.216274 -3.541005,6.88868 -1.066402,1.265401 -4.908084,5.083478 -7.379602,7.334254 -0.868823,0.791225 -1.793903,1.638229 -2.055735,1.88223 L 17.5906,28.341556 Z"
     id="path8457-3"
     inkscape:connector-curvature="0" />
  <path
     style="fill:#f7ffff;fill-opacity:1;fill-rule:nonzero;stroke:none;stroke-width:1.31639826;stroke-miterlimit:4;stroke-dasharray:none;stroke-opacity:1"
     d="M 13.195984,24.818683 C 9.7108532,21.65877 5.9176608,17.797316 4.676418,16.145797 3.487646,14.564092 2.5299153,12.769656 2.2201525,11.543655 1.9446273,10.453163 1.9664823,8.9097178 2.2713174,7.9302805 2.7674711,6.3361355 3.732328,5.2316434 5.3052922,4.4572253 6.0555377,4.0878566 6.3090911,4.0339448 7.5040713,3.98971 8.6013882,3.94909 9.0256512,3.9916 9.7653712,4.2162828 11.384585,4.708104 12.863678,5.9362412 13.618359,7.4155389 l 0.256493,0.5027682 1.609912,-3.16e-4 1.609913,-3.159e-4 0.37329,-0.7144274 c 0.531375,-1.0169765 1.709506,-2.0885457 2.944701,-2.678346 1.015735,-0.4850089 1.042854,-0.4899698 2.678448,-0.4899698 1.644741,0 1.656922,0.00227 2.653602,0.4948579 2.190028,1.0823706 3.467827,3.4101293 3.192045,5.8149281 -0.252257,2.199651 -1.288866,4.216274 -3.541005,6.88868 -1.066402,1.265401 -4.908084,5.083478 -7.379602,7.334254 -0.868823,0.791225 -1.793903,1.638229 -2.055735,1.88223 l -0.476058,0.443636 z"
     id="path8457-3-6"
     inkscape:connector-curvature="0" />
</svg>
