<svg xmlns="http://www.w3.org/2000/svg" width="33.86" height="31.067" viewBox="0 0 33.86 31.067"><defs><style>.a{fill:#fff;}</style></defs><path class="a" d="M26.549,3A10.138,10.138,0,0,0,18.93,6.538,10.138,10.138,0,0,0,11.312,3,9.221,9.221,0,0,0,2,12.312c0,6.4,5.756,11.614,14.475,19.537l2.455,2.218,2.455-2.235C30.1,23.926,35.86,18.711,35.86,12.312A9.221,9.221,0,0,0,26.549,3ZM19.1,29.326l-.169.169-.169-.169C10.7,22.029,5.386,17.2,5.386,12.312a5.786,5.786,0,0,1,5.926-5.926,6.619,6.619,0,0,1,6.044,4h3.166a6.577,6.577,0,0,1,6.027-4,5.786,5.786,0,0,1,5.926,5.926C32.474,17.2,27.158,22.029,19.1,29.326Z" transform="translate(-2 -3)"/></svg>