<?xml version="1.0" encoding="iso-8859-1"?>
<!-- Generator: Adobe Illustrator 19.0.0, SVG Export Plug-In . SVG Version: 6.00 Build 0)  -->
<svg version="1.1" id="Capa_1" xmlns="http://www.w3.org/2000/svg" xmlns:xlink="http://www.w3.org/1999/xlink" x="0px" y="0px"
	 viewBox="0 0 409.466 409.466" style="enable-background:new 0 0 409.466 409.466;" xml:space="preserve">
<g>
	<g>
		<path d="M218.116,110.816c-6.395-15.882-18.586-28.303-34.33-34.985c-32.502-13.783-70.17,1.505-83.983,34.079
			c-6.692,15.775-6.856,33.208-0.461,49.085c6.395,15.887,18.586,28.308,34.324,34.985c8.115,3.441,16.548,5.069,24.858,5.069
			c24.96,0,48.763-14.71,59.131-39.148C224.347,144.122,224.511,126.694,218.116,110.816z M209.566,114.262
			c0.973,2.411,1.705,4.879,2.319,7.357l-14.566-6.18c-0.2-9.221-1.874-17.116-3.651-22.938
			C200.632,98.242,206.1,105.65,209.566,114.262z M160.762,140.779l19.738,8.371c-2.975,5.734-6.641,10.629-10.634,14.72
			l-16.015-6.794L160.762,140.779z M136.898,120.642c3.195-6.344,7.091-11.643,11.187-16.077l15.278,6.482l-7.485,17.644
			L136.898,120.642z M164.362,132.295l7.485-17.644l16.123,6.84c-0.343,6.006-1.495,12.483-3.835,19.19L164.362,132.295z
			 M182.696,89.072c1.649,4.035,4.357,12.088,5.166,22.359l-12.416-5.268L182.696,89.072z M166.963,102.563l-11.576-4.91
			c7.24-5.97,14.244-9.523,18.468-11.331L166.963,102.563z M158.919,79.984c1.976,0,3.968,0.133,5.955,0.353
			c-5.396,2.765-12.211,7.04-18.964,13.297l-14.577-6.185C139.663,82.621,149.181,79.984,158.919,79.984z M106.695,117.846
			l18.186,7.711c-2.109,6.047-3.272,11.971-3.722,17.649l-17.219-7.301C103.843,129.817,104.749,123.734,106.695,117.846z
			 M107.888,155.56c-1.203-2.985-2.089-6.047-2.749-9.129l15.841,6.717c0.553,10.604,3.18,19.763,5.719,26.373
			C118.353,173.536,111.825,165.329,107.888,155.56z M110.274,109.352c3.185-6.052,7.368-11.305,12.268-15.621l16.558,7.025
			c-3.907,4.613-7.552,10.02-10.65,16.307L110.274,109.352z M133.329,129.146l18.949,8.033l-6.912,16.297l-15.201-6.446
			C130.334,141.316,131.266,135.285,133.329,129.146z M135.515,176.695c-1.92-4.951-3.973-11.689-4.89-19.461l11.141,4.726
			L135.515,176.695z M150.251,165.559l11.955,5.074c-6.738,5.13-13.517,8.474-18.575,10.527L150.251,165.559z M149.022,188.948
			c6.518-2.78,14.889-7.26,22.866-14.208l15.775,6.692C176.317,188.502,162.564,191.359,149.022,188.948z M196.065,174.98
			l-17.167-7.281c3.763-4.275,7.214-9.226,10.097-14.95l18.161,7.7C204.231,166.015,200.463,170.884,196.065,174.98z
			 M210.764,151.971l-18.14-7.695c2.365-6.595,3.717-12.974,4.316-18.99l16.512,7.009
			C213.759,138.915,212.879,145.561,210.764,151.971z"/>
	</g>
</g>
<g>
	<g>
		<path d="M409.405,368.214L364.436,75.867c-0.43-2.801-3.082-4.716-5.837-4.28l-78.346,12.047
			c-2.995-8.059-9.119-14.945-17.613-18.616L113.131,0.429c-2.586-1.116-5.606,0.072-6.728,2.667L0.419,248.416
			c-0.538,1.244-0.558,2.657-0.061,3.917c0.507,1.26,1.485,2.273,2.734,2.811l149.509,64.589c1.306,0.563,2.637,1.009,3.978,1.393
			l12.923,83.988c0.389,2.534,2.57,4.342,5.053,4.342c0.261,0,0.522-0.021,0.783-0.061l229.786-35.343
			c1.341-0.205,2.55-0.937,3.349-2.033C409.277,370.923,409.615,369.556,409.405,368.214z M156.656,310.338L11.852,247.776
			L113.771,11.862L258.58,74.418c11.336,4.9,16.573,18.109,11.679,29.445l-84.157,194.79c-2.371,5.494-6.743,9.733-12.303,11.94
			C168.237,312.806,162.155,312.708,156.656,310.338z M301.659,244.141l18.975,74.225l-3.517,3.517l-35.86-54.093
			c-0.85-1.28-2.227-2.109-3.758-2.263c-1.526-0.159-3.041,0.389-4.132,1.475l-8.12,8.12c-6.758,6.758-12.129,12.129-20.173,20.137
			c-1.91,1.905-2.668,4.229-2.268,6.912c0.507,3.359,0.988,6.723,1.475,10.086l1.08,7.434c-0.891,0.87-1.771,1.751-2.652,2.632
			l-4.142-7.46c-2.483-4.485-4.971-8.975-7.485-13.425c-0.998-1.782-2.56-2.913-3.697-3.548
			c-7.127-3.994-14.269-7.967-21.412-11.935l-2.596-1.444l1.505-3.477c2.698,0.563,6.103,1.454,9.446,2.33
			c4.854,1.275,9.441,2.478,12.861,2.99c0.425,0.061,0.84,0.092,1.244,0.092c2.012,0,3.82-0.763,5.284-2.237l27.438-27.469
			c0.251-0.251,0.486-0.522,0.788-0.876l0.338-0.394c0.968-1.111,1.413-2.586,1.219-4.05c-0.2-1.464-1.014-2.775-2.243-3.589
			l-32.676-21.668l5.007-11.587c24.013,6.41,44.657,11.29,51.697,12.954c1.894,0.445,4.675,0.445,7.183-2.074l28.954-28.989
			c1.828-1.833,3.661-2.729,5.939-2.908c2.427-0.22,4.803,0.799,6.431,2.729c1.638,1.935,2.227,4.424,1.623,6.825
			c-0.425,1.684-1.316,3.159-2.806,4.649l-8.294,8.294c-6.763,6.758-12.8,12.8-20.49,20.449
			C301.695,238.617,300.958,241.151,301.659,244.141z M209.003,271.456l15.447-35.743l25.999,17.239l-23.025,23.05
			c-2.842-0.532-6.728-1.556-10.506-2.55C214.118,272.716,211.445,272.025,209.003,271.456z M178.841,398.499l-11.725-76.216
			c3.538-0.174,7.071-0.824,10.46-2.166c8.105-3.215,14.469-9.39,17.925-17.398l3.784-8.76l1.705,0.947
			c7.091,3.942,14.182,7.885,21.361,11.914c2.442,4.321,4.844,8.663,7.25,13.005l7.409,13.343c0.753,1.352,2.263,2.125,3.789,2.391
			c0.241,0.041,0.486,0.061,0.737,0.061c1.326,0,2.724-0.563,3.707-1.423c0.348-0.307,0.635-0.563,0.922-0.845l2.268-2.273
			c1.649-1.654,3.292-3.307,4.966-4.925c1.864-1.807,2.647-4.122,2.263-6.707l-1.26-8.643c-0.43-3.026-0.865-6.052-1.321-9.073
			c7.619-7.578,12.856-12.82,19.4-19.364l3.692-3.692l35.861,54.093c0.85,1.28,2.227,2.109,3.758,2.263
			c1.5,0.148,3.046-0.389,4.132-1.475l10.01-10.01c1.28-1.28,1.787-3.139,1.341-4.89l-19.369-75.75
			c7.291-7.255,13.133-13.097,19.645-19.61l8.294-8.294c2.816-2.816,4.613-5.888,5.494-9.39c1.398-5.56,0-11.52-3.732-15.933
			c-3.732-4.413-9.365-6.789-15.058-6.328c-4.69,0.369-8.858,2.345-12.385,5.883l-27.955,27.996
			c-7.916-1.874-26.721-6.359-48.517-12.155l41.969-97.147c2.007-4.644,2.806-9.498,2.611-14.239l72.822-11.203l43.412,282.225
			L178.841,398.499z"/>
	</g>
</g>
<g>
	<g>
		<path d="M178.585,238.719L69.529,191.605c-2.335-1.003-5.048,0.072-6.057,2.401c-1.014,2.335,0.067,5.048,2.401,6.057
			l109.056,47.114c0.594,0.256,1.213,0.379,1.823,0.379c1.782,0,3.482-1.044,4.234-2.78
			C181.995,242.441,180.92,239.728,178.585,238.719z"/>
	</g>
</g>
<g>
	<g>
		<path d="M162.974,268.128L53.918,221.014c-2.335-1.014-5.048,0.067-6.057,2.401c-1.009,2.335,0.067,5.048,2.401,6.057
			l109.056,47.114c0.594,0.256,1.213,0.379,1.823,0.379c1.782,0,3.482-1.044,4.234-2.78
			C166.384,271.851,165.309,269.137,162.974,268.128z"/>
	</g>
</g>
<g>
</g>
<g>
</g>
<g>
</g>
<g>
</g>
<g>
</g>
<g>
</g>
<g>
</g>
<g>
</g>
<g>
</g>
<g>
</g>
<g>
</g>
<g>
</g>
<g>
</g>
<g>
</g>
<g>
</g>
</svg>
