<svg xmlns="http://www.w3.org/2000/svg" xmlns:xlink="http://www.w3.org/1999/xlink" width="19.934" height="19.178" viewBox="0 0 19.934 19.178"><defs><style>.a{fill:#312b27;}.b{fill:url(#a);}.c{fill:url(#b);}</style><linearGradient id="a" y1="0.5" x2="1" y2="0.5" gradientUnits="objectBoundingBox"><stop offset="0" stop-color="red"/><stop offset="1" stop-color="#ff6f08"/></linearGradient><linearGradient id="b" x1="0" y1="0.5" x2="1" y2="0.5" xlink:href="#a"/></defs><g transform="translate(-647.078 -946.396)"><path class="a" d="M648.443,957.062a15.55,15.55,0,0,0,6.915,6.917l1.326.663a6.491,6.491,0,0,0,2.9.7,5.729,5.729,0,0,0,1.555-.2,5.228,5.228,0,0,0,3.429-2.922l.328-.712a.818.818,0,0,0-.279-1.015l-4.215-2.946a.818.818,0,0,0-.867-.04l-.852.49a3.117,3.117,0,0,1-4.01-1.195,3,3,0,0,1-.172-3.134l.425-.753a.82.82,0,0,0-.04-.868l-2.946-4.248a.82.82,0,0,0-1.015-.278l-.712.328a5.227,5.227,0,0,0-2.922,3.421,6.2,6.2,0,0,0,.491,4.469Zm.417-5.353a3.673,3.673,0,0,1,.933-1.637,3.748,3.748,0,0,1,1.09-.745l.089-.041,2.26,3.274-.172.3a4.646,4.646,0,0,0,.237,4.853,4.765,4.765,0,0,0,6.147,1.736l.441-.246,3.274,2.259-.04.1a3.726,3.726,0,0,1-.745,1.089,3.677,3.677,0,0,1-1.637.941,4.565,4.565,0,0,1-3.274-.377l-1.366-.687a13.92,13.92,0,0,1-6.189-6.188l-.662-1.326A4.575,4.575,0,0,1,648.86,951.709Z" transform="translate(0 0.229)"/><g transform="translate(658.847 946.396)"><path class="b" d="M662.773,954.178a9.544,9.544,0,0,0-6.04-5.6l.684-2.181a11.833,11.833,0,0,1,7.481,6.937Z" transform="translate(-656.733 -946.396)"/></g><g transform="translate(658.217 949.67)"><path class="c" d="M659.674,954.341a6.19,6.19,0,0,0-3.458-3.111l.783-2.148a8.463,8.463,0,0,1,4.727,4.254Z" transform="translate(-656.216 -949.082)"/></g></g></svg>