<svg xmlns="http://www.w3.org/2000/svg" xmlns:xlink="http://www.w3.org/1999/xlink" width="28.09" height="20.75" viewBox="0 0 28.09 20.75"><defs><style>.a{fill:#312b27;}.b{fill:url(#a);}.c{clip-path:url(#b);}</style><linearGradient id="a" y1="0.5" x2="1" y2="0.5" gradientUnits="objectBoundingBox"><stop offset="0" stop-color="red"/><stop offset="1" stop-color="#ff6f08"/></linearGradient><clipPath id="b"><circle class="a" cx="1.704" cy="1.704" r="1.704"/></clipPath></defs><g transform="translate(-520.006 -915.965)"><g transform="translate(528.367 921.833)"><path class="b" d="M536.357,934.82a5.684,5.684,0,1,1,5.684-5.684A5.69,5.69,0,0,1,536.357,934.82Zm0-9.482a3.8,3.8,0,1,0,3.8,3.8A3.8,3.8,0,0,0,536.357,925.338Z" transform="translate(-530.673 -923.452)"/></g><g transform="translate(541.548 921.4)"><g transform="translate(0)"><circle class="a" cx="1.704" cy="1.704" r="1.704"/><g class="c"><path class="a" d="M547.49,922.9v0Z" transform="translate(-547.49 -922.899)"/><rect class="a" width="0.031" height="3.409"/><rect class="a" width="0.031" height="3.409" transform="translate(0.031)"/><rect class="a" width="0.031" height="3.409" transform="translate(0.061)"/><rect class="a" width="0.031" height="3.409" transform="translate(0.092)"/><rect class="a" width="0.031" height="3.409" transform="translate(0.123)"/><rect class="a" width="0.031" height="3.409" transform="translate(0.154)"/><rect class="a" width="0.031" height="3.409" transform="translate(0.184)"/><rect class="a" width="0.031" height="3.409" transform="translate(0.215)"/><rect class="a" width="0.031" height="3.409" transform="translate(0.246)"/><rect class="a" width="0.031" height="3.409" transform="translate(0.276)"/><rect class="a" width="0.031" height="3.409" transform="translate(0.307)"/><rect class="a" width="0.031" height="3.409" transform="translate(0.338)"/><rect class="a" width="0.031" height="3.409" transform="translate(0.369)"/><rect class="a" width="0.031" height="3.409" transform="translate(0.399)"/><rect class="a" width="0.031" height="3.409" transform="translate(0.43)"/><rect class="a" width="0.031" height="3.409" transform="translate(0.461)"/><rect class="a" width="0.031" height="3.409" transform="translate(0.491)"/><rect class="a" width="0.031" height="3.409" transform="translate(0.522)"/><rect class="a" width="0.031" height="3.409" transform="translate(0.553)"/><rect class="a" width="0.031" height="3.409" transform="translate(0.583)"/><rect class="a" width="0.031" height="3.409" transform="translate(0.614)"/><rect class="a" width="0.031" height="3.409" transform="translate(0.645)"/><rect class="a" width="0.031" height="3.409" transform="translate(0.676)"/><rect class="a" width="0.031" height="3.409" transform="translate(0.706)"/><rect class="a" width="0.031" height="3.409" transform="translate(0.737)"/><rect class="a" width="0.031" height="3.409" transform="translate(0.768)"/><rect class="a" width="0.031" height="3.409" transform="translate(0.798)"/><rect class="a" width="0.031" height="3.409" transform="translate(0.829)"/><rect class="a" width="0.031" height="3.409" transform="translate(0.86)"/><rect class="a" width="0.031" height="3.409" transform="translate(0.891)"/><rect class="a" width="0.031" height="3.409" transform="translate(0.921)"/><rect class="a" width="0.031" height="3.409" transform="translate(0.952)"/><rect class="a" width="0.031" height="3.409" transform="translate(0.983)"/><rect class="a" width="0.031" height="3.409" transform="translate(1.013)"/><rect class="a" width="0.031" height="3.409" transform="translate(1.044)"/><rect class="a" width="0.031" height="3.409" transform="translate(1.075)"/><rect class="a" width="0.031" height="3.409" transform="translate(1.106)"/><rect class="a" width="0.031" height="3.409" transform="translate(1.136)"/><rect class="a" width="0.031" height="3.409" transform="translate(1.167)"/><rect class="a" width="0.031" height="3.409" transform="translate(1.198)"/><rect class="a" width="0.031" height="3.409" transform="translate(1.228)"/><rect class="a" width="0.031" height="3.409" transform="translate(1.259)"/><rect class="a" width="0.031" height="3.409" transform="translate(1.29)"/><rect class="a" width="0.031" height="3.409" transform="translate(1.321)"/><rect class="a" width="0.031" height="3.409" transform="translate(1.351)"/><rect class="a" width="0.031" height="3.409" transform="translate(1.382)"/><rect class="a" width="0.031" height="3.409" transform="translate(1.413)"/><rect class="a" width="0.031" height="3.409" transform="translate(1.443)"/><rect class="a" width="0.031" height="3.409" transform="translate(1.474)"/><rect class="a" width="0.031" height="3.409" transform="translate(1.505)"/><rect class="a" width="0.031" height="3.409" transform="translate(1.536)"/><rect class="a" width="0.031" height="3.409" transform="translate(1.566)"/><rect class="a" width="0.031" height="3.409" transform="translate(1.597)"/><rect class="a" width="0.031" height="3.409" transform="translate(1.628)"/><rect class="a" width="0.031" height="3.409" transform="translate(1.658)"/><rect class="a" width="0.031" height="3.409" transform="translate(1.689)"/><rect class="a" width="0.031" height="3.409" transform="translate(1.72)"/><rect class="a" width="0.031" height="3.409" transform="translate(1.75)"/><rect class="a" width="0.031" height="3.409" transform="translate(1.781)"/><rect class="a" width="0.031" height="3.409" transform="translate(1.812)"/><rect class="a" width="0.031" height="3.409" transform="translate(1.843)"/><rect class="a" width="0.031" height="3.409" transform="translate(1.873)"/><rect class="a" width="0.031" height="3.409" transform="translate(1.904)"/><rect class="a" width="0.031" height="3.409" transform="translate(1.935)"/><rect class="a" width="0.031" height="3.409" transform="translate(1.965)"/><rect class="a" width="0.031" height="3.409" transform="translate(1.996)"/><rect class="a" width="0.031" height="3.409" transform="translate(2.027)"/><rect class="a" width="0.031" height="3.409" transform="translate(2.058)"/><rect class="a" width="0.031" height="3.409" transform="translate(2.088)"/><rect class="a" width="0.031" height="3.409" transform="translate(2.119)"/><rect class="a" width="0.031" height="3.409" transform="translate(2.15)"/><rect class="a" width="0.031" height="3.409" transform="translate(2.18)"/><rect class="a" width="0.031" height="3.409" transform="translate(2.211)"/><rect class="a" width="0.031" height="3.409" transform="translate(2.242)"/><rect class="a" width="0.031" height="3.409" transform="translate(2.273)"/><rect class="a" width="0.031" height="3.409" transform="translate(2.303)"/><rect class="a" width="0.031" height="3.409" transform="translate(2.334)"/><rect class="a" width="0.031" height="3.409" transform="translate(2.365)"/><rect class="a" width="0.031" height="3.409" transform="translate(2.395)"/><rect class="a" width="0.031" height="3.409" transform="translate(2.426)"/><rect class="a" width="0.031" height="3.409" transform="translate(2.457)"/><rect class="a" width="0.031" height="3.409" transform="translate(2.488)"/><rect class="a" width="0.031" height="3.409" transform="translate(2.518)"/><rect class="a" width="0.031" height="3.409" transform="translate(2.549)"/><rect class="a" width="0.031" height="3.409" transform="translate(2.58)"/><rect class="a" width="0.031" height="3.409" transform="translate(2.61)"/><rect class="a" width="0.031" height="3.409" transform="translate(2.641)"/><rect class="a" width="0.031" height="3.409" transform="translate(2.672)"/><rect class="a" width="0.031" height="3.409" transform="translate(2.702)"/><rect class="a" width="0.031" height="3.409" transform="translate(2.733)"/><rect class="a" width="0.031" height="3.409" transform="translate(2.764)"/><rect class="a" width="0.031" height="3.409" transform="translate(2.795)"/><rect class="a" width="0.031" height="3.409" transform="translate(2.825)"/><rect class="a" width="0.031" height="3.409" transform="translate(2.856)"/><rect class="a" width="0.031" height="3.409" transform="translate(2.887)"/><rect class="a" width="0.031" height="3.409" transform="translate(2.917)"/><rect class="a" width="0.031" height="3.409" transform="translate(2.948)"/><rect class="a" width="0.031" height="3.409" transform="translate(2.979)"/><rect class="a" width="0.031" height="3.409" transform="translate(3.01)"/><rect class="a" width="0.031" height="3.409" transform="translate(3.04)"/><rect class="a" width="0.031" height="3.409" transform="translate(3.071)"/><rect class="a" width="0.031" height="3.409" transform="translate(3.102)"/><rect class="a" width="0.031" height="3.409" transform="translate(3.132)"/><rect class="a" width="0.031" height="3.409" transform="translate(3.163)"/><rect class="a" width="0.031" height="3.409" transform="translate(3.194)"/><rect class="a" width="0.031" height="3.409" transform="translate(3.225)"/><rect class="a" width="0.031" height="3.409" transform="translate(3.255)"/><rect class="a" width="0.031" height="3.409" transform="translate(3.286)"/><rect class="a" width="0.031" height="3.409" transform="translate(3.317)"/><rect class="a" width="0.031" height="3.409" transform="translate(3.347)"/><rect class="a" width="0.031" height="3.409" transform="translate(3.378)"/><path class="a" d="M551.839,926.308v0Z" transform="translate(-548.43 -922.899)"/></g></g></g><g transform="translate(520.006 915.965)"><path class="b" d="M543.174,936.715H524.927a4.927,4.927,0,0,1-4.921-4.922v-8.551a4.925,4.925,0,0,1,4.921-4.92h3.436v-2.356H539.6v2.356h3.575a4.926,4.926,0,0,1,4.922,4.92v8.551A4.928,4.928,0,0,1,543.174,936.715Zm-18.248-16.508a3.038,3.038,0,0,0-3.035,3.034v8.551a3.038,3.038,0,0,0,3.035,3.036h18.248a3.039,3.039,0,0,0,3.036-3.036v-8.551a3.038,3.038,0,0,0-3.036-3.034h-5.461v-2.356h-7.465v2.356Z" transform="translate(-520.006 -915.965)"/></g></g></svg>