<svg xmlns="http://www.w3.org/2000/svg" xmlns:xlink="http://www.w3.org/1999/xlink" width="24.7" height="24.701" viewBox="0 0 24.7 24.701"><defs><style>.a{fill:#312b27;}.b{fill:url(#a);}</style><linearGradient id="a" y1="0.5" x2="1" y2="0.5" gradientUnits="objectBoundingBox"><stop offset="0" stop-color="red"/><stop offset="1" stop-color="#ff6f08"/></linearGradient></defs><g transform="translate(-799.378 -915.401)"><path class="a" d="M821.793,926.172a10.122,10.122,0,0,0-8.489-8.489V915.4h-3.156v2.283a10.123,10.123,0,0,0-8.488,8.488h-2.282v3.154h2.282a10.122,10.122,0,0,0,8.489,8.489V940.1H813.3v-2.287a10.125,10.125,0,0,0,8.489-8.489h2.285v-3.154Zm-17.105,1.577a7.039,7.039,0,1,1,7.1,7.04h-.064A7.046,7.046,0,0,1,804.688,927.749Z"/><path class="b" d="M811.726,923.441a4.308,4.308,0,1,0,4.308,4.308,4.308,4.308,0,0,0-4.308-4.308Z"/></g></svg>