<svg xmlns="http://www.w3.org/2000/svg" width="23.93" height="24" viewBox="0 0 23.93 24"><defs><style>.a{fill:#fff;}</style></defs><g transform="translate(0 0.07)"><path class="a" d="M7.456,7.456H0V0H7.456ZM5.965,1.491H1.491V5.965H5.965Z" transform="translate(0 16.403)"/><rect class="a" width="2" height="2" transform="translate(2.93 18.93)"/><path class="a" d="M352,7.456V0h7.456V7.456Zm5.965-5.965h-4.474V5.965h4.474Z" transform="translate(-335.597 16.403)"/><rect class="a" width="2" height="2" transform="translate(18.93 18.93)"/><path class="a" d="M0,352H7.456v7.456H0Zm1.491,5.965H5.965v-4.474H1.491Z" transform="translate(0 -352)"/><rect class="a" width="2" height="2" transform="translate(2.93 2.93)"/><rect class="a" width="3" height="2" transform="translate(11.93 21.93)"/><path class="a" d="M194.982,32h1.491v1.491h1.491v1.491h-4.474v1.491H192V33.491h2.982Z" transform="translate(-183.053 -14.105)"/><rect class="a" width="2" height="2" transform="translate(8.93 15.93)"/><path class="a" d="M197.965,162.982h-1.491v-1.491H192V160h5.965Z" transform="translate(-183.053 -146.579)"/><path class="a" d="M1.491,193.491H2.982v1.491H1.491v2.982H0V192H1.491Z" transform="translate(0 -183.053)"/><rect class="a" width="2" height="2" transform="translate(2.93 12.93)"/><path class="a" d="M100.474,192h2.982v1.491h-1.491v1.491H98.982v2.982H97.491v-2.982H96V192h1.491v1.491h2.982Z" transform="translate(-91.526 -183.053)"/><rect class="a" width="2" height="3" transform="translate(12.93 8.93)"/><path class="a" d="M196.474,359.456H192v-1.491h2.982v-4.474H192V352h4.474v1.491h2.982v1.491h-2.982Z" transform="translate(-183.053 -352)"/><rect class="a" width="2" height="2" transform="translate(8.93 2.93)"/><rect class="a" width="1" height="3" transform="translate(14.93 4.93)"/><path class="a" d="M388.474,420.474H384V416h1.491v2.982h2.982Z" transform="translate(-366.105 -416)"/><rect class="a" width="3" height="2" transform="translate(20.93 -0.07)"/><rect class="a" width="2" height="2" transform="translate(21.93 5.93)"/><path class="a" d="M353.491,288h1.491v4.474H352v-1.491h1.491Z" transform="translate(-335.597 -282.035)"/><path class="a" d="M356.474,193.491h-1.491v1.491h-1.491v-1.491H352V192h5.965v1.491h1.491v1.491h-2.982Z" transform="translate(-335.597 -180.07)"/><rect class="a" width="3" height="2" transform="translate(20.93 8.93)"/></g></svg>