<svg xmlns="http://www.w3.org/2000/svg" xmlns:xlink="http://www.w3.org/1999/xlink" width="22" height="26.283" viewBox="0 0 22 26.283"><defs><style>.a{fill:url(#a);}.b{fill:none;stroke-miterlimit:10;}.c{fill:#312b27;}.d,.e{stroke:none;}.e{fill:#312b27;}</style><linearGradient id="a" y1="0.5" x2="1" y2="0.5" gradientUnits="objectBoundingBox"><stop offset="0" stop-color="red"/><stop offset="1" stop-color="#ff6f08"/></linearGradient></defs><g transform="translate(-627.468 -944.669)"><path class="a" d="M638.468,947.811l-8,2.3v7.4a10.711,10.711,0,0,0,7.7,10.2l.3.1.3-.1a10.711,10.711,0,0,0,7.7-10.2v-7.4Z"/><g class="b"><path class="d" d="M638.468,944.669l-.829.238-8,2.3-2.171.624v9.659a13.7,13.7,0,0,0,9.806,13.064l.246.082.948.316.948-.316.246-.082a13.7,13.7,0,0,0,9.806-13.064v-9.659l-2.171-.624-8-2.3-.829-.238Z"/><path class="e" d="M 638.468017578125 946.2295532226562 L 638.053466796875 946.3485717773438 L 630.0533447265625 948.6486206054688 L 628.968017578125 948.9605712890625 L 628.968017578125 950.0900268554688 L 628.968017578125 957.489990234375 C 628.968017578125 962.8239135742188 632.5574951171875 967.604248046875 637.6969604492188 969.1148681640625 L 637.7227172851562 969.1224365234375 L 637.7481079101562 969.1309204101562 L 637.9944458007812 969.2129516601562 L 638.468017578125 969.370849609375 L 638.9417724609375 969.2129516601562 L 639.187744140625 969.1309814453125 L 639.2132568359375 969.1224365234375 L 639.239013671875 969.1148681640625 C 644.3785400390625 967.604248046875 647.968017578125 962.8239135742188 647.968017578125 957.489990234375 L 647.968017578125 950.0900268554688 L 647.968017578125 948.9605712890625 L 646.8825073242188 948.6485595703125 L 638.8831176757812 946.3487548828125 L 638.468017578125 946.2295532226562 M 638.468017578125 944.6690063476562 L 639.2969970703125 944.906982421875 L 647.2969970703125 947.2069702148438 L 649.468017578125 947.8309936523438 L 649.468017578125 950.0900268554688 L 649.468017578125 957.489990234375 C 649.468017578125 963.4929809570312 645.4390258789062 968.8560180664062 639.6619873046875 970.5540161132812 L 639.416015625 970.635986328125 L 638.468017578125 970.9520263671875 L 637.52001953125 970.635986328125 L 637.2739868164062 970.5540161132812 C 631.4970092773438 968.8560180664062 627.468017578125 963.4929809570312 627.468017578125 957.489990234375 L 627.468017578125 950.0900268554688 L 627.468017578125 947.8309936523438 L 629.6389770507812 947.2069702148438 L 637.6389770507812 944.906982421875 L 638.468017578125 944.6690063476562 Z"/></g><path class="c" d="M635.918,956.2l-1.4,1.4,3.3,3.3,4.6-4.7-1.4-1.4-3.2,3.2Z"/></g></svg>