<?xml version="1.0" encoding="utf-8"?>
<!-- Generator: Adobe Illustrator 25.2.2, SVG Export Plug-In . SVG Version: 6.00 Build 0)  -->
<svg version="1.1" id="Calque_1" xmlns="http://www.w3.org/2000/svg" xmlns:xlink="http://www.w3.org/1999/xlink" x="0px" y="0px"
	 viewBox="0 0 55.5 30" style="enable-background:new 0 0 55.5 30;" xml:space="preserve">
<style type="text/css">
	.st0{fill:#FF4A02;}
</style>
<g id="Groupe_225" transform="translate(-732.369 -911.44)">
	<g id="Groupe_221">
		<path id="Tracé_873" class="st0" d="M787.9,935.3h-4.6c0-5.5-4.5-10-10-10c-0.3,0-0.7,0-1,0l-1.4,0.1l-0.8-1.3
			c-3.3-5.1-8.9-8.1-15-8.2c-10,0-18.1,8.4-18.1,18.7h-4.6c0-12.8,10.2-23.2,22.7-23.2c7.2,0,13.9,3.5,18.2,9.3h0.1
			C781.4,920.7,787.9,927.2,787.9,935.3z"/>
	</g>
	<g id="Groupe_222">
		<path id="Tracé_874" class="st0" d="M773.4,941.4c-3.7,0-6.8-3-6.8-6.8s3-6.8,6.8-6.8c3.7,0,6.8,3,6.8,6.8
			C780.1,938.4,777.1,941.4,773.4,941.4z M773.4,932.5c-1.2,0-2.2,1-2.2,2.2c0,1.2,1,2.2,2.2,2.2c1.2,0,2.2-1,2.2-2.2
			C775.6,933.5,774.6,932.5,773.4,932.5z"/>
	</g>
	<g id="Groupe_223">
		<path id="Tracé_875" class="st0" d="M745.6,941.4c-3.7,0-6.8-3-6.8-6.8s3-6.8,6.8-6.8c3.7,0,6.8,3,6.8,6.8
			C752.3,938.4,749.3,941.4,745.6,941.4z M745.6,932.5c-1.2,0-2.2,1-2.2,2.2c0,1.2,1,2.2,2.2,2.2c1.2,0,2.2-1,2.2-2.2
			C747.7,933.5,746.8,932.5,745.6,932.5z"/>
	</g>
	<g id="Groupe_224">
		<rect id="Rectangle_363" x="753.9" y="931.5" class="st0" width="10.7" height="4.6"/>
	</g>
</g>
</svg>
