<svg xmlns="http://www.w3.org/2000/svg" width="55.527" height="30" viewBox="0 0 55.527 30">
  <g id="Groupe_225" data-name="Groupe 225" transform="translate(-732.369 -911.44)">
    <g id="Groupe_221" data-name="Groupe 221">
      <path id="Tracé_873" data-name="Tracé 873" d="M787.9,935.306h-4.575A10.03,10.03,0,0,0,773.3,925.287c-.339,0-.676.017-1,.049l-1.383.139-.84-1.285a17.992,17.992,0,0,0-15-8.174c-10,0-18.134,8.375-18.134,18.67h-4.575c0-12.818,10.187-23.246,22.709-23.246a22.528,22.528,0,0,1,18.151,9.272h.073A14.611,14.611,0,0,1,787.9,935.306Z" fill="#b3b3b3"/>
    </g>
    <g id="Groupe_222" data-name="Groupe 222">
      <path id="Tracé_874" data-name="Tracé 874" d="M773.376,941.44a6.754,6.754,0,1,1,6.754-6.754A6.762,6.762,0,0,1,773.376,941.44Zm0-8.933a2.179,2.179,0,1,0,2.179,2.179A2.181,2.181,0,0,0,773.376,932.507Z" fill="#b3b3b3"/>
    </g>
    <g id="Groupe_223" data-name="Groupe 223">
      <path id="Tracé_875" data-name="Tracé 875" d="M745.554,941.44a6.754,6.754,0,1,1,6.754-6.754A6.762,6.762,0,0,1,745.554,941.44Zm0-8.933a2.179,2.179,0,1,0,2.179,2.179A2.181,2.181,0,0,0,745.554,932.507Z" fill="#b3b3b3"/>
    </g>
    <g id="Groupe_224" data-name="Groupe 224">
      <rect id="Rectangle_363" data-name="Rectangle 363" width="10.693" height="4.575" transform="translate(753.909 931.467)" fill="#b3b3b3"/>
    </g>
  </g>
</svg>
