<?xml version="1.0" encoding="utf-8"?>
<!-- Generator: Adobe Illustrator 25.2.2, SVG Export Plug-In . SVG Version: 6.00 Build 0)  -->
<svg version="1.1" id="Calque_1" xmlns="http://www.w3.org/2000/svg" xmlns:xlink="http://www.w3.org/1999/xlink" x="0px" y="0px"
	 viewBox="0 0 116 116" style="enable-background:new 0 0 116 116;" xml:space="preserve">
<style type="text/css">
	.st0{fill:url(#Ellipse_34-2_1_);}
	.st1{fill:#312B27;}
</style>
<g transform="matrix(1, 0, 0, 1, 0, 0)">
	
		<linearGradient id="Ellipse_34-2_1_" gradientUnits="userSpaceOnUse" x1="-883.9951" y1="589.6001" x2="-884.7792" y2="590.1861" gradientTransform="matrix(56 0 0 -56 49585 33093)">
		<stop  offset="0" style="stop-color:#FF6F08"/>
		<stop  offset="1" style="stop-color:#FF0000"/>
	</linearGradient>
	<circle id="Ellipse_34-2" class="st0" cx="58" cy="58" r="28"/>
</g>
<g id="Groupe_218" transform="translate(-948.518 -531.407)">
	<g id="Groupe_216">
		<circle id="Ellipse_170" class="st1" cx="1004.9" cy="586.9" r="3"/>
	</g>
	<g id="Groupe_217">
		<circle id="Ellipse_171" class="st1" cx="1013.7" cy="586.9" r="3"/>
	</g>
	<path id="Tracé_868" class="st1" d="M1025.1,592.2l-7.5,8l-3.8-4h-22c-1.8,0-3.3-1.5-3.3-3.3c0-1.8,1.5-3.3,3.3-3.3l0,0
		c0.7,0.1,1.3,0.3,1.9,0.7c0.6,0.3,1.3,0.2,1.8-0.2c0.5-0.4,0.8-1.1,0.7-1.8c-0.1-0.5-0.1-1-0.1-1.6c0-5.2,4.3-9.5,9.5-9.5
		c1,0,1.9,0.1,2.8,0.4l0.2,0.1l3-2.6l-0.7-0.3c-1.7-0.8-3.6-1.2-5.4-1.1c-6.9,0-12.7,5.5-13,12.4c-0.2,0-0.5-0.1-0.7-0.1
		c-3.8,0-6.8,3.1-6.8,6.8c0,3.8,3.1,6.8,6.8,6.8l0,0h19.9l5.9,6.2l10.4-11.1L1025.1,592.2z"/>
</g>
</svg>
