<svg xmlns="http://www.w3.org/2000/svg" xmlns:xlink="http://www.w3.org/1999/xlink" width="29.999" height="30" viewBox="0 0 29.999 30">
  <defs>
    <linearGradient id="linear-gradient" y1="0.5" x2="1" y2="0.5" gradientUnits="objectBoundingBox">
      <stop offset="0" stop-color="red"/>
      <stop offset="1" stop-color="#ff6f08"/>
    </linearGradient>
  </defs>
  <g id="Groupe_219" data-name="Groupe 219" transform="translate(-1145.298 -908.14)">
    <path id="Tracé_869" data-name="Tracé 869" d="M1175.3,925.994v-5.708h-3.644a11.622,11.622,0,0,0-1.31-3.155l2.579-2.58-4.036-4.036-2.58,2.579a11.663,11.663,0,0,0-3.154-1.31V908.14h-5.708v3.644a11.616,11.616,0,0,0-3.155,1.311l-2.58-2.58-4.036,4.036,2.58,2.58a11.624,11.624,0,0,0-1.311,3.155H1145.3v5.708h3.644a11.65,11.65,0,0,0,1.31,3.154l-2.579,2.58,4.036,4.036,2.58-2.579a11.643,11.643,0,0,0,3.155,1.311v3.644h5.708V934.5a11.661,11.661,0,0,0,3.154-1.311l2.58,2.579,4.036-4.036-2.579-2.579a11.651,11.651,0,0,0,1.31-3.155Zm-15,4.588a7.442,7.442,0,1,1,7.441-7.442A7.451,7.451,0,0,1,1160.3,930.582Z" fill="#b3b3b3"/>
    <path id="Tracé_870" data-name="Tracé 870" d="M1160.3,927.149a4.009,4.009,0,1,1,4.008-4.009h0A4.015,4.015,0,0,1,1160.3,927.149Z" fill="url(#linear-gradient)"/>
  </g>
</svg>
