<?xml version="1.0" encoding="utf-8"?>
<!-- Generator: Adobe Illustrator 25.2.2, SVG Export Plug-In . SVG Version: 6.00 Build 0)  -->
<svg version="1.1" id="Calque_1" xmlns="http://www.w3.org/2000/svg" xmlns:xlink="http://www.w3.org/1999/xlink" x="0px" y="0px"
	 viewBox="0 0 30 30" style="enable-background:new 0 0 30 30;" xml:space="preserve">
<style type="text/css">
	.st0{fill:url(#Tracé_869_1_);}
	.st1{fill:url(#Tracé_870_1_);}
</style>
<g id="Groupe_219" transform="translate(-1145.298 -908.14)">
	<linearGradient id="Tracé_869_1_" gradientUnits="userSpaceOnUse" x1="1145.3" y1="923.14" x2="1175.3" y2="923.14">
		<stop  offset="0" style="stop-color:#FF0000"/>
		<stop  offset="1" style="stop-color:#FF6F08"/>
	</linearGradient>
	<path id="Tracé_869" class="st0" d="M1175.3,926v-5.7h-3.6c-0.3-1.1-0.7-2.2-1.3-3.2l2.6-2.6l-4-4l-2.6,2.6c-1-0.6-2-1-3.2-1.3
		v-3.6h-5.7v3.6c-1.1,0.3-2.2,0.7-3.2,1.3l-2.6-2.6l-4,4l2.6,2.6c-0.6,1-1,2-1.3,3.2h-3.6v5.7h3.6c0.3,1.1,0.7,2.2,1.3,3.2l-2.6,2.6
		l4,4l2.6-2.6c1,0.6,2,1,3.2,1.3v3.6h5.7v-3.6c1.1-0.3,2.2-0.7,3.2-1.3l2.6,2.6l4-4l-2.6-2.6c0.6-1,1-2,1.3-3.2L1175.3,926z
		 M1160.3,930.6c-4.1,0-7.4-3.3-7.4-7.4c0-4.1,3.3-7.4,7.4-7.4c4.1,0,7.4,3.3,7.4,7.4c0,0,0,0,0,0
		C1167.7,927.2,1164.4,930.6,1160.3,930.6L1160.3,930.6z"/>
	
		<linearGradient id="Tracé_870_1_" gradientUnits="userSpaceOnUse" x1="319.0321" y1="1398.2876" x2="320.0321" y2="1398.2876" gradientTransform="matrix(8.0181 0 0 -8.0181 -1401.7305 12134.7031)">
		<stop  offset="0" style="stop-color:#FF0000"/>
		<stop  offset="1" style="stop-color:#FF6F08"/>
	</linearGradient>
	<path id="Tracé_870" class="st1" d="M1160.3,927.1c-2.2,0-4-1.8-4-4c0-2.2,1.8-4,4-4c2.2,0,4,1.8,4,4c0,0,0,0,0,0l0,0
		C1164.3,925.4,1162.5,927.1,1160.3,927.1z"/>
</g>
</svg>
