<svg xmlns="http://www.w3.org/2000/svg" width="46.114" height="30" viewBox="0 0 46.114 30">
  <g id="Groupe_220" data-name="Groupe 220" transform="translate(-621.432 -909.689)">
    <path id="Tracé_871" data-name="Tracé 871" d="M642.274,914.438v3.949h4.43v-3.946a18.441,18.441,0,0,1,4.711,1.221l3.168-3.649a23.079,23.079,0,0,0-33.151,19.78l4.621.082a18.368,18.368,0,0,1,4.241-10.9l2.813,2.813L636,920.9l-2.761-2.761A18.358,18.358,0,0,1,642.274,914.438Zm2.218-.137h0Z" fill="#b3b3b3"/>
    <path id="Tracé_872" data-name="Tracé 872" d="M662.336,918.177l2.242-2.242-2.932-2.941c-.291-.363-.291-.363-.472-.182l-13.716,13.725a6.681,6.681,0,0,0-4.839-.426,7.019,7.019,0,0,0-4.965,5.537,6.931,6.931,0,0,0,7.952,7.952,7.02,7.02,0,0,0,5.537-4.966,6.688,6.688,0,0,0-.427-4.838l8.325-8.324a18.36,18.36,0,0,1,3.884,10.4l4.621-.073A22.98,22.98,0,0,0,662.336,918.177ZM644.489,935.07a2.306,2.306,0,1,1,2.306-2.306A2.309,2.309,0,0,1,644.489,935.07Z" fill="#b3b3b3"/>
  </g>
</svg>
