<?xml version="1.0" encoding="utf-8"?>
<!-- Generator: Adobe Illustrator 25.2.2, SVG Export Plug-In . SVG Version: 6.00 Build 0)  -->
<svg version="1.1" id="Calque_1" xmlns="http://www.w3.org/2000/svg" xmlns:xlink="http://www.w3.org/1999/xlink" x="0px" y="0px"
	 viewBox="0 0 46.1 30" style="enable-background:new 0 0 46.1 30;" xml:space="preserve">
<style type="text/css">
	.st0{fill:#FF150A;}
</style>
<g id="Groupe_220" transform="translate(-621.432 -909.689)">
	<path id="Tracé_871" class="st0" d="M642.3,914.4v3.9h4.4v-3.9c1.6,0.2,3.2,0.6,4.7,1.2l3.2-3.6c-11.5-5.6-25.3-0.8-30.8,10.7
		c-1.4,2.8-2.2,6-2.3,9.1l4.6,0.1c0.2-4,1.7-7.8,4.2-10.9l2.8,2.8l2.9-2.9l-2.8-2.8C635.9,916.1,639,914.8,642.3,914.4z
		 M644.5,914.3L644.5,914.3z"/>
	<path id="Tracé_872" class="st0" d="M662.3,918.2l2.2-2.2l-2.9-2.9c-0.3-0.4-0.3-0.4-0.5-0.2l-13.7,13.7c-1.5-0.7-3.2-0.9-4.8-0.4
		c-2.6,0.7-4.5,2.9-5,5.5c-0.6,3.8,2,7.3,5.7,8c0.7,0.1,1.5,0.1,2.2,0c2.6-0.5,4.8-2.4,5.5-5c0.5-1.6,0.3-3.3-0.4-4.8l8.3-8.3
		c2.3,3,3.7,6.6,3.9,10.4l4.6-0.1C667.3,926.8,665.5,922,662.3,918.2z M644.5,935.1c-1.3,0-2.3-1-2.3-2.3s1-2.3,2.3-2.3
		s2.3,1,2.3,2.3C646.8,934,645.8,935.1,644.5,935.1z"/>
</g>
</svg>
