<svg xmlns="http://www.w3.org/2000/svg" xmlns:xlink="http://www.w3.org/1999/xlink" width="258.463" height="208.326" viewBox="0 0 258.463 208.326"><defs><style>.a{fill:#fff;}.b{fill:#ccc;}.c{fill:#312b27;}.d{fill:url(#a);}.e{opacity:0.1;isolation:isolate;}.f{fill:#ff8d08;}.g{fill:#ffb8b8;}</style><linearGradient id="a" y1="0.5" x2="1" y2="0.5" gradientUnits="objectBoundingBox"><stop offset="0" stop-color="#ff8d08"/><stop offset="1" stop-color="#ff6f08"/></linearGradient></defs><circle class="a" cx="29.323" cy="29.323" r="29.323" transform="translate(43.432 79.883)"/><path class="b" d="M209.72,397.151l7.213,4.47V371.407l-8.085-5.01a3.137,3.137,0,0,1-1.368-1.822h0a3.137,3.137,0,0,1,2.241.415l7.213,4.47V357.744a27.726,27.726,0,0,1,.828-6.724,27.726,27.726,0,0,1,.828,6.724v19.123l10.641-6.594a5.214,5.214,0,0,1,2.832-.781,5.215,5.215,0,0,1-1.96,2.188l-11.513,7.134v71.453h-1.656v-46.7l-8.085-5.01a3.137,3.137,0,0,1-1.368-1.822h0A3.137,3.137,0,0,1,209.72,397.151Z" transform="translate(-144.887 -245.124)"/><circle class="a" cx="29.323" cy="29.323" r="29.323" transform="translate(0 82.373)"/><path class="b" d="M71.744,405.4l-7.213,4.47V379.66l8.085-5.01a3.137,3.137,0,0,0,1.369-1.822h0a3.137,3.137,0,0,0-2.241.415l-7.213,4.47V366a27.709,27.709,0,0,0-.828-6.723A27.724,27.724,0,0,0,62.876,366v19.123l-10.641-6.594a5.212,5.212,0,0,0-2.832-.781,5.215,5.215,0,0,0,1.961,2.188l11.513,7.134v69.121h1.655V411.821l8.085-5.01a3.137,3.137,0,0,0,1.369-1.822h0A3.137,3.137,0,0,0,71.744,405.4Z" transform="translate(-34.498 -250.888)"/><circle class="a" cx="50.487" cy="50.487" r="50.487" transform="translate(0.137)"/><path class="b" d="M123.98,227.885l-12.419,7.7v-52.02l13.92-8.626a5.4,5.4,0,0,0,2.356-3.137h0a5.4,5.4,0,0,0-3.858.714l-12.419,7.7V160.036a47.731,47.731,0,0,0-1.425-11.576,47.716,47.716,0,0,0-1.425,11.576V192.96L90.389,181.607a8.98,8.98,0,0,0-4.877-1.345,8.979,8.979,0,0,0,3.375,3.768l19.823,12.284v112.77h2.85V238.934l13.92-8.626a5.4,5.4,0,0,0,2.356-3.137h0A5.4,5.4,0,0,0,123.98,227.885Z" transform="translate(-59.715 -103.673)"/><rect class="c" width="258.326" height="0.534" transform="translate(0.137 205.211)"/><path class="d" d="M602.543,553.265H547.034a2.568,2.568,0,0,1-2.564-2.564V499.113a2.567,2.567,0,0,1,2.564-2.564h55.509a2.567,2.567,0,0,1,2.564,2.564V550.7A2.567,2.567,0,0,1,602.543,553.265Z" transform="translate(-380.214 -346.75)"/><path class="c" d="M633.877,551.529h-7.844a2.567,2.567,0,0,1-2.564-2.564V494.033a2.567,2.567,0,0,1,2.564-2.564h7.844a2.567,2.567,0,0,1,2.564,2.564v54.931A2.567,2.567,0,0,1,633.877,551.529Z" transform="translate(-435.381 -343.203)"/><path class="c" d="M753.767,456.34c-.324,5.322-7.513,9.214-7.513,9.214s-6.663-4.736-6.339-10.058,7.513-9.214,7.513-9.214S754.091,451.018,753.767,456.34Z" transform="translate(-516.69 -311.648)"/><path class="c" d="M765.554,502.568c-5.323-.308-9.237-7.484-9.237-7.484s4.715-6.678,10.038-6.37,9.237,7.484,9.237,7.484S770.877,502.875,765.554,502.568Z" transform="translate(-528.152 -341.271)"/><path class="e" d="M699.628,503.209V522.9L680.04,497.049h14.921Z" transform="translate(-474.886 -347.099)"/><path class="f" d="M699.684,482.123a2.561,2.561,0,0,1-2.047-1.015l-40.81-53.862a2.565,2.565,0,0,1,.5-3.593h0l6.012-4.554a2.564,2.564,0,0,1,3.592.495h0l40.81,53.862a2.564,2.564,0,0,1-.5,3.593h0L701.23,481.6A2.55,2.55,0,0,1,699.684,482.123Z" transform="translate(-458.313 -292.302)"/><rect class="c" width="12.972" height="12.972" transform="translate(214.697 155.802) rotate(-37.15)"/><path class="g" d="M360.543,412.466a3.434,3.434,0,0,0-.351-5.253l-5.54-44.658-7.158,2.128,7.727,43.46a3.452,3.452,0,0,0,5.322,4.323Z" transform="translate(-242.662 -253.18)"/><path class="g" d="M412.742,632.111h4.186l1.993-16.147h-6.179Z" transform="translate(-288.226 -430.14)"/><path class="c" d="M422.926,670.608H409.769v-5.084h8.539a4.619,4.619,0,0,1,4.618,4.619h0v.465Z" transform="translate(-286.15 -464.749)"/><path class="g" d="M316.779,612.842,320.7,614.3l7.5-14.44-5.791-2.154Z" transform="translate(-221.213 -417.391)"/><path class="c" d="M321.832,652.474,309.5,647.886h0l1.772-4.764h0l8,2.977a4.618,4.618,0,0,1,2.718,5.939h0l-.162.436Z" transform="translate(-216.13 -449.105)"/><circle class="g" cx="7.916" cy="7.916" r="7.916" transform="translate(109.09 81.951)"/><path class="c" d="M321.261,342.025c-.248-7.291,7.415-12.349,13.862-8.935.821.435,9.3,7.641,9.623,12.116s.959,11.827.959,11.827l8.95,66.8-19.178-.959,2.316-19.488-12.466,19.818-15.1-4.8,18.539-53.38S321.637,353.074,321.261,342.025Z" transform="translate(-216.636 -231.842)"/><path class="c" d="M347.3,371.985l1.231,16.01a.665.665,0,0,0,.663.615h5.419a.665.665,0,0,0,.615-.921l-6.65-16.01a.666.666,0,0,0-1.278.306Z" transform="translate(-242.528 -259.264)"/><path class="g" d="M396.606,405.661a3.433,3.433,0,0,0-.964-5.176l-10.728-43.7-6.86,2.951,12.76,42.257a3.452,3.452,0,0,0,5.791,3.671Z" transform="translate(-264.003 -249.148)"/><path class="c" d="M378.912,341.45s-2.238,4.475,0,12.466,3.836,14.7,3.836,14.7,5.114-3.2,7.352-2.238-3.539-21.3-3.539-21.3S383.067,337.614,378.912,341.45Z" transform="translate(-263.908 -237.676)"/><path class="c" d="M354.794,268.215c.107-1.642,2.179-1.7,3.825-1.714s3.613.043,4.545-1.314a3.067,3.067,0,0,0-.011-3.1,8.815,8.815,0,0,0-2.168-2.413,30.044,30.044,0,0,0-6.864-4.835,11.007,11.007,0,0,0-8.184-.707c-3.249,1.159-7.641,7.127-8.02,10.556a12.435,12.435,0,0,0,3.3,9.487c2.31,2.562,7.6,1.528,10.924,2.44-2.023-2.863-.689-8.065,2.551-9.4Z" transform="translate(-235.931 -177.113)"/><g transform="translate(164.429 119.361)"><g transform="translate(6.489 4.216)"><circle class="a" cx="1.242" cy="1.242" r="1.242"/></g><g transform="translate(10.086 3.596)"><circle class="a" cx="1.242" cy="1.242" r="1.242"/></g><path class="a" d="M561.392,401.86l-2.5,3.807-1.825-1.347-8.968,1.545a1.363,1.363,0,0,1-.463-2.687,2.829,2.829,0,0,1,.817.136.729.729,0,0,0,.729-.215.763.763,0,0,0,.155-.763,4,4,0,0,1-.163-.632,3.92,3.92,0,0,1,4.376-4.549l.1.013,1.055-1.282-.288-.06a5.463,5.463,0,0,0-2.295-.087,5.389,5.389,0,0,0-4.422,5.976,1.78,1.78,0,0,0-.311.023,2.824,2.824,0,0,0,.959,5.567l8.1-1.4,2.854,2.107,3.455-5.243Z" transform="translate(-545.045 -395.656)"/></g><g transform="translate(195.756 80.235)"><g transform="translate(7.541 4.066)"><circle class="a" cx="1.242" cy="1.242" r="1.242"/></g><g transform="translate(10.952 5.366)"><circle class="a" cx="1.242" cy="1.242" r="1.242"/></g><path class="a" d="M664.7,276.3l-4.09,2-.883-2.089-8.5-3.241a1.363,1.363,0,0,1,.971-2.547,2.82,2.82,0,0,1,.634.533.728.728,0,0,0,.737.187.763.763,0,0,0,.522-.577,4,4,0,0,1,.182-.627,3.92,3.92,0,0,1,6.084-1.683l.078.061,1.561-.565-.217-.2a5.467,5.467,0,0,0-1.93-1.244A5.389,5.389,0,0,0,653,269.2a1.774,1.774,0,0,0-.279-.139,2.824,2.824,0,1,0-2.012,5.278l7.683,2.929,1.382,3.268,5.644-2.75Z" transform="translate(-648.886 -265.962)"/></g><g transform="translate(169.888 89.892)"><path class="a" d="M567.578,300.216a2.241,2.241,0,1,1-2.431-1.718A1.994,1.994,0,0,1,567.578,300.216Zm-3.122.369a.918.918,0,1,0,.811-1.014A.909.909,0,0,0,564.456,300.585Zm6.394-2.614-3.8,8.619-1.052.117,3.8-8.619Zm2.849,5.965a2.241,2.241,0,1,1-2.431-1.719A1.994,1.994,0,0,1,573.7,303.936Zm-3.122.369a.918.918,0,0,0,1.825-.2.918.918,0,0,0-1.825.2Z" transform="translate(-563.14 -297.971)"/></g><g transform="translate(197.762 105.553)"><path class="a" d="M661.67,352.339a1.978,1.978,0,0,0-1.179-.894,1.342,1.342,0,0,0-1.8.587l2.4.842-.62.746-2.194-.769c-.021.059-.061.148-.091.233a2.961,2.961,0,0,0-.084.292l1.985.7-.62.746-1.539-.539a1.307,1.307,0,0,0,1.04,1.506,2.14,2.14,0,0,0,1.473.053l-.463,1.32a3.3,3.3,0,0,1-1.688-.223,2.632,2.632,0,0,1-1.961-3.216l-.8-.28.62-.746.395.138a2.921,2.921,0,0,1,.089-.28,2.4,2.4,0,0,1,.094-.241l-.715-.25.62-.745.471.165a2.71,2.71,0,0,1,3.577-1.372,3.232,3.232,0,0,1,1.446.913Z" transform="translate(-655.535 -349.886)"/></g></svg>