<svg xmlns="http://www.w3.org/2000/svg" xmlns:xlink="http://www.w3.org/1999/xlink" width="261" height="211.263" viewBox="0 0 261 211.263"><defs><style>.a{fill:#fff;}.b{fill:#e6e6e6;}.c{fill:#312b27;}.d{fill:#ffb9b9;}.e{fill:#2f2e41;}.f{fill:#ff6f08;}.g{opacity:0.1;isolation:isolate;}.h{fill:url(#a);}.i{fill:url(#c);}</style><linearGradient id="a" y1="0.5" x2="1" y2="0.5" gradientUnits="objectBoundingBox"><stop offset="0" stop-color="red"/><stop offset="1" stop-color="#ff6f08"/></linearGradient><linearGradient id="c" x1="-0.118" y1="0.051" x2="1.245" y2="1.102" xlink:href="#a"/></defs><g transform="translate(347.839 80.473)"><path class="a" d="M-319.42,128.059a7.8,7.8,0,0,0,.894,1.9h207.9q1.281-.247,2.564-.488c10.985-2.058,23.877-4.976,29.654-15.674,3.083-5.709,3.528-12.427,3.017-18.779a63.124,63.124,0,0,0-4.356-19.559A34.82,34.82,0,0,0-90.8,61.525c-4.533-3.5-9.6-6.2-14.6-8.958-5.14-2.841-10.32-5.766-14.732-9.683a35.884,35.884,0,0,1-10.761-17.136c-3.568-12.762,1.045-25.63,5.145-37.657,3.883-11.393,7.971-23.776,4.329-35.788-3.7-12.19-14.24-20.939-25.683-25.641a87.759,87.759,0,0,0-21.351-5.37,185.969,185.969,0,0,0-21.465-1.722,139.055,139.055,0,0,0-42.619,5.223c-12.476,3.706-25.606,9.478-34.359,19.452a37.319,37.319,0,0,0-8.452,17.051c-1.431,6.778-1.349,13.766-1.084,20.653.259,6.724.659,13.434.274,20.162A100.419,100.419,0,0,1-279,20.995c-3.1,12.234-8.828,23.985-17.876,32.925-9.479,9.366-22.729,14.519-29.81,26.286a38.006,38.006,0,0,0-1.572,36.257A38.289,38.289,0,0,0-319.42,128.059Z" transform="translate(-11.629)"/><path class="b" d="M-52.419,684.616c.01,6.765-22.564,4.684-50.2,4.7s-49.868,2.118-49.877-4.647,22.556-8.248,50.191-8.262S-52.429,677.851-52.419,684.616Z" transform="translate(-144.484 -559.82)"/><rect class="c" width="261" height="0.521" transform="translate(-347.839 130.269)"/><path class="c" d="M94.482,45.029H93.441V16.509A16.507,16.507,0,0,0,76.934,0H16.509A16.507,16.507,0,0,0,0,16.509V172.977a16.507,16.507,0,0,0,16.507,16.507H76.934a16.507,16.507,0,0,0,16.507-16.507h0V65.331h1.041Z" transform="translate(-257.278 -59.523)"/><path class="a" d="M90.535,16.5H82.648a5.857,5.857,0,0,1-5.423,8.07H42.608A5.857,5.857,0,0,1,37.186,16.5H29.817A12.327,12.327,0,0,0,17.49,28.823h0V185.061a12.327,12.327,0,0,0,12.327,12.327H90.533a12.327,12.327,0,0,0,12.327-12.327h0V28.822A12.327,12.327,0,0,0,90.533,16.5h0Z" transform="translate(-270.213 -71.722)"/><rect class="b" width="69.923" height="114.389" transform="translate(-244.998 -19.443)"/><circle class="b" cx="6.769" cy="6.769" r="6.769" transform="translate(-216.702 103.397)"/><g transform="translate(-202.121 -16.42)"><path class="d" d="M303.93,642.4l-.773,7.476,4.382-.516.516-6.187Z" transform="translate(-279.383 -518.249)"/><path class="e" d="M224.792,424.582s-22.427,21.653-8.249,28.355h4.382s9.538-15.726,14.178-15.467l1.289,14.951-.773,30.16,5.671.258s3.351-15.209,3.093-23.715l5.929-31.449Z" transform="translate(-211.845 -357.14)"/><path class="e" d="M234.84,507.562l3.093,1.031s12.115-2.836,12.888-2.578l2.4-.017-.078-6.17h-10.31Z" transform="translate(-228.853 -412.796)"/><path class="e" d="M305.008,662.57s-4.64-2.062-5.413,0-.516,7.991-.516,7.991a5.734,5.734,0,0,1,.516,3.867c-.516,2.062,2.062,3.093,5.413,2.062s3.351-3.609,3.351-3.609Z" transform="translate(-276.336 -532.489)"/><path class="e" d="M325.1,495.931s3.609-2.062,3.351,1.031a20.39,20.39,0,0,1-1.547,5.929s3.351,8.764,0,9.538-5.929-1.031-5.929-2.32S325.1,495.931,325.1,495.931Z" transform="translate(-292.564 -409.415)"/><path class="d" d="M293.255,225.833l.516,9.8,4.382,3.866,4.9-6.96v-6.96Z" transform="translate(-272.059 -209.946)"/><path class="f" d="M266.592,252.582l-2.951-2.193-1.947,2.966-8.764,5.155,5.155,13.4.258,13.147s-9.538,9.8-3.867,11.084,25.778,4.124,26.809,1.8S280,271.657,280,271.657l.773-20.364-7.733-2.8Z" transform="translate(-242.045 -226.9)"/><path class="d" d="M244.17,326.647s-2.062,14.606,1.8,14.606a17.757,17.757,0,0,0,6.7-1.289l-3.093-7.991,1.289-5.413Z" transform="translate(-235.348 -284.639)"/><path class="d" d="M261.18,348.972l2.836.516s8.249-5.155,8.764-5.413-8.249-4.64-8.249-4.64l-5.929,2.32Z" transform="translate(-246.428 -294.161)"/><path class="g" d="M253.451,329.914l-3.723,1.457,1.146-4.808-6.7.086s-2.062,14.606,1.8,14.606a17.757,17.757,0,0,0,6.7-1.289l-.02-.051.277.051s8.249-5.155,8.764-5.413S253.451,329.914,253.451,329.914Z" transform="translate(-235.348 -284.641)"/><circle class="d" cx="7.361" cy="7.361" r="7.361" transform="translate(19.798 6.053)"/><path class="e" d="M283.243,170.656l-1.438-.576s3.007-3.311,7.191-3.023l-1.177-1.3s2.876-1.152,5.491,1.871a25.54,25.54,0,0,1,3.957,5.561h1.54l-.643,1.415,2.249,1.416-2.309-.254a7.835,7.835,0,0,1-.218,3.666l.062,1.12s-2.677-4.142-2.677-4.717v1.44s-1.438-1.3-1.438-2.159l-.784,1.008-.393-1.586-4.837,1.583.784-1.3-3.007.432,1.177-1.583s-3.4,1.871-3.53,3.455-1.83,3.6-1.83,3.6l-.784-1.44S279.452,172.815,283.243,170.656Z" transform="translate(-262.592 -165.547)"/><path class="d" d="M285.855,308.092a9.266,9.266,0,0,0-2.062,5.671l-13.662-.516s-3.609-.516-3.609,2.062v2.578s1.8-.773,2.836,0,12.115,7.476,17.529,4.9,6.7-12.631,6.7-12.631S288.691,306.029,285.855,308.092Z" transform="translate(-252.286 -270.552)"/><path class="f" d="M340.216,259.495l2.062-.258s4.124.516,3.609,8.507-.773,8.507-.773,8.507-5.413-4.9-9.28-2.578Z" transform="translate(-303.552 -234.844)"/><path class="f" d="M246.261,286.963H245.23a9.55,9.55,0,0,0-2.062,5.929,28.529,28.529,0,0,1-.9,6.831l8.12-1.418Z" transform="translate(-234.346 -255.351)"/></g><circle class="h" cx="16.4" cy="16.4" r="16.4" transform="translate(-270.062 85.222)"/><path class="h" d="M-136.445,302.943a11.757,11.757,0,0,1-10.741-6.974l-26.023-58.6a15.577,15.577,0,0,1,7.915-20.559,15.577,15.577,0,0,1,20.559,7.915,15.584,15.584,0,0,1,.653,1.744l18.844,61.291a11.737,11.737,0,0,1-7.769,14.668,11.74,11.74,0,0,1-3.437.518Z" transform="translate(-128.169 -218.886)"/><g transform="translate(-217.868 -37.563)"><g transform="translate(6.475 3.854)"><circle class="c" cx="1.15" cy="1.15" r="1.15"/></g><g transform="translate(9.853 3.854)"><circle class="c" cx="1.15" cy="1.15" r="1.15"/></g><path class="i" d="M166.729,91.377l-2.877,3.079L162.4,92.941h-8.421a1.261,1.261,0,0,1,0-2.523,2.619,2.619,0,0,1,.724.253.674.674,0,0,0,.7-.082.706.706,0,0,0,.261-.671,3.688,3.688,0,0,1-.049-.6,3.628,3.628,0,0,1,4.706-3.461l.087.027,1.164-1-.254-.1a5.058,5.058,0,0,0-2.079-.44,4.987,4.987,0,0,0-4.972,4.755,1.633,1.633,0,0,0-.287-.028,2.614,2.614,0,1,0,0,5.227h7.608l2.272,2.37,3.974-4.238Z" transform="translate(-151.365 -84.339)"/></g><path class="b" d="M-186.452,618.534c1.347-2.614.615-5.912-1.062-8.328s-4.154-4.137-6.577-5.805l-3.369-2.32,1.609,8.076c.544,2.73,1.212,5.678,3.345,7.468a6.3,6.3,0,0,0,6.088,1.072" transform="translate(-111.227 -504.846)"/><path class="b" d="M-208.285,672.22a6.133,6.133,0,0,0-4.336-4.4,18.038,18.038,0,0,0-6.441-.467l-3.007.144,4.544,4.012c1.536,1.357,3.242,2.785,5.29,2.882a4.641,4.641,0,0,0,4.044-2.088" transform="translate(-93.025 -553.066)"/></g></svg>