<svg xmlns="http://www.w3.org/2000/svg" xmlns:xlink="http://www.w3.org/1999/xlink" width="270.087" height="189.834" viewBox="0 0 270.087 189.834"><defs><style>.a{fill:#312b27;}.b{fill:#fff;}.c{fill:#cacaca;}.d{fill:#e4e4e4;}.e{fill:#2f2e41;}.f{fill:url(#a);}.g{fill:#ff6f08;}.h{fill:#ffb8b8;}.i{fill:#e6e6e6;}.j{fill:#f36a23;}.k{fill:url(#b);}</style><linearGradient id="a" y1="0.5" x2="1" y2="0.5" gradientUnits="objectBoundingBox"><stop offset="0" stop-color="red"/><stop offset="1" stop-color="#ff6f08"/></linearGradient><linearGradient id="b" x1="-0.118" y1="0.051" x2="1.245" y2="1.102" xlink:href="#a"/></defs><g transform="translate(-66 -220.096)"><rect class="a" width="261" height="0.521" transform="translate(66 401.308)"/><g transform="translate(75.238 220.096)"><path class="b" d="M260.266,133.452c-4.562,9.411-12.46,16.612-21.5,22.092a94.976,94.976,0,0,1-11.535,5.905q-3.9,1.689-7.908,3.082a125.665,125.665,0,0,1-41.319,6.9q-3.443,0-6.886-.177-.988-.051-1.976-.116-5.2-.345-10.375-1.107c-.068-.01-.138-.019-.206-.031a130.688,130.688,0,0,1-21.251-4.981q-2.016-.654-4.007-1.373c-.358-.126-.717-.259-1.073-.39q-2.245-.832-4.455-1.746-1.86-.766-3.7-1.591-1.809-.817-3.593-1.688-2.92-1.431-5.777-3-2.2-1.22-4.351-2.533a120.293,120.293,0,0,1-10.288-7.041q-1.751-1.337-3.453-2.741c-.787-.649-1.567-1.312-2.358-1.956a29.761,29.761,0,0,0-5.307-3.615,19.007,19.007,0,0,0-1.777-.785,22.249,22.249,0,0,0-7.058-1.373,40,40,0,0,0-12.339,1.736c-1.891.535-3.76,1.15-5.629,1.78q-1.151.389-2.3.78c-1.584.54-3.167,1.068-4.765,1.55-.533.16-1.065.317-1.6.465a47.031,47.031,0,0,1-6.516,1.385A34.715,34.715,0,0,1,32.323,141.6l-.4-.126c-.678-.213-1.349-.446-2.017-.7l-.4-.155q-.966-.374-1.9-.8l-.4-.184c-.6-.278-1.179-.569-1.753-.876-.048-.024-.094-.048-.143-.075-.223-.116-.443-.242-.661-.361a39.862,39.862,0,0,1-9.482-7.382c-.08-.08-.155-.162-.242-.242-.385-.416-.763-.84-1.128-1.274-.136-.16-.271-.32-.4-.484q-.65-.8-1.257-1.625c-.061-.08-.119-.162-.177-.242a35.12,35.12,0,0,1-4.085-7.385c-.034-.08-.065-.162-.094-.242q-.483-1.246-.884-2.535c-.109-.358-.213-.726-.305-1.085-.031-.107-.061-.215-.087-.322-1.324-5.259-1.467-10.729-1.467-16.167v-1.9C5.067,88.644,5.2,79.7,6.5,71.022a1.44,1.44,0,0,1,.027-.179A83.281,83.281,0,0,1,8.3,62.17a64.325,64.325,0,0,1,2.981-8.789A81.653,81.653,0,0,1,23.425,34.047C35.555,19.154,51.48,6.634,70.119,1.963A68.734,68.734,0,0,1,128.726,14.65c4.777,3.8,9.085,8.281,14.38,11.3q.269.156.545.305,1.05.57,2.145,1.036a22.145,22.145,0,0,0,2.981,1.029,16.857,16.857,0,0,0,9.789-.131c.262-.09.523-.184.782-.288.55-.218,1.075-.421,1.581-.61A22.845,22.845,0,0,1,171.236,25.6a99.6,99.6,0,0,1,29.142,6.1c.378.138.755.281,1.131.424C225.894,41.461,246.86,60,257.75,83.814q.436.944.84,1.9C265.087,100.879,267.431,118.668,260.266,133.452Z" transform="translate(-3.811 0)"/><path class="c" d="M63.494,512.617v.1l-.036.044Z" transform="translate(-48.093 -388.499)"/><path class="b" d="M233.748,572.847q-1.151.389-2.3.78v-.78Z" transform="translate(-175.408 -434.145)"/><rect class="d" width="5.671" height="14.178" transform="translate(139.295 14.229)"/><path class="d" d="M488.263,112.707V255.414a130.688,130.688,0,0,1-21.251-4.981Q465,249.78,463,249.061c-.358-.126-.717-.259-1.073-.39q-2.245-.832-4.455-1.746-1.86-.766-3.7-1.591-1.809-.817-3.593-1.688-2.92-1.431-5.777-3-2.2-1.22-4.351-2.533V112.707Z" transform="translate(-333.508 -85.418)"/><path class="c" d="M658.591,112.707V256.845q-3.443,0-6.886-.177-.988-.051-1.976-.116-5.2-.345-10.375-1.107c-.068-.01-.138-.019-.206-.031V112.707Z" transform="translate(-484.393 -85.418)"/><rect class="b" width="7.291" height="7.291" transform="translate(115.259 41.467)"/><rect class="b" width="7.291" height="7.291" transform="translate(127.007 41.467)"/><rect class="b" width="7.291" height="7.291" transform="translate(138.754 41.467)"/><rect class="b" width="7.291" height="7.291" transform="translate(115.462 58.075)"/><rect class="b" width="7.291" height="7.291" transform="translate(127.209 58.075)"/><rect class="b" width="7.291" height="7.291" transform="translate(138.956 58.075)"/><rect class="b" width="7.291" height="7.291" transform="translate(115.665 74.683)"/><rect class="b" width="7.291" height="7.291" transform="translate(127.412 74.683)"/><rect class="b" width="7.291" height="7.291" transform="translate(139.159 74.683)"/><rect class="b" width="7.291" height="7.291" transform="translate(115.867 91.291)"/><rect class="b" width="7.291" height="7.291" transform="translate(127.614 91.291)"/><rect class="b" width="7.291" height="7.291" transform="translate(139.362 91.291)"/><rect class="b" width="7.291" height="7.291" transform="translate(116.07 107.899)"/><rect class="b" width="7.291" height="7.291" transform="translate(127.817 107.899)"/><rect class="b" width="7.291" height="7.291" transform="translate(139.564 107.899)"/><rect class="b" width="7.291" height="7.291" transform="translate(116.272 124.507)"/><rect class="b" width="7.291" height="7.291" transform="translate(128.019 124.507)"/><rect class="b" width="7.291" height="7.291" transform="translate(139.767 124.507)"/><rect class="b" width="7.291" height="7.291" transform="translate(116.475 141.116)"/><rect class="b" width="7.291" height="7.291" transform="translate(128.222 141.116)"/><rect class="b" width="7.291" height="7.291" transform="translate(139.969 141.116)"/><path class="b" d="M489.179,651.407v3.784q-1.86-.766-3.7-1.591-1.809-.817-3.593-1.688v-.506Z" transform="translate(-365.211 -493.684)"/><path class="b" d="M537.691,651.407V658.7h-2.213q-2.016-.654-4.007-1.373c-.358-.126-.717-.259-1.073-.39v-5.53Z" transform="translate(-401.974 -493.684)"/><rect class="b" width="7.291" height="7.291" transform="translate(140.172 157.724)"/><rect class="d" width="5.671" height="8.403" transform="translate(205.389 86.43)"/><path class="d" d="M739.213,388.687v70.42a125.667,125.667,0,0,1-41.319,6.9q-3.443,0-6.886-.177V388.687Z" transform="translate(-523.696 -294.575)"/><path class="c" d="M909.541,388.687v61.432a95.038,95.038,0,0,1-11.535,5.905q-3.9,1.689-7.908,3.082v-70.42Z" transform="translate(-674.581 -294.575)"/><rect class="b" width="7.291" height="7.291" transform="translate(176.831 107.899)"/><rect class="b" width="7.291" height="7.291" transform="translate(188.578 107.899)"/><rect class="b" width="7.291" height="7.291" transform="translate(200.326 107.899)"/><rect class="b" width="7.291" height="7.291" transform="translate(177.034 124.507)"/><rect class="b" width="7.291" height="7.291" transform="translate(188.781 124.507)"/><rect class="b" width="7.291" height="7.291" transform="translate(200.528 124.507)"/><rect class="b" width="7.291" height="7.291" transform="translate(177.236 141.116)"/><rect class="b" width="7.291" height="7.291" transform="translate(188.983 141.116)"/><rect class="b" width="7.291" height="7.291" transform="translate(200.731 141.116)"/><rect class="b" width="7.291" height="7.291" transform="translate(177.439 157.724)"/><rect class="b" width="7.291" height="7.291" transform="translate(189.186 157.724)"/><rect class="b" width="7.291" height="7.291" transform="translate(200.933 157.724)"/><path class="a" d="M714.574,716.656s2.594,9.225,13.457,8.806a19.1,19.1,0,0,0,15.559-8.973Z" transform="translate(-541.556 -543.007)"/><path class="e" d="M86.617,554.945l-3.1,5.684.5,10.669,74.371,22.1,32.385,3.983-6.331-38.622-22.155-3.923-33.236.95-28.178-5.2Z" transform="translate(-63.292 -417.273)"/><path class="a" d="M98.509,617.665H96.59a9.72,9.72,0,0,1-8.843-5.611c-2.96-6.461-2.083-15.4-2.07-15.523.671-7.723,4.9-12.761,10.533-12.532,6.215.251,11.514,21.746,11.737,22.661a8.011,8.011,0,0,1-.279,4.649A9.687,9.687,0,0,1,98.509,617.665Z" transform="translate(-64.832 -442.59)"/><path class="a" d="M412.654,653.271a6.78,6.78,0,0,1-.98-.095,15.182,15.182,0,0,1-11.464-8.727c-.778-1.693-1.527-3.426-2.226-5.152-2.8-6.93-.453-19.044,3.367-23.734,3.372-4.139,6.766-4.106,11.9-4.057.528.005,1.074.01,1.641.011,5.7.009,11.736,20.995,13.718,27.891.158.549.288,1,.389,1.343a6.871,6.871,0,0,1-.11,3.725,11.427,11.427,0,0,1-9.917,8.29C415.586,653.1,413.458,653.271,412.654,653.271Z" transform="translate(-300.688 -463.437)"/><path class="a" d="M83.365,560.011s-2.18-9.728,1.09-16.353l3.3-7.967,12.456,11.573,2.844,18.109,48.744,7.385s-3.019-29.687,15.934-30.861,27.946,30.861,27.946,30.861l9.456,6.877,65.915-4.864s1.164,3.187-.508,4.864-81.676,6.877-81.676,6.877-4.025-39.751-19.959-36.061-11.168,31.659-11.168,31.659l-56.928-10.022s-1.845-27-11.238-27S83.365,560.011,83.365,560.011Z" transform="translate(-62.641 -405.986)"/><path class="a" d="M128.851,435.369l10.739-16.833,45.789-2.684,50.82.671,23.649,21.972-73.128,4.193L127.849,439.5Z" transform="translate(-96.893 -315.163)"/><path class="f" d="M100.239,496.458s-9.136.191-10.143,17.466c0,0,9.728-17.611,18.114,21.636l50.066,8.135s-1.845-32.706,17.108-30.19,23.481,32.539,23.481,32.539,3.69,7.38,23.984,6.206,50.653-3.019,53.839-7.212c0,0,7.38-24.991-15.6-41.092l-29.855-4.361-67.593,1.342Z" transform="translate(-68.281 -376.252)"/><path class="c" d="M205.023,537.692h-5.7a1.174,1.174,0,0,1-.008-2.348h5.711a1.174,1.174,0,0,1,0,2.348Z" transform="translate(-150.166 -405.723)"/><circle class="b" cx="3.69" cy="3.69" r="3.69" transform="translate(137.963 161.07)"/><path class="b" d="M534.732,551.968a14.087,14.087,0,0,1-8.242-3.158c-4.764-3.67-6.765-9.088-4.461-12.078s8.053-2.438,12.817,1.232a14.7,14.7,0,0,1,4.88,6.276c.85,2.287.7,4.348-.419,5.8A5.555,5.555,0,0,1,534.732,551.968Z" transform="translate(-394.906 -405.314)"/><path class="b" d="M804.17,540.656c-1.859,0-5.2-1.882-8.5-4.936a25.043,25.043,0,0,1-4.622-5.526c-1.015-1.76-1.246-3.083-.651-3.728s1.933-.518,3.767.355a25.049,25.049,0,0,1,5.873,4.171c4.181,3.863,6.5,7.928,5.273,9.253A1.486,1.486,0,0,1,804.17,540.656Z" transform="translate(-598.774 -398.688)"/><path class="b" d="M162.482,448.986c-.04,0-.08,0-.12-.006l-12.128-1.128a1.3,1.3,0,0,1-.988-1.987l6.839-11.026a1.3,1.3,0,0,1,1.051-.616l9.046-.4a1.3,1.3,0,0,1,1.307,1.677l-3.757,12.553A1.31,1.31,0,0,1,162.482,448.986Z" transform="translate(-112.961 -328.783)"/><path class="b" d="M259.424,441.247q-.179,0-.362-.018L238.1,439.166a3.659,3.659,0,0,1-3.173-4.605l3.016-11.068a3.643,3.643,0,0,1,3.4-2.7l16.921-.591a3.681,3.681,0,0,1,3.764,3.237l1.4,12.045a3.651,3.651,0,0,1-.06,1.2L263,438.369A3.662,3.662,0,0,1,259.424,441.247Z" transform="translate(-177.944 -318.461)"/><path class="b" d="M384.017,442.468a2.729,2.729,0,0,1-2.647-2.1l-3.7-15.988a2.717,2.717,0,0,1,2.647-3.329H424.18a2.73,2.73,0,0,1,1.95.825l14.327,14.771a2.717,2.717,0,0,1-1.89,4.608l-54.49,1.216Z" transform="translate(-286.173 -319.1)"/><path class="g" d="M174.793,404.167l.374-.587s2.18-6.038,32.2-7.044,58.033-.5,64.406,5.032l-51.827-.168-43.776,3.019Z" transform="translate(-132.471 -300.208)"/><path class="d" d="M98.224,607.04c-3.149,0-5.7,5.256-5.7,11.74s2.553,11.741,5.7,11.741,5.7-5.257,5.7-11.741S101.373,607.04,98.224,607.04Zm.252,2.516c.695,0,1.258,1.352,1.258,3.019s-.563,3.019-1.258,3.019-1.258-1.352-1.258-3.019S97.78,609.556,98.475,609.556Zm.755,9.225a.853.853,0,1,1-.838-1.006.934.934,0,0,1,.838,1.006Zm-4.382.646c-1.078.083-1.981-.214-2.015-.663s.811-.881,1.89-.965,1.981.214,2.015.663-.811.881-1.89.964Zm3.627,8.579c-.695,0-1.258-1.352-1.258-3.019s.563-3.019,1.258-3.019,1.258,1.352,1.258,3.019-.563,3.019-1.258,3.019Zm3.25-8.579c-1.078.083-1.981-.214-2.015-.663s.811-.881,1.89-.965,1.981.214,2.015.663-.811.881-1.89.964Z" transform="translate(-70.119 -460.059)"/><path class="d" d="M416.761,639.6c-5,0-9.057,6.721-9.057,15.011s4.055,15.011,9.057,15.011,9.057-6.721,9.057-15.011S421.763,639.6,416.761,639.6Zm-5.411,16.138c-1.461.113-2.683-.289-2.73-.9s1.1-1.193,2.56-1.306,2.683.289,2.73.9-1.1,1.194-2.56,1.307Zm5.416,11.453c-.941,0-1.7-1.831-1.7-4.09s.763-4.089,1.7-4.089,1.7,1.831,1.7,4.089-.763,4.09-1.7,4.09Zm-1.347-12.5a1.364,1.364,0,1,1,1.342,1.61,1.494,1.494,0,0,1-1.342-1.61Zm1.347-4.317c-.941,0-1.7-1.831-1.7-4.089s.763-4.089,1.7-4.089,1.7,1.831,1.7,4.089-.763,4.089-1.7,4.089Zm5.743,5.024c-1.461.113-2.683-.289-2.73-.9s1.1-1.194,2.56-1.307,2.683.289,2.73.9S423.971,655.286,422.51,655.4Z" transform="translate(-308.988 -484.733)"/><path class="c" d="M314.188,506.5l2.013,4.7s3.354,1.342,5.535-3.187l-4.418-4.418Z" transform="translate(-238.115 -381.656)"/><path class="c" d="M282.284,492.806c-3.607,0-6.541-1.956-6.541-4.361s2.934-4.361,6.541-4.361,6.541,1.956,6.541,4.361S285.891,492.806,282.284,492.806Z" transform="translate(-208.978 -366.874)"/><path class="a" d="M677.993,583.487l-37.5,1.1s-8.207,2.3-9.044,8.879c0,0,1.172,5.371,4.187,5.371s49.24-2.412,49.24-2.412,3.015-4.6.5-7.893S677.993,583.487,677.993,583.487Z" transform="translate(-478.558 -442.209)"/><rect class="d" width="44" height="0.503" transform="translate(158.705 144.828) rotate(-1.894)"/><rect class="d" width="47.878" height="0.503" transform="translate(156.452 147.135) rotate(-2.594)"/><rect class="d" width="51.365" height="0.503" transform="translate(154.664 149.888) rotate(-3.074)"/><g transform="translate(0 84.267)"><path class="h" d="M113.466,531.365a2.281,2.281,0,0,1,.737-3.419l-.476-5.192,3.084-1.059.57,7.341a2.294,2.294,0,0,1-3.915,2.329Z" transform="translate(-85.628 -479.645)"/><path class="i" d="M116.613,428.514s2.116-4.442,4-2.88-2.579,14.7-2.579,14.7l-.678,12.751-3.574-.357L112.769,440.3Z" transform="translate(-85.465 -406.591)"/><path class="h" d="M11.4,677.945l2.653,2.148L23.6,670.88l-3.916-3.169Z" transform="translate(-8.636 -590.307)"/><path class="e" d="M2.783,704.139l5.225,4.229h0a4.284,4.284,0,0,1,.634,6.026l-.088.108L0,707.577Z" transform="translate(0 -617.915)"/><path class="h" d="M163.689,693.387H167.1l1.623-13.168h-5.037Z" transform="translate(-124.055 -599.786)"/><path class="e" d="M160.093,730h6.723a4.285,4.285,0,0,1,4.284,4.284v.14H160.093Z" transform="translate(-121.33 -637.515)"/><path class="j" d="M65.54,479.66s6.4,7.8,5.012,15.593S68.046,508.9,68.046,508.9L65.82,526.439s.835,4.778-.278,6.009c0,0,1.671,2.9-1.392,4.015s-4.717-.384-4.717-.384-2.246-3.235-.853-4.069l.587-34.429L36.86,526.717s-.41,3.544-3.268,3.582l-3.415,2.544-3.9-2.228,1.949-2.506s-1.114-2.784,1.392-3.341L44.1,505.834l3.62-9.746s1.949-7.518,7.24-10.581v-3.259Z" transform="translate(-19.916 -447.788)"/><path class="i" d="M132.659,417.992h0a5.317,5.317,0,0,1,7.008-.99l.231.154h0a20.524,20.524,0,0,1,4.8,9.892l1.043,5.7-13.087,2.835L129.59,425a5.978,5.978,0,0,1,3.068-7.012Z" transform="translate(-98.033 -399.625)"/><path class="h" d="M215.327,531.22a2.611,2.611,0,0,1-1.67-3.293,2.64,2.64,0,0,1,.181-.423l-3.775-4.62,2.248-2.979,5.24,6.6a2.625,2.625,0,0,1-2.223,4.716Z" transform="translate(-159.2 -478.289)"/><path class="i" d="M165.636,424.544s-.835-5.569,1.949-5.29,6.961,15.593,6.961,15.593l7.518,12.53-3.62,1.949-8.91-11.138Z" transform="translate(-125.442 -402)"/><path class="e" d="M142.341,362.429H129.082a1.03,1.03,0,0,1-1.029-1.029v-5.715a7.658,7.658,0,0,1,15.317,0h0V361.4A1.03,1.03,0,0,1,142.341,362.429Z" transform="translate(-97.048 -348.027)"/><circle class="h" cx="5.615" cy="5.615" r="5.615" transform="translate(34.622 3.04)"/><path class="e" d="M162.624,362.7h-7.066l-.073-1.164-.362,1.164h-1.088l-.144-2.307-.718,2.307h-2.105v-.114c0-3.34,2.369-6.058,5.281-6.058h1c2.911,0,5.281,2.718,5.281,6.058Z" transform="translate(-114.49 -354.467)"/><path class="e" d="M143.686,369.817a1.672,1.672,0,0,1-.258-.02l-8.411-1.3v-8.76a3.374,3.374,0,0,1,3.374-3.374h5.884l-.229.233c-3.189,3.246-.786,8.512.93,11.362a1.123,1.123,0,0,1-.114,1.331,1.528,1.528,0,0,1-1.176.525Z" transform="translate(-102.326 -354.348)"/></g><g transform="translate(98.716 118.426)"><g transform="translate(1.866 1.111)"><circle class="a" cx="0.331" cy="0.331" r="0.331"/></g><g transform="translate(2.84 1.111)"><circle class="a" cx="0.331" cy="0.331" r="0.331"/></g><path class="k" d="M412.133,491.137l-.829.888-.419-.437h-2.428a.364.364,0,0,1,0-.727.749.749,0,0,1,.209.073.2.2,0,0,0,.2-.024.2.2,0,0,0,.075-.193,1.063,1.063,0,0,1-.014-.173,1.045,1.045,0,0,1,1.357-1l.025.008.336-.289-.073-.029a1.457,1.457,0,0,0-.6-.127,1.437,1.437,0,0,0-1.433,1.371.483.483,0,0,0-.083-.008.753.753,0,0,0,0,1.507h2.193l.655.683,1.146-1.222Z" transform="translate(-407.704 -489.108)"/></g></g></g></svg>