<svg xmlns="http://www.w3.org/2000/svg" xmlns:xlink="http://www.w3.org/1999/xlink" viewBox="0 0 32.58 32.58"><defs><style>.cls-1{fill:url(#Dégradé_sans_nom_76);}</style><linearGradient id="Dégradé_sans_nom_76" y1="16.29" x2="32.58" y2="16.29" gradientUnits="userSpaceOnUse"><stop offset="0" stop-color="red"/><stop offset="1" stop-color="#ff6f08"/></linearGradient></defs><g id="Calque_2" data-name="Calque 2"><g id="Calque_1-2" data-name="Calque 1"><path class="cls-1" d="M16.29,32.58A16.29,16.29,0,1,1,32.58,16.29,16.31,16.31,0,0,1,16.29,32.58Zm0-29.3a13,13,0,1,0,13,13A13,13,0,0,0,16.29,3.28Z"/><path d="M16.29,7.73a1.84,1.84,0,0,1,1.37.58,1.92,1.92,0,0,1,.57,1.4,1.89,1.89,0,0,1-.57,1.39,1.8,1.8,0,0,1-1.35.58,1.9,1.9,0,0,1-1.39-.59,2,2,0,0,1-.57-1.42,1.95,1.95,0,0,1,1.94-1.94ZM14.76,14h3V24.85h-3Z"/></g></g></svg>