<svg xmlns="http://www.w3.org/2000/svg" xmlns:xlink="http://www.w3.org/1999/xlink" width="19.937" height="22.428" viewBox="0 0 19.937 22.428"><defs><style>.a,.e{fill:none;}.a{stroke:#312b27;stroke-miterlimit:10;stroke-width:1.875px;}.b{fill:#312b27;}.c{fill:url(#a);}.d{stroke:none;}</style><linearGradient id="a" y1="0.5" x2="1" y2="0.5" gradientUnits="objectBoundingBox"><stop offset="0" stop-color="red"/><stop offset="1" stop-color="#ff6f08"/></linearGradient></defs><g transform="translate(-232.095 -941.291)"><g class="a" transform="translate(239.856 948.411)"><rect class="d" width="4.431" height="5.283"/><rect class="e" x="0.938" y="0.938" width="2.556" height="3.408"/></g><path class="b" d="M249.138,961.844h-14.1v-3.7c-.515-.418-1.121-1.271-1.875-1.347v6.922h17.855V956.6c-.568.249-1.2,1.268-1.875,1.312Z"/><path class="b" d="M236.787,956.918l-.006,0,.028-.023.01-.007Zm4.357-.011,0,0,.014-.012.008-.006Zm4.344,0-.005,0,.014-.012.008-.006Z"/><path class="c" d="M242.717,947.291a2.5,2.5,0,0,0,1.818-2.38c0-.011-.006-.021-.006-.031a3.494,3.494,0,0,0-.675-1.711,13.932,13.932,0,0,0-1.072-1.417c-.074-.087-.15-.175-.226-.26a.7.7,0,0,0-.978,0c-.236.26-.459.533-.674.81a7.857,7.857,0,0,0-1.137,1.838,2.335,2.335,0,0,0,.406,2.346A2.474,2.474,0,0,0,242.717,947.291Z"/><path class="c" d="M248.567,953.694a1.59,1.59,0,1,1-.988,2.816l-1.179-.955-1.18.954a1.521,1.521,0,0,1-1.977,0l-1.18-.954-1.179.954a1.521,1.521,0,0,1-1.976,0l-1.18-.955-1.179.954a1.574,1.574,0,0,1-.989.365,1.59,1.59,0,0,1,0-3.18h13.007m0-1.875H235.56a3.465,3.465,0,1,0,2.168,6.148,3.395,3.395,0,0,0,4.335,0,3.4,3.4,0,0,0,4.336,0,3.459,3.459,0,1,0,2.168-6.148Z"/></g></svg>