<svg xmlns="http://www.w3.org/2000/svg" xmlns:xlink="http://www.w3.org/1999/xlink" width="28.724" height="15.519" viewBox="0 0 28.724 15.519"><defs><style>.a{fill:url(#a);}.b{fill:#312b27;}</style><linearGradient id="a" y1="0.5" x2="1" y2="0.5" gradientUnits="objectBoundingBox"><stop offset="0" stop-color="red"/><stop offset="1" stop-color="#ff6f08"/></linearGradient></defs><g transform="translate(-338.144 -928.863)"><path class="a" d="M359.319,933.659h-.038a11.653,11.653,0,0,0-9.389-4.8,11.9,11.9,0,0,0-11.748,12.025h2.367a9.533,9.533,0,0,1,9.381-9.658,9.31,9.31,0,0,1,7.759,4.228l.434.665.716-.072c.168-.016.342-.025.518-.025a5.189,5.189,0,0,1,5.183,5.183h2.366A7.558,7.558,0,0,0,359.319,933.659Z"/><path class="b" d="M359.357,937.394a3.494,3.494,0,1,0,3.494,3.494A3.5,3.5,0,0,0,359.357,937.394Zm0,4.622a1.128,1.128,0,1,1,1.127-1.128A1.129,1.129,0,0,1,359.357,942.016Z"/><path class="b" d="M344.965,937.394a3.494,3.494,0,1,0,3.494,3.494A3.5,3.5,0,0,0,344.965,937.394Zm0,4.622a1.128,1.128,0,1,1,1.127-1.128A1.128,1.128,0,0,1,344.965,942.016Z"/><rect class="a" width="5.531" height="2.367" transform="translate(349.287 939.223)"/></g></svg>