<svg id="Capa_1" enable-background="new 0 0 512 512" height="512" viewBox="0 0 512 512" width="512" xmlns="http://www.w3.org/2000/svg"><path d="m391 0h-225c-24.853 0-45 20.147-45 45v422c0 24.853 20.147 45 45 45h300c24.853 0 45-20.147 45-45v-347z" fill="#e4f2f9"/><path d="m391 0h-75v512h150c24.853 0 45-20.147 45-45v-347z" fill="#bde0f1"/><path d="m391 0v105c0 8.284 6.716 15 15 15h105z" fill="#77bee2"/><g fill="#5f5f82"><path d="m426 302h-220c-8.284 0-15-6.716-15-15s6.716-15 15-15h220c8.284 0 15 6.716 15 15s-6.716 15-15 15z"/><path d="m426 212h-220c-8.284 0-15-6.716-15-15s6.716-15 15-15h220c8.284 0 15 6.716 15 15s-6.716 15-15 15z"/><path d="m426 392h-220c-8.284 0-15-6.716-15-15s6.716-15 15-15h220c8.284 0 15 6.716 15 15s-6.716 15-15 15z"/></g><path d="m441 287c0-8.284-6.716-15-15-15h-110v30h110c8.284 0 15-6.716 15-15z" fill="#3c3c55"/><path d="m441 197c0-8.284-6.716-15-15-15h-110v30h110c8.284 0 15-6.716 15-15z" fill="#3c3c55"/><path d="m426 392c8.284 0 15-6.716 15-15s-6.716-15-15-15h-110v30z" fill="#3c3c55"/><path d="m136 512c-74.439 0-135-60.561-135-135s60.561-135 135-135 135 60.561 135 135-60.561 135-135 135z" fill="#ff7350"/><path d="m136 242v270c74.439 0 135-60.561 135-135s-60.561-135-135-135z" fill="#ff4b20"/><path d="m157.213 377 34.394-34.394c5.858-5.857 5.858-15.355 0-21.213-5.857-5.857-15.355-5.857-21.213 0l-34.394 34.394-34.394-34.394c-5.857-5.857-15.355-5.857-21.213 0s-5.858 15.355 0 21.213l34.394 34.394-34.394 34.394c-5.858 5.857-5.858 15.355 0 21.213 2.929 2.928 6.768 4.393 10.607 4.393s7.678-1.465 10.606-4.394l34.394-34.393 34.394 34.394c2.928 2.928 6.767 4.393 10.606 4.393s7.678-1.465 10.606-4.394c5.858-5.857 5.858-15.355 0-21.213z" fill="#5f5f82"/><path d="m157.213 377 34.394-34.394c5.858-5.857 5.858-15.355 0-21.213-5.857-5.857-15.355-5.857-21.213 0l-34.394 34.394v42.426l34.394 34.394c2.928 2.928 6.767 4.393 10.606 4.393s7.678-1.465 10.606-4.394c5.858-5.857 5.858-15.355 0-21.213z" fill="#3c3c55"/></svg>