<svg xmlns="http://www.w3.org/2000/svg" width="22.001" height="15.961" viewBox="0 -2 22.001 15.961"><defs><style>.a{fill:#fff;} .st1{fill:none;stroke:#FFFFFF;stroke-width:2;stroke-miterlimit:10;}</style></defs><g transform="translate(-5 -27.582)">
<path class="a" d="M16,27.582c-5.931,0-10.634,4.852-10.831,5.058a.612.612,0,0,0,0,.844c.2.207,4.9,5.058,10.831,5.058s10.634-4.852,10.831-5.058a.612.612,0,0,0,0-.844C26.635,32.434,21.932,27.582,16,27.582ZM16,37.2a4.136,4.136,0,1,1,4.136-4.136A4.136,4.136,0,0,1,16,37.2Zm-4.119-7.559a5.346,5.346,0,0,0,0,6.842,18.464,18.464,0,0,1-5.385-3.42A18.383,18.383,0,0,1,11.882,29.639Zm8.237,6.846a5.346,5.346,0,0,0,0-6.842,18.464,18.464,0,0,1,5.385,3.42A18.383,18.383,0,0,1,20.12,36.485Z"/><path class="a" d="M42.58,40.177a2.365,2.365,0,0,0-.306.022A1.288,1.288,0,0,1,40.3,41.819a2.4,2.4,0,1,0,2.277-1.642Z" transform="translate(-26.579 -9.516)"/></g>
<line class="st1" x1="5" y1="13" x2="17" y2="-2"/></svg>
