<svg xmlns="http://www.w3.org/2000/svg" xmlns:xlink="http://www.w3.org/1999/xlink" width="16.353" height="16.305" viewBox="0 0 16.353 16.305"><defs><style>.a{fill:url(#a);}.b{fill:#312b27;}</style><linearGradient id="a" y1="0.5" x2="1" y2="0.5" gradientUnits="objectBoundingBox"><stop offset="0" stop-color="red"/><stop offset="1" stop-color="#ff6f08"/></linearGradient></defs><g transform="translate(-617.367 -947.132)"><path class="a" d="M625.787,947.132a7.933,7.933,0,0,0-7.933,7.933,7.368,7.368,0,0,0,.886,3.634l-1.374,4.738,4.784-1.328a7.364,7.364,0,0,0,3.636.888,7.933,7.933,0,1,0,0-15.865Zm0,14.279a5.578,5.578,0,0,1-3.438-1.058l-2.908,1.058L620.5,958.5a5.568,5.568,0,0,1-1.057-3.438,6.346,6.346,0,1,1,6.346,6.347Z"/><path class="b" d="M627.233,956.323a2.379,2.379,0,0,1-3.365,0h0l-.561-.56-1.121,1.121.561.56a3.966,3.966,0,0,0,5.608,0l.56-.56-1.12-1.121Z" transform="translate(0.236 0.423)"/></g></svg>