<svg xmlns="http://www.w3.org/2000/svg" xmlns:xlink="http://www.w3.org/1999/xlink" width="13.166" height="15.499" viewBox="0 0 13.166 15.499"><defs><style>.a{fill:url(#a);}</style><linearGradient id="a" y1="0.5" x2="1" y2="0.5" gradientUnits="objectBoundingBox"><stop offset="0" stop-color="red"/><stop offset="1" stop-color="#ff6f08"/></linearGradient></defs><g transform="translate(-454.698 -927.27)"><path class="a" d="M457.263,933.478a3.54,3.54,0,0,0,.779.078c1.453,0,2.774-.782,2.774-2.187a1.6,1.6,0,0,0-1.5-1.718,1.482,1.482,0,0,0-1.452,1.6v.235H454.7c-.129-2.361,1.973-4.216,4.6-4.216,2.666,0,4.66,1.795,4.66,4.2a4.19,4.19,0,0,1-3.49,4.022l-.173,1.874h-3.033Zm3.488,7.535a1.937,1.937,0,0,1-3.857,0,1.941,1.941,0,0,1,3.857,0Z"/><path d="M467.864,941.013a1.937,1.937,0,0,1-3.857,0,1.941,1.941,0,0,1,3.857,0ZM464.4,927.66h3.077v10.482H464.4Z"/></g></svg>