<?xml version="1.0" encoding="UTF-8" standalone="no"?>
<!-- Generator: Adobe Illustrator 26.0.1, SVG Export Plug-In . SVG Version: 6.00 Build 0)  -->

<svg
   xmlns:dc="http://purl.org/dc/elements/1.1/"
   xmlns:cc="http://creativecommons.org/ns#"
   xmlns:rdf="http://www.w3.org/1999/02/22-rdf-syntax-ns#"
   xmlns:svg="http://www.w3.org/2000/svg"
   xmlns="http://www.w3.org/2000/svg"
   xmlns:sodipodi="http://sodipodi.sourceforge.net/DTD/sodipodi-0.dtd"
   xmlns:inkscape="http://www.inkscape.org/namespaces/inkscape"
   version="1.1"
   id="Calque_1"
   x="0px"
   y="0px"
   viewBox="0 0 18.6 18.6"
   xml:space="preserve"
   sodipodi:docname="moto3.svg"
   width="18.6"
   height="18.6"
   inkscape:version="0.92.5 (2060ec1f9f, 2020-04-08)"><metadata
   id="metadata14"><rdf:RDF><cc:Work
       rdf:about=""><dc:format>image/svg+xml</dc:format><dc:type
         rdf:resource="http://purl.org/dc/dcmitype/StillImage" /></cc:Work></rdf:RDF></metadata><defs
   id="defs12" /><sodipodi:namedview
   pagecolor="#ffffff"
   bordercolor="#666666"
   borderopacity="1"
   objecttolerance="10"
   gridtolerance="10"
   guidetolerance="10"
   inkscape:pageopacity="0"
   inkscape:pageshadow="2"
   inkscape:window-width="777"
   inkscape:window-height="480"
   id="namedview10"
   showgrid="false"
   inkscape:zoom="0.12291667"
   inkscape:cx="8.992"
   inkscape:cy="8.897"
   inkscape:window-x="2836"
   inkscape:window-y="275"
   inkscape:window-maximized="0"
   inkscape:current-layer="Calque_1" />
<style
   type="text/css"
   id="style2">
	.st0{fill:#0898FF;}
</style>
<g
   id="Groupe_522"
   transform="translate(-1260.9,-1896.4)">
	<g
   id="Groupe_421">
		<path
   id="Tracé_1145"
   class="st0"
   d="m 1270.2,1915 c -5.1,0 -9.3,-4.2 -9.3,-9.3 0,-5.1 4.2,-9.3 9.3,-9.3 5.1,0 9.3,4.2 9.3,9.3 0,5.2 -4.2,9.3 -9.3,9.3 z m 0,-16.7 c -4.1,0 -7.4,3.3 -7.4,7.4 0,4.1 3.3,7.4 7.4,7.4 4.1,0 7.4,-3.3 7.4,-7.4 0,-4.1 -3.3,-7.4 -7.4,-7.4 z"
   inkscape:connector-curvature="0"
   style="fill:#0898ff" />
	</g>
	<g
   id="Groupe_422">
		<path
   id="Tracé_1146"
   d="m 1267.5,1903.8 c 0.1,-1.4 1.3,-2.5 2.7,-2.3 0,0 0,0 0,0 1.3,-0.2 2.4,0.7 2.6,2 0,0.1 0,0.2 0,0.3 0,0.7 -0.3,1.3 -0.9,1.7 0.8,0.4 1.2,1.2 1.2,2 0,1.6 -1.3,2.6 -3,2.6 -1.5,0.1 -2.9,-1 -3,-2.6 h 1.8 c 0.1,0.7 0.7,1.2 1.4,1.1 0.7,-0.1 1.2,-0.7 1.1,-1.4 -0.1,-0.6 -0.6,-1.1 -1.3,-1.1 h -0.3 v -1.1 h 0.2 c 0.6,0.1 1.1,-0.3 1.1,-0.9 0,-0.1 0,-0.1 0,-0.2 0,-0.6 -0.4,-1 -1,-1 0,0 0,0 -0.1,0 -0.6,0 -1,0.5 -1,1 z"
   inkscape:connector-curvature="0" />
	</g>
</g>
</svg>