<svg xmlns="http://www.w3.org/2000/svg" xmlns:xlink="http://www.w3.org/1999/xlink" width="18.619" height="18.619" viewBox="0 0 18.619 18.619"><defs><style>.a{fill:url(#a);}</style><linearGradient id="a" y1="0.5" x2="1" y2="0.5" gradientUnits="objectBoundingBox"><stop offset="0" stop-color="red"/><stop offset="1" stop-color="#ff6f08"/></linearGradient></defs><g transform="translate(-729.892 -946.103)"><path class="a" d="M739.2,964.722a9.309,9.309,0,1,1,9.31-9.31A9.319,9.319,0,0,1,739.2,964.722Zm0-16.744a7.434,7.434,0,1,0,7.435,7.434A7.443,7.443,0,0,0,739.2,947.978Z"/><path d="M736.532,953.468a2.553,2.553,0,0,1,2.772-2.344,2.316,2.316,0,0,1,2.6,2.3,1.946,1.946,0,0,1-.863,1.7,2.08,2.08,0,0,1,1.164,1.987c0,1.6-1.283,2.593-3.012,2.593a2.845,2.845,0,0,1-3-2.571h1.776a1.258,1.258,0,1,0,1.234-1.415l-.322.021V954.6h.191a1.04,1.04,0,0,0,1.151-1.124,1,1,0,0,0-1.032-1.037,1.011,1.011,0,0,0-.982,1.027Z"/></g></svg>