<?xml version="1.0" encoding="UTF-8" standalone="no"?>
<!-- Generator: Adobe Illustrator 26.0.1, SVG Export Plug-In . SVG Version: 6.00 Build 0)  -->

<svg
   xmlns:dc="http://purl.org/dc/elements/1.1/"
   xmlns:cc="http://creativecommons.org/ns#"
   xmlns:rdf="http://www.w3.org/1999/02/22-rdf-syntax-ns#"
   xmlns:svg="http://www.w3.org/2000/svg"
   xmlns="http://www.w3.org/2000/svg"
   xmlns:sodipodi="http://sodipodi.sourceforge.net/DTD/sodipodi-0.dtd"
   xmlns:inkscape="http://www.inkscape.org/namespaces/inkscape"
   version="1.1"
   id="Calque_1"
   x="0px"
   y="0px"
   viewBox="0 0 24.101143 13.889"
   xml:space="preserve"
   sodipodi:docname="moto2.svg"
   width="24.101143"
   height="13.889"
   inkscape:version="0.92.5 (2060ec1f9f, 2020-04-08)"><metadata
   id="metadata20"><rdf:RDF><cc:Work
       rdf:about=""><dc:format>image/svg+xml</dc:format><dc:type
         rdf:resource="http://purl.org/dc/dcmitype/StillImage" /></cc:Work></rdf:RDF></metadata><defs
   id="defs18" /><sodipodi:namedview
   pagecolor="#ffffff"
   bordercolor="#666666"
   borderopacity="1"
   objecttolerance="10"
   gridtolerance="10"
   guidetolerance="10"
   inkscape:pageopacity="0"
   inkscape:pageshadow="2"
   inkscape:window-width="1920"
   inkscape:window-height="1055"
   id="namedview16"
   showgrid="false"
   inkscape:zoom="0.12291667"
   inkscape:cx="11.8"
   inkscape:cy="6.589"
   inkscape:window-x="1920"
   inkscape:window-y="0"
   inkscape:window-maximized="1"
   inkscape:current-layer="Calque_1" />
<style
   type="text/css"
   id="style2">
	.st0{fill:#263238;}
	.st1{fill:#0898FF;}
</style>
<g
   id="Groupe_528"
   transform="translate(-713.767,-962.887)">
	<g
   id="Groupe_523"
   transform="translate(199.865,14.176)">
		<path
   id="Tracé_1491"
   class="st0"
   d="m 533.1,962.6 c -2.7,0 -4.9,-2.2 -4.9,-4.9 0,-2.7 2.2,-4.9 4.9,-4.9 2.7,0 4.9,2.2 4.9,4.9 0,0 0,0 0,0 0.1,2.7 -2.2,4.9 -4.9,4.9 z m 0,-7.6 c -1.4,0 -2.6,1.2 -2.6,2.6 0,1.4 1.2,2.6 2.6,2.6 1.4,0 2.6,-1.2 2.6,-2.6 v 0 c 0,-1.4 -1.2,-2.5 -2.6,-2.6 z"
   inkscape:connector-curvature="0"
   style="fill:#263238" />
	</g>
	<g
   id="Groupe_524"
   transform="translate(185.567,14.176)">
		<path
   id="Tracé_1492"
   class="st0"
   d="m 533.1,962.6 c -2.7,0 -4.9,-2.2 -4.9,-4.9 0,-2.7 2.2,-4.9 4.9,-4.9 2.7,0 4.9,2.2 4.9,4.9 0.1,2.7 -2.2,4.9 -4.9,4.9 z m 0,-7.6 c -1.4,0 -2.6,1.2 -2.6,2.6 0,1.4 1.2,2.6 2.6,2.6 1.4,0 2.6,-1.2 2.6,-2.6 v 0 c 0,-1.4 -1.2,-2.5 -2.6,-2.6 z"
   inkscape:connector-curvature="0"
   style="fill:#263238" />
	</g>
	<g
   id="Groupe_525"
   transform="translate(203.528,10.187)">
		<path
   id="Tracé_1493"
   class="st1"
   d="m 529.8,952.7 c -0.9,0 -1.6,0.7 -1.6,1.6 0,0.9 0.7,1.6 1.6,1.6 z"
   inkscape:connector-curvature="0"
   style="fill:#0898ff" />
	</g>
	<g
   id="Groupe_526"
   transform="translate(199.391,10.599)">
		<path
   id="Tracé_1494"
   class="st1"
   d="m 532.9,961.5 -2.7,-6.8 c -0.1,-0.4 -0.5,-0.6 -0.9,-0.6 h -1.2 v -1.5 h 1.2 c 1,0 1.9,0.6 2.3,1.6 l 2.7,6.8 z"
   inkscape:connector-curvature="0"
   style="fill:#0898ff" />
	</g>
	<g
   id="Groupe_527"
   transform="translate(187.764,12.077)">
		<path
   id="Tracé_1495"
   class="st1"
   d="m 538.5,959.8 -2.7,-3.2 c -0.3,-0.3 -0.2,-0.8 0.1,-1.1 0.1,-0.1 0.3,-0.2 0.5,-0.2 h 1.8 c 0.3,0 0.6,-0.3 0.6,-0.6 0,-0.3 -0.3,-0.6 -0.6,-0.6 h -10 v -1.5 h 10 c 1.1,0 2.1,0.9 2.1,2.1 0,1.1 -0.9,2.1 -2.1,2.1 H 538 l 1.7,2 z"
   inkscape:connector-curvature="0"
   style="fill:#0898ff" />
	</g>
</g>
</svg>