<svg xmlns="http://www.w3.org/2000/svg" xmlns:xlink="http://www.w3.org/1999/xlink" width="16.5" height="19.713" viewBox="0 0 16.5 19.713"><defs><style>.a{fill:url(#a);}.b{fill:none;stroke-miterlimit:10;}.c{fill:#312b27;}.d,.e{stroke:none;}.e{fill:#312b27;}</style><linearGradient id="a" y1="0.5" x2="1" y2="0.5" gradientUnits="objectBoundingBox"><stop offset="0" stop-color="red"/><stop offset="1" stop-color="#ff6f08"/></linearGradient></defs><g transform="translate(-293.703 -925.156)"><path class="a" d="M301.953,927.513l-6,1.725v5.55a8.033,8.033,0,0,0,5.775,7.65l.225.075.225-.075a8.033,8.033,0,0,0,5.775-7.65v-5.55Z"/><g class="b"><path class="d" d="M301.953,925.156l-.622.179-6,1.725-1.628.468v7.245a10.272,10.272,0,0,0,7.354,9.8l.185.061.711.237.71-.237.185-.061a10.273,10.273,0,0,0,7.355-9.8v-7.245l-1.629-.468-6-1.725-.621-.179Z"/><path class="e" d="M 301.9526977539062 926.5609130859375 L 301.7040100097656 926.6324462890625 L 295.7039794921875 928.357421875 L 295.0530090332031 928.5446166992188 L 295.0530090332031 929.2230224609375 L 295.0530090332031 934.7730102539062 C 295.0530090332031 938.6740112304688 297.6785278320312 942.1705322265625 301.4378051757812 943.2758178710938 L 301.4590148925781 943.2820434570312 L 301.4800109863281 943.2889404296875 L 301.6689147949219 943.351318359375 L 301.9526977539062 943.4459228515625 L 302.239990234375 943.3499755859375 L 302.4249877929688 943.2889404296875 L 302.4459838867188 943.2820434570312 L 302.4671936035156 943.2758178710938 C 306.22705078125 942.1703491210938 308.8529968261719 938.673828125 308.8529968261719 934.7730102539062 L 308.8529968261719 929.2230224609375 L 308.8529968261719 928.5447387695312 L 308.2009887695312 928.357421875 L 302.2000427246094 926.6322021484375 L 301.9526977539062 926.5609130859375 M 301.9530029296875 925.156005859375 L 302.5740051269531 925.3350219726562 L 308.5740051269531 927.0599975585938 L 310.2030029296875 927.5280151367188 L 310.2030029296875 929.2230224609375 L 310.2030029296875 934.7730102539062 C 310.2030029296875 939.2750244140625 307.1809997558594 943.2969970703125 302.8479919433594 944.5709838867188 L 302.6629943847656 944.6320190429688 L 301.9530029296875 944.8690185546875 L 301.2420043945312 944.6320190429688 L 301.0570068359375 944.5709838867188 C 296.7239990234375 943.2969970703125 293.7030029296875 939.2750244140625 293.7030029296875 934.7730102539062 L 293.7030029296875 929.2230224609375 L 293.7030029296875 927.5280151367188 L 295.3309936523438 927.0599975585938 L 301.3309936523438 925.3350219726562 L 301.9530029296875 925.156005859375 Z"/></g><path class="c" d="M300.04,933.808l-1.05,1.05,2.475,2.475,3.45-3.525-1.05-1.05-2.4,2.4Z"/></g></svg>