<svg xmlns="http://www.w3.org/2000/svg" width="21.101" height="21.101" viewBox="0 0 21.101 21.101"><g transform="translate(-403.949 -946.508)"><g transform="translate(403.949 946.508)"><path d="M414.5,946.508a10.55,10.55,0,1,0,10.55,10.551A10.567,10.567,0,0,0,414.5,946.508Zm.877,2.089a8.47,8.47,0,0,1,5.561,2.905,3.226,3.226,0,0,1-5.561-2.905Zm-2.081.05a5.259,5.259,0,0,0,8.8,4.587,8.506,8.506,0,0,1-3.681,11.378,6.08,6.08,0,0,0-.3-1.681,3.851,3.851,0,1,0-5.014-5.816,8.6,8.6,0,0,0-7.1.248A8.514,8.514,0,0,1,413.3,948.647Zm2.525,9.372a1.807,1.807,0,0,1,.678,3.482,1.021,1.021,0,0,0-.578,1.3,5.421,5.421,0,0,1,.431,2.561,8.491,8.491,0,0,1-10-5.854,6.513,6.513,0,0,1,6.549-.218,1.022,1.022,0,0,0,1.367-.377A1.8,1.8,0,0,1,415.821,958.019Z" transform="translate(-403.949 -946.508)"/></g></g></svg>