<svg xmlns="http://www.w3.org/2000/svg" xmlns:xlink="http://www.w3.org/1999/xlink" width="272.829" height="161.113" viewBox="0 0 272.829 161.113"><defs><style>.a{fill:#f2f2f2;}.b{fill:#ed1c24;}.c{fill:#ff6f08;}.d{fill:#312b27;}.e{fill:#a0616a;}.f{fill:url(#a);}</style><linearGradient id="a" y1="0.5" x2="1" y2="0.5" gradientUnits="objectBoundingBox"><stop offset="0" stop-color="red"/><stop offset="1" stop-color="#ff6f08"/></linearGradient></defs><g transform="translate(0 0)"><path class="a" d="M412.289,68.175a24.986,24.986,0,0,1,24.951-23.68c.759,0,1.509.04,2.251.106a33.2,33.2,0,0,1,57.385-.027c.626-.047,1.256-.079,1.895-.079a24.986,24.986,0,0,1,24.951,23.68" transform="translate(-286.748 -19.531)"/><path class="a" d="M79.9,238.814a24.986,24.986,0,0,1,24.951-23.68c.759,0,1.509.04,2.251.106a33.2,33.2,0,0,1,57.385-.027c.626-.047,1.256-.079,1.895-.079a24.986,24.986,0,0,1,24.951,23.68" transform="translate(-55.569 -138.211)"/><path class="b" d="M641.68,437.341s-8.032,3.013-11.816,10.031-1.888,15.385-1.888,15.385,8.032-3.013,11.816-10.031S641.68,437.341,641.68,437.341Z" transform="translate(-436.428 -304.172)"/><path class="c" d="M652.985,471.1s-2.631,8.165-9.464,12.276-15.279,2.61-15.279,2.61,2.631-8.165,9.464-12.275S652.985,471.1,652.985,471.1Z" transform="translate(-436.945 -327.465)"/><rect class="d" width="272.829" height="0.609" transform="translate(0 160.504)"/><path class="d" d="M355.918,408.834a124.806,124.806,0,0,0-15.913-3.3l.232-3.245c1.827-18.27-10.353-45.675-10.353-45.675a122.27,122.27,0,0,1,6.537,42.332c-1.625-2.835-4.765-5.894-10.8-7.772,0,0,7.849,6.731,10.1,13.733a303.8,303.8,0,0,0-31.065-2.5l2.7-6.207-5.176,5.176s-2.131-15.529-6.7-16.138l3.349,15.225s-3.958-3.045-4.872-2.74l2.252,4.505a471.864,471.864,0,0,0-54.129,2.726l2.548-5.861-5.176,5.176s-2.131-15.529-6.7-16.138l3.349,15.225s-3.958-3.045-4.872-2.74l2.632,5.264q-10.252,1.219-21.358,2.958Z" transform="translate(-147.794 -248.026)"/><path class="e" d="M382.757,40.907c-3.319,3.577,5.359,12.259,5.359,12.259s-17.572,2.963-16.177,2.783.672-14.96.672-14.96S386.076,37.33,382.757,40.907Z" transform="translate(-258.629 -27.36)"/><path class="d" d="M366.994,163.172l-15.267,7.8-8.291,4.752s-9.774,12.311-11.6,19.607,7.9,20.781,9,22.174a16.55,16.55,0,0,1,1.519,2.26c.38.565,3.663-.165,7.248-.934s-.476-6.079-.476-6.079-4.576-11.691-4.917-11.955c-.318-.246-1.4-2.267-.622-3.152a7.9,7.9,0,0,0,1.658-2.709,9.165,9.165,0,0,1,1.275-2.418s13.812-11.216,18.126-15.035,15.782-1.418,15.782-1.418-5.414,20.767-6.769,22.169-1.5,2.649-.888,5.026,8.612.119,8.612.119l2.954-8.056a133.783,133.783,0,0,0,7.4-21.216c1.3-5.387-1.184-8.6-3.995-10.461a12.605,12.605,0,0,0-9.144-1.82L364.483,164.3l9.789-4.217Z" transform="translate(-230.636 -111.341)"/><path class="e" d="M210.233,65.494l-18.225-5.635s-7.362-9.49-3.894-11.165,7.811,8.2,7.811,8.2l12.693.822Z" transform="translate(-130.188 -33.734)"/><path class="e" d="M513.564,21.893l16.2-10.069S534.485.778,530.705.037s-5.477,9.916-5.477,9.916l-12.071,4.011Z" transform="translate(-356.902)"/><path class="f" d="M330.834,34.513l.309,11.934-27.309,4.88c4.017,8.594,3,18.375,13.108,22.662L282.86,90.658c1.519-13.1-4.817-22.976-10.737-35.248-7.212-2.614-15.589-.7-24.462,3.151l-1.595-12.382,37.721-2.709,6.2,2.369,6.644-2.794C306.391,40.143,320.41,34.627,330.834,34.513Z" transform="translate(-171.14 -24.004)"/><path class="d" d="M464.919,298.587c-.828.721-1.6,6.653-1.629,8.806s2.805,2.709,4.354,2.817,1.364,1.052,2.386,1.842,4.384.664,8.8-.826-2.97-6.372-3.613-6.6-3.349-6.937-3.349-6.937S465.747,297.866,464.919,298.587Z" transform="translate(-322.219 -207.046)"/><path class="d" d="M361.908,344.882c.984.487,3.233,6.031,3.807,8.106s-2.027,3.331-3.5,3.828-1.052,1.364-1.842,2.386-4.073,1.753-8.719,1.43,1.258-6.916,1.823-7.3,1.483-7.559,1.483-7.559S360.924,344.4,361.908,344.882Z" transform="translate(-243.346 -239.795)"/><circle class="e" cx="7.307" cy="7.307" r="7.307" transform="translate(111.286 3.481)"/><path class="d" d="M360.051,10.393a6.951,6.951,0,0,1-.254-5.662c.718-1.771,2.311-3.549,5.747-4.08,7.495-1.159,11.483,4.091,11.274,5.808s-1.216,5.868-1.216,5.868.449-3.93-1.479-4.069-9.41-.724-11.3,1.262a4.334,4.334,0,0,0-1.13,4.211Z" transform="translate(-249.904 -0.338)"/></g></svg>