<?xml version="1.0" encoding="UTF-8" standalone="no"?>
<svg
   xmlns:dc="http://purl.org/dc/elements/1.1/"
   xmlns:cc="http://creativecommons.org/ns#"
   xmlns:rdf="http://www.w3.org/1999/02/22-rdf-syntax-ns#"
   xmlns:svg="http://www.w3.org/2000/svg"
   xmlns="http://www.w3.org/2000/svg"
   xmlns:sodipodi="http://sodipodi.sourceforge.net/DTD/sodipodi-0.dtd"
   xmlns:inkscape="http://www.inkscape.org/namespaces/inkscape"
   width="263.81"
   height="167.181"
   viewBox="0 0 263.81 167.181"
   version="1.1"
   id="svg177"
   sodipodi:docname="newCar.svg"
   inkscape:version="0.92.5 (2060ec1f9f, 2020-04-08)">
  <metadata
     id="metadata181">
    <rdf:RDF>
      <cc:Work
         rdf:about="">
        <dc:format>image/svg+xml</dc:format>
        <dc:type
           rdf:resource="http://purl.org/dc/dcmitype/StillImage" />
      </cc:Work>
    </rdf:RDF>
  </metadata>
  <sodipodi:namedview
     pagecolor="#ffffff"
     bordercolor="#666666"
     borderopacity="1"
     objecttolerance="10"
     gridtolerance="10"
     guidetolerance="10"
     inkscape:pageopacity="0"
     inkscape:pageshadow="2"
     inkscape:window-width="1920"
     inkscape:window-height="1055"
     id="namedview179"
     showgrid="false"
     inkscape:zoom="1.4063152"
     inkscape:cx="109.647"
     inkscape:cy="83.5905"
     inkscape:window-x="1920"
     inkscape:window-y="0"
     inkscape:window-maximized="1"
     inkscape:current-layer="g175" />
  <defs
     id="defs9">
    <style
       id="style2">.a{fill:#f2f2f2;}.b{opacity:0.03;}.b,.d,.g,.i{isolation:isolate;}.c{fill:#36334a;}.d{opacity:0.1;}.e{fill:#3f3d56;}.f,.i{fill:#ff6f08;}.g,.i{opacity:0.2;}.h{fill:url(#a);}.j{fill:#ff6584;}.k{fill:#fbbebe;}.l{fill:#696880;}.m,.o{fill:none;stroke-miterlimit:10;}.m{stroke:#3f3d56;stroke-width:4px;}.n{fill:#656380;}.o{stroke:#36334a;}</style>
    <linearGradient
       id="a"
       y1="0.5"
       x2="1"
       y2="0.5"
       gradientUnits="objectBoundingBox">
      <stop
         offset="0"
         stop-color="red"
         id="stop4" />
      <stop
         offset="1"
         stop-color="#ff6f08"
         id="stop6" />
    </linearGradient>
  </defs>
  <g
     transform="translate(47.039)"
     id="g175">
    <path
       class="c"
       d="m 845.713,499.346 c 0,0.407 0,0.814 -0.026,1.216 a 28.776,28.776 0 0 1 -0.563,4.658 c -1.554,7.6 -6.042,13.5 -11.679,15.244 a 11.663,11.663 0 0 1 -3.463,0.528 c -8.689,0 -15.732,-9.7 -15.732,-21.646 0,-11.946 7.043,-21.646 15.732,-21.646 8.15,0 14.854,8.531 15.651,19.458 0.054,0.719 0.08,1.45 0.08,2.188 z"
       transform="translate(-657.537,-364.692)"
       id="path25"
       inkscape:connector-curvature="0"
       style="fill:#36334a" />
    <path
       class="d"
       d="m 883.1,517.367 a 28.776,28.776 0 0 1 -0.563,4.658 c -1.554,7.6 -6.042,13.5 -11.679,15.244 -4.365,-2.008 -7.6,-9.536 -7.6,-18.516 0,-10.518 4.448,-19.044 9.936,-19.044 4.606,0 8.481,6.014 9.6,14.173 0.153,1.118 0.254,2.288 0.306,3.485 z"
       transform="translate(-694.945,-381.496)"
       id="path27"
       inkscape:connector-curvature="0"
       style="opacity:0.1;isolation:isolate" />
    <path
       class="e"
       d="m 613.25,353.439 c 0,0 42.582,-8.753 65.056,-0.71 0,0 3.312,1.656 0,4.495 0,0 3.132,3.312 -2.337,4.495 l -21.729,1.337 -40.99,-4.175 z"
       transform="translate(-504.087,-266.69)"
       id="path29"
       inkscape:connector-curvature="0"
       style="fill:#3f3d56" />
    <path
       class="d"
       d="m 644.75,360 c 0,0 36.457,-7.494 55.7,-0.608 0,0 2.839,1.419 0,3.849 0,0 2.68,2.839 -2,3.849 l -18.6,1.143 -35.095,-3.57 z"
       transform="translate(-528.135,-272.146)"
       id="path31"
       inkscape:connector-curvature="0"
       style="opacity:0.1;isolation:isolate" />
    <path
       class="f"
       d="m 627.865,370.206 -2.839,-5.678 c 0,0 1.244,-5.744 -8.871,-7.433 a 6.518,6.518 0 0 0 -12.259,-0.185 c -1.453,0.125 -3,0.3 -4.656,0.52 l -2.314,12.406 -0.289,-0.577 c 0,0 1.469,-6.785 -11.772,-7.776 a 4.926,4.926 0 0 0 1.126,-3.106 c 0,-3.007 -2.808,-5.441 -6.269,-5.441 -3.461,0 -6.269,2.434 -6.269,5.441 a 4.968,4.968 0 0 0 1.315,3.331 q -1.857,0.177 -3.918,0.454 l -2.6,13.957 12.065,1.656 19.162,-2.839 -1.7,-3.395 10.922,1.5 z"
       transform="translate(-469.732,-269.263)"
       id="path33"
       inkscape:connector-curvature="0"
       style="fill:#ff6f08" />
    <path
       class="g"
       d="m 627.865,370.206 -2.839,-5.678 c 0,0 1.244,-5.744 -8.871,-7.433 a 6.518,6.518 0 0 0 -12.259,-0.185 c -1.453,0.125 -3,0.3 -4.656,0.52 l -2.314,12.406 -0.289,-0.577 c 0,0 1.469,-6.785 -11.772,-7.776 a 4.926,4.926 0 0 0 1.126,-3.106 c 0,-3.007 -2.808,-5.441 -6.269,-5.441 -3.461,0 -6.269,2.434 -6.269,5.441 a 4.968,4.968 0 0 0 1.315,3.331 q -1.857,0.177 -3.918,0.454 l -2.6,13.957 12.065,1.656 19.162,-2.839 -1.7,-3.395 10.922,1.5 z"
       transform="translate(-469.732,-269.263)"
       id="path35"
       inkscape:connector-curvature="0"
       style="opacity:0.2;isolation:isolate" />
    <path
       class="f"
       d="m 638.305,338.545 c 0,0 -1.893,-10.617 6.86,-10.854 8.753,-0.237 5.914,15.377 5.914,15.377 0,0 6.624,1.419 7.1,4.022 0.476,2.603 -22.949,3.31 -22.949,3.31 z"
       transform="translate(-520.867,-250.169)"
       id="path37"
       inkscape:connector-curvature="0"
       style="fill:#ff6f08" />
    <path
       class="c"
       d="m 448.886,530.921 c 0,12.538 -9.321,22.71 -20.818,22.71 -11.497,0 -20.818,-10.172 -20.818,-22.71 0,-12.538 9.437,-24.721 20.936,-24.721 11.499,0 20.7,12.178 20.7,24.721 z"
       transform="translate(-346.819,-386.45)"
       id="path39"
       inkscape:connector-curvature="0"
       style="fill:#36334a" />
    <ellipse
       class="d"
       cx="16.559999"
       cy="19.159"
       rx="16.559999"
       ry="19.159"
       transform="translate(64.689,126.258)"
       id="ellipse41"
       style="opacity:0.1;isolation:isolate" />
    <ellipse
       class="c"
       cx="20.818001"
       cy="22.709999"
       rx="20.818001"
       ry="22.709999"
       transform="translate(-31.121,119.629)"
       id="ellipse43"
       style="fill:#36334a" />
    <path
       class="c"
       d="m 228.422,372.7 c 0,0 -9.7,0.473 -9.226,5.678 0.474,5.205 8.28,1.419 8.28,1.419 z"
       transform="translate(-203.24,-284.532)"
       id="path45"
       inkscape:connector-curvature="0"
       style="fill:#36334a" />
    <path
       class="h"
       d="m 315.281,310.121 3.993,-26.649 c 0,0 0.946,-3.312 -11.828,-3.312 0,0 -40.926,-2.6 -51.335,1.656 0,0 -12.065,4.495 -28.861,27.678 0,0 86.375,2.046 88.031,0.627 z"
       transform="translate(-209.401,-213.282)"
       id="path47"
       inkscape:connector-curvature="0"
       style="fill:url(#a)" />
    <path
       class="f"
       d="m 327.856,291.7 -7.334,29.1 -4.6,-0.111 -21.764,-0.53 -48.541,-1.183 c -0.135,-2.3 22.852,-26.091 22.852,-26.091 z"
       transform="translate(-223.424,-222.694)"
       id="path49"
       inkscape:connector-curvature="0"
       style="fill:#ff6f08" />
    <path
       class="i"
       d="m 450.84,352.212 1.982,-7.665 c 0,0 -1.893,-10.619 6.86,-10.856 8.753,-0.237 5.914,15.377 5.914,15.377 0,0 6.032,1.294 6.993,3.674 z"
       transform="translate(-380.098,-254.749)"
       id="path51"
       inkscape:connector-curvature="0"
       style="opacity:0.2;isolation:isolate;fill:#ff6f08" />
    <path
       class="h"
       d="m 224.206,434.325 c -1.419,-13.721 -10.291,-16.678 -10.291,-16.678 -8.516,-0.473 -14.194,31.936 -14.194,31.936 l -65.529,5.917 c 0,0 2.247,-27.56 -13.6,-32.055 -15.847,-4.495 -19.99,27.8 -20.7,32.291 -0.71,4.491 -95.573,-0.473 -98.175,-2.366 -2.602,-1.893 -1.658,-20.11 -0.948,-21.529 0.71,-1.419 2.6,-7.807 2.6,-7.807 a 13.105,13.105 0 0 1 1.334,-4.786 c 0.426,-0.946 0.795,-1.6 0.795,-1.6 2.056,-11.658 12.73,-14.48 13.446,-14.667 h 0.038 c 2.839,-2.839 29.1,-4.731 29.1,-4.731 l 9.936,-1.893 80.78,1.587 3.437,0.069 41.068,-1.975 27.773,-1.337 c 6.387,0 9.7,16.087 9.7,16.087 5.914,14.192 3.43,23.537 3.43,23.537 z"
       transform="translate(-35.911,-301.327)"
       id="path53"
       inkscape:connector-curvature="0"
       style="fill:url(#a)" />
    <ellipse
       class="d"
       cx="12.178"
       cy="7.625"
       rx="12.178"
       ry="7.625"
       transform="rotate(-21.92,301.69159,-43.710151)"
       id="ellipse55"
       style="opacity:0.1;isolation:isolate" />
    <ellipse
       class="a"
       cx="12.178"
       cy="7.625"
       rx="12.178"
       ry="7.625"
       transform="rotate(-21.92,299.01003,-42.962413)"
       id="ellipse57"
       style="fill:#f2f2f2" />
    <path
       class="d"
       d="m 36.131,431.74 a 18.937,18.937 0 0 1 -3.385,9.049 c -3.376,5.091 -8.005,8.088 -10.856,7.211 0.426,-0.946 0.795,-1.6 0.795,-1.6 2.056,-11.66 12.729,-14.483 13.446,-14.66 z"
       transform="translate(-52.623,-329.605)"
       id="path59"
       inkscape:connector-curvature="0"
       style="opacity:0.1;isolation:isolate" />
    <path
       class="a"
       d="m 33.131,429.74 a 18.938,18.938 0 0 1 -3.385,9.049 c -3.376,5.091 -8.005,8.088 -10.856,7.211 0.426,-0.946 0.795,-1.6 0.795,-1.6 2.056,-11.66 12.729,-14.483 13.446,-14.66 z"
       transform="translate(-50.332,-328.078)"
       id="path61"
       inkscape:connector-curvature="0"
       style="fill:#f2f2f2" />
    <path
       class="c"
       d="M 155.885,451.292 H 137.2 l -0.946,-2.6 h 22.71 z"
       transform="translate(-139.929,-342.545)"
       id="path63"
       inkscape:connector-curvature="0"
       style="fill:#36334a" />
    <rect
       class="c"
       width="30.754"
       height="8.9899998"
       transform="translate(-19.056,127.909)"
       id="rect65"
       x="0"
       y="0"
       style="fill:#36334a" />
    <circle
       class="d"
       cx="4.2579999"
       cy="4.2579999"
       r="4.2579999"
       transform="translate(40.559,137.135)"
       id="circle67"
       style="opacity:0.1;isolation:isolate" />
    <circle
       class="a"
       cx="4.2579999"
       cy="4.2579999"
       r="4.2579999"
       transform="translate(40.086,136.425)"
       id="circle69"
       style="fill:#f2f2f2" />
    <ellipse
       class="d"
       cx="2.1289999"
       cy="4.4949999"
       rx="2.1289999"
       ry="4.4949999"
       transform="translate(-34.669,133.587)"
       id="ellipse71"
       style="opacity:0.1;isolation:isolate" />
    <ellipse
       class="a"
       cx="2.1289999"
       cy="4.4949999"
       rx="2.1289999"
       ry="4.4949999"
       transform="translate(-35.379,133.35)"
       id="ellipse73"
       style="fill:#f2f2f2" />
    <path
       class="h"
       d="m 638.18,424.563 c -2.6,8.043 -2.839,20.581 -2.839,20.581 l -0.946,3.312 -46.13,5.2 c 0,0 0.237,-23.183 0.946,-34.066 a 44.173,44.173 0 0 0 -2.491,-17.338 l 3.437,0.069 41.068,-1.975 c 6.861,4.813 9.29,16.994 6.955,24.217 z"
       transform="translate(-483.833,-305.641)"
       id="path75"
       inkscape:connector-curvature="0"
       style="fill:url(#a)" />
    <path
       class="a"
       d="m 756.29,439.339 a 1.161,1.161 0 0 0 -1.082,1.236 c 0,0.037 0.007,0.074 0.013,0.11 a 0.831,0.831 0 0 0 0.473,0.617 c 0.764,0.381 5.85,-0.473 7.778,-0.814 a 1.308,1.308 0 0 0 1.093,-1.166 c 0.024,-0.336 -0.1,-0.622 -0.591,-0.622 z"
       transform="translate(-612.461,-334.918)"
       id="path77"
       inkscape:connector-curvature="0"
       style="fill:#f2f2f2" />
    <path
       class="c"
       d="m 586.25,385.614 c 0,0 1.183,5.2 6.86,3.548 l 1.89,-7.333 -3.785,-2.129 z"
       transform="translate(-483.474,-289.876)"
       id="path79"
       inkscape:connector-curvature="0"
       style="fill:#36334a" />
    <path
       class="c"
       d="m 608.068,354.744 c 2.6,-1.542 6.73,-2.891 10.813,0.348 a 4.826,4.826 0 0 1 1.393,5.805 c -1.337,2.893 -4.509,6.032 -11.916,2.273 a 4.779,4.779 0 0 1 -1.8,-1.594 l -0.038,-0.057 a 4.8,4.8 0 0 1 1.357,-6.655 q 0.093,-0.064 0.191,-0.12 z"
       transform="translate(-498.339,-269.573)"
       id="path81"
       inkscape:connector-curvature="0"
       style="fill:#36334a" />
    <circle
       class="a"
       cx="4.7309999"
       cy="4.7309999"
       r="4.7309999"
       transform="translate(76.635,139.619)"
       id="circle83"
       style="fill:#f2f2f2" />
    <ellipse
       class="a"
       cx="2.602"
       cy="4.7309999"
       rx="2.602"
       ry="4.7309999"
       transform="translate(176.466,131.103)"
       id="ellipse85"
       style="fill:#f2f2f2" />
    <rect
       class="c"
       width="6.151"
       height="8.2799997"
       rx="3.075"
       transform="translate(78.173,129.801)"
       id="rect87"
       x="0"
       y="0"
       style="fill:#36334a" />
    <path
       class="c"
       d="m 899.589,510.19 v 0 a 1.656,1.656 0 0 1 1.656,1.656 v 3.785 a 2.839,2.839 0 0 1 -2.839,2.839 v 0 a 1.656,1.656 0 0 1 -1.656,-1.656 v -3.785 a 2.839,2.839 0 0 1 2.839,-2.839 z"
       transform="translate(-720.52,-389.496)"
       id="path89"
       inkscape:connector-curvature="0"
       style="fill:#36334a" />
    <path
       class="c"
       d="m 899.589,611.48 v 0 a 2.839,2.839 0 0 1 -2.839,-2.839 v -2.6 a 2.839,2.839 0 0 1 2.839,-2.839 v 0 c 1.561,0 1.419,1.277 1.419,2.839 v 2.6 c -0.002,1.559 0.147,2.839 -1.419,2.839 z"
       transform="translate(-720.52,-460.503)"
       id="path91"
       inkscape:connector-curvature="0"
       style="fill:#36334a" />
    <path
       class="c"
       d="m 872.643,556.19 v 0 a 2.839,2.839 0 0 1 2.839,2.839 v 3.548 a 1.893,1.893 0 0 1 -1.893,1.893 v 0 a 2.839,2.839 0 0 1 -2.839,-2.839 v -3.549 a 1.893,1.893 0 0 1 1.893,-1.892 z"
       transform="translate(-700.671,-424.614)"
       id="path93"
       inkscape:connector-curvature="0"
       style="fill:#36334a" />
    <path
       class="c"
       d="m 934.661,561.566 c 0,0.407 0,0.814 -0.026,1.216 a 28.776,28.776 0 0 1 -0.563,4.658 2.913,2.913 0 0 1 -0.473,0.04 2.839,2.839 0 0 1 -2.839,-2.839 v -2.6 a 2.839,2.839 0 0 1 2.84,-2.841 2.766,2.766 0 0 1 0.733,0.1 c 0.085,0.024 0.17,0.05 0.251,0.08 0.051,0.72 0.077,1.448 0.077,2.186 z"
       transform="translate(-746.485,-426.912)"
       id="path95"
       inkscape:connector-curvature="0"
       style="fill:#36334a" />
    <rect
       class="c"
       width="6.151"
       height="8.2799997"
       rx="3.075"
       transform="translate(90.12,139.856)"
       id="rect97"
       x="0"
       y="0"
       style="fill:#36334a" />
    <rect
       class="c"
       width="6.151"
       height="8.2799997"
       rx="3.075"
       transform="translate(66.936,139.856)"
       id="rect99"
       x="0"
       y="0"
       style="fill:#36334a" />
    <rect
       class="c"
       width="6.151"
       height="8.2799997"
       rx="3.075"
       transform="translate(78.291,152.157)"
       id="rect101"
       x="0"
       y="0"
       style="fill:#36334a" />
    <path
       class="j"
       d="m 819.641,193.36 a 3.886,3.886 0 0 1 -0.237,1.322 3.927,3.927 0 0 1 -7.355,0.1 3.862,3.862 0 0 1 -0.27,-1.419 3.927,3.927 0 0 1 7.854,0 z"
       transform="translate(-655.651,-144.625)"
       id="path103"
       inkscape:connector-curvature="0"
       style="fill:#ff6584" />
    <path
       class="j"
       d="m 811.54,191.384 a 3.927,3.927 0 0 1 1.528,-5.339 v 0 a 3.888,3.888 0 0 1 1.419,-0.473 3.927,3.927 0 1 0 0.331,7.823 3.925,3.925 0 0 1 -3.278,-2.011 z"
       transform="translate(-654.614,-141.67)"
       id="path105"
       inkscape:connector-curvature="0"
       style="fill:#ff6584" />
    <rect
       class="j"
       width="10.52"
       height="16.410999"
       transform="translate(155.154,54.204)"
       id="rect107"
       x="0"
       y="0"
       style="fill:#ff6584" />
    <rect
       class="d"
       width="10.52"
       height="16.410999"
       transform="translate(155.391,53.731)"
       id="rect109"
       x="0"
       y="0"
       style="opacity:0.1;isolation:isolate" />
    <path
       class="k"
       d="m 711.6,480.81 c 0,0 -1.121,3.075 -3.785,3.506 a 18.534,18.534 0 0 0 -4.2,1.117 l 6.312,4.067 3.366,-0.421 c 0,0 0.419,-4.348 1.822,-5.33 1.403,-0.982 -3.515,-2.939 -3.515,-2.939 z"
       transform="translate(-573.071,-367.067)"
       id="path111"
       inkscape:connector-curvature="0"
       style="fill:#fbbebe" />
    <path
       class="k"
       d="m 917.955,480.81 c 0,0 1.121,3.075 3.785,3.506 a 18.368,18.368 0 0 1 4.206,1.124 l -6.312,4.067 -3.366,-0.421 c 0,0 -0.419,-4.348 -1.822,-5.33 -1.403,-0.982 3.509,-2.946 3.509,-2.946 z"
       transform="translate(-733.838,-367.067)"
       id="path113"
       inkscape:connector-curvature="0"
       style="fill:#fbbebe" />
    <path
       class="l"
       d="m 742.763,365.79 a 4.9,4.9 0 0 0 -2.245,2.524 9.792,9.792 0 0 0 -4.769,3.648 c 0,0 -2.1,2.243 -2.385,3.366 -0.285,1.123 -3.506,7.863 -3.506,7.863 0,0 -3.224,10.518 -4.909,11.641 0,0 5.33,-1.124 6.312,4.206 0,0 1.263,0 2.666,-4.909 a 63.358,63.358 0 0 1 4.767,-10.939 c 0,0 1.124,-4.208 2.105,-4.909 0.981,-0.701 2.524,-3.927 3.927,-3.087 1.403,0.84 10.66,-0.14 10.66,-0.14 0,0 5.469,2.524 5.609,4.208 0.14,1.684 1.124,1.822 1.263,3.224 0.139,1.402 5.33,12.484 5.33,12.484 0,0 0.982,3.075 1.261,3.785 0,0 3.087,-7.433 7.154,-3.227 a 9.623,9.623 0 0 0 -1.4,-4.495 c -1.263,-1.689 -6.733,-14.868 -6.733,-14.868 a 8.628,8.628 0 0 0 -1.121,-2.524 c -0.561,-0.561 -4.909,-5.048 -6.449,-5.048 0,0 -0.842,-2.105 -1.824,-2.385 z"
       transform="translate(-589.362,-279.256)"
       id="path115"
       inkscape:connector-curvature="0"
       style="fill:#696880" />
    <path
       class="l"
       d="m 703.263,501.119 a 6.834,6.834 0 0 1 -6.678,-0.9 13.309,13.309 0 0 0 -2.978,-1.725 c -1.486,-0.6 -3.267,-1.048 -3.809,-0.04 -0.982,1.822 11.923,6.312 11.923,6.312 a 3.883,3.883 0 0 0 1.542,-3.647 z"
       transform="translate(-562.485,-380.082)"
       id="path117"
       inkscape:connector-curvature="0"
       style="fill:#696880" />
    <path
       class="l"
       d="m 920.573,501.119 a 6.834,6.834 0 0 0 6.678,-0.9 13.309,13.309 0 0 1 2.978,-1.725 c 1.486,-0.6 3.267,-1.048 3.809,-0.04 0.982,1.822 -11.923,6.312 -11.923,6.312 a 3.883,3.883 0 0 1 -1.542,-3.647 z"
       transform="translate(-738.702,-380.082)"
       id="path119"
       inkscape:connector-curvature="0"
       style="fill:#696880" />
    <path
       class="k"
       d="m 806.928,263.368 a 1.664,1.664 0 0 1 -0.629,1.275 3.468,3.468 0 0 1 -1.164,0.277 2.706,2.706 0 0 0 -1.852,1.6 4.146,4.146 0 0 0 -0.175,2.5 9.225,9.225 0 0 0 0.357,1.2 11.359,11.359 0 0 0 1.677,3.286 13.961,13.961 0 0 0 2.2,2.072 3.8,3.8 0 0 0 2.91,1.183 2.828,2.828 0 0 0 1.559,-0.222 c 0.71,-0.409 0.923,-1.315 1.306,-2.039 0.329,-0.617 0.816,-1.138 1.121,-1.767 a 7.044,7.044 0 0 0 0.473,-1.54 l 0.655,-2.912 a 4.116,4.116 0 0 0 -0.142,-3.153 0.5,0.5 0 0 0 -0.175,-0.182 0.651,0.651 0 0 0 -0.357,-0.038 3.861,3.861 0 0 1 -2.165,-0.494 0.858,0.858 0 0 1 -0.272,-0.213 1.074,1.074 0 0 1 -0.168,-0.5 5.26,5.26 0 0 0 -0.3,-1.055 0.711,0.711 0 0 0 -0.206,-0.315 0.735,0.735 0 0 0 -0.331,-0.111 27.074,27.074 0 0 0 -3.059,-0.322 c -0.338,-0.014 -0.844,-0.149 -1.074,0.147 -0.23,0.296 -0.151,0.968 -0.189,1.323 z"
       transform="translate(-648.942,-199.904)"
       id="path121"
       inkscape:connector-curvature="0"
       style="fill:#fbbebe" />
    <path
       class="d"
       d="m 806.928,263.368 a 1.664,1.664 0 0 1 -0.629,1.275 3.468,3.468 0 0 1 -1.164,0.277 2.706,2.706 0 0 0 -1.852,1.6 4.146,4.146 0 0 0 -0.175,2.5 9.225,9.225 0 0 0 0.357,1.2 11.359,11.359 0 0 0 1.677,3.286 13.961,13.961 0 0 0 2.2,2.072 3.8,3.8 0 0 0 2.91,1.183 2.828,2.828 0 0 0 1.559,-0.222 c 0.71,-0.409 0.923,-1.315 1.306,-2.039 0.329,-0.617 0.816,-1.138 1.121,-1.767 a 7.044,7.044 0 0 0 0.473,-1.54 l 0.655,-2.912 a 4.116,4.116 0 0 0 -0.142,-3.153 0.5,0.5 0 0 0 -0.175,-0.182 0.651,0.651 0 0 0 -0.357,-0.038 3.861,3.861 0 0 1 -2.165,-0.494 0.858,0.858 0 0 1 -0.272,-0.213 1.074,1.074 0 0 1 -0.168,-0.5 5.26,5.26 0 0 0 -0.3,-1.055 0.711,0.711 0 0 0 -0.206,-0.315 0.735,0.735 0 0 0 -0.331,-0.111 27.074,27.074 0 0 0 -3.059,-0.322 c -0.338,-0.014 -0.844,-0.149 -1.074,0.147 -0.23,0.296 -0.151,0.968 -0.189,1.323 z"
       transform="translate(-648.942,-199.904)"
       id="path123"
       inkscape:connector-curvature="0"
       style="opacity:0.1;isolation:isolate" />
    <path
       class="a"
       d="m 792.626,273.349 a 6.489,6.489 0 0 0 -1.689,-0.267 4.225,4.225 0 0 0 -3.582,1.54 3.636,3.636 0 0 0 -0.542,2.709 5.609,5.609 0 0 0 1.23,2.524 7.6,7.6 0 0 1 0.946,1.24 6.568,6.568 0 0 1 0.473,2.366 c 0.237,1.919 1.055,3.726 1.382,5.633 0.327,1.907 0.043,4.121 -1.464,5.337 -0.253,0.2 -0.558,0.416 -0.58,0.74 -0.035,0.518 0.639,0.74 1.157,0.788 a 13.186,13.186 0 0 0 4.644,-0.106 c 0.625,-0.166 1.223,-0.423 1.857,-0.542 1.611,-0.3 3.229,0.315 4.838,0.613 a 21.725,21.725 0 0 0 3.527,0.286 1.894,1.894 0 0 0 0.814,-0.106 0.651,0.651 0 0 0 0.412,-0.648 1.1,1.1 0 0 0 -0.279,-0.473 7.714,7.714 0 0 1 -1.285,-3.617 l -0.733,-4.294 c -0.4,-2.29 -0.771,-4.776 0.312,-6.834 0.781,-1.479 2.214,-2.519 3.037,-3.974 a 1.93,1.93 0 0 0 -1.086,-3.054 5.491,5.491 0 0 0 -4.114,-0.149 16.611,16.611 0 0 1 -0.407,3.075 l -0.286,1.656 a 21.082,21.082 0 0 1 -0.639,2.886 3.124,3.124 0 0 1 -0.513,1.046 2.7,2.7 0 0 1 -0.906,0.66 5.385,5.385 0 0 1 -2.4,0.546 3.15,3.15 0 0 1 -1.06,-0.161 4.526,4.526 0 0 1 -1.46,-1.029 2.394,2.394 0 0 1 -0.386,-0.416 2.508,2.508 0 0 1 -0.263,-0.632 12.841,12.841 0 0 1 -0.449,-1.77 c -0.073,-0.459 -0.095,-0.925 -0.128,-1.389 a 33.759,33.759 0 0 0 -0.378,-4.184 z"
       transform="translate(-636.54,-208.21)"
       id="path125"
       inkscape:connector-curvature="0"
       style="fill:#f2f2f2" />
    <path
       class="k"
       d="m 805.474,390.1 c 0,0 -0.561,7.433 2.945,8.7 3.506,1.267 0.421,-6.172 0.421,-6.172 l -1.121,-2.245 z"
       transform="translate(-650.812,-297.816)"
       id="path127"
       inkscape:connector-curvature="0"
       style="fill:#fbbebe" />
    <path
       class="k"
       d="m 841.069,390.1 c 0,0 0.561,7.433 -2.945,8.7 -3.506,1.267 -0.421,-6.172 -0.421,-6.172 l 1.121,-2.245 z"
       transform="translate(-674.484,-297.816)"
       id="path129"
       inkscape:connector-curvature="0"
       style="fill:#fbbebe" />
    <path
       class="d"
       d="M 788.921,283.779 787.8,285.6 c 0,0 0.982,6.312 1.121,7.433 a 14.645,14.645 0 0 0 0.561,2.38 c 0,0 0.14,3.366 0.14,4.627 a 14.127,14.127 0 0 0 0.71,3.366 15.27,15.27 0 0 0 0.71,3.506 c 0.561,1.545 1.124,3.366 1.124,3.366 0,0 0.71,-1.964 3.506,0.982 a 1.7,1.7 0 0 0 0,-2.385 37.107,37.107 0 0 1 -0.842,-5.749 c 0,-1.964 -1.542,-11.355 -1.542,-11.355 0,0 -1,-10.658 -4.367,-7.992 z"
       transform="translate(-637.344,-216.32)"
       id="path131"
       inkscape:connector-curvature="0"
       style="opacity:0.1;isolation:isolate" />
    <path
       class="a"
       d="m 787.751,283.2 -1.121,1.822 c 0,0 0.982,6.312 1.121,7.435 a 14.755,14.755 0 0 0 0.563,2.382 c 0,0 0.147,3.366 0.147,4.632 a 14.067,14.067 0 0 0 0.71,3.366 15.327,15.327 0 0 0 0.71,3.506 c 0.561,1.542 1.121,3.366 1.121,3.366 0,0 0.71,-1.964 3.506,0.982 a 1.7,1.7 0 0 0 0,-2.385 37.1,37.1 0 0 1 -0.842,-5.751 c 0,-1.966 -1.542,-11.355 -1.542,-11.355 0,0 -1.011,-10.655 -4.373,-8 z"
       transform="translate(-636.451,-215.88)"
       id="path133"
       inkscape:connector-curvature="0"
       style="fill:#f2f2f2" />
    <path
       class="d"
       d="m 845.8,277.861 0.71,0.835 a 25.77,25.77 0 0 1 -1,10.806 l -0.561,5.472 c 0,0 -0.982,4.627 -1.124,5.751 -0.142,1.124 -0.14,1.261 -0.419,1.682 a 0.539,0.539 0 0 0 0,0.71 l -0.842,3.087 c 0,0 -1.263,-1.542 -3.785,0.421 a 2.226,2.226 0 0 1 -0.14,-2.105 c 0.57,-0.982 0.561,-1.4 0.421,-1.682 -0.14,-0.282 0.561,-1.684 0.561,-1.964 0,-0.28 0.982,-6.733 0.982,-6.733 0,0 0.421,-6.312 0.842,-8.415 a 39.359,39.359 0 0 0 0.208,-6.21 2.377,2.377 0 0 1 4.022,-1.772 1.09,1.09 0 0 1 0.125,0.117 z"
       transform="translate(-675.992,-211.526)"
       id="path135"
       inkscape:connector-curvature="0"
       style="opacity:0.1;isolation:isolate" />
    <path
       class="a"
       d="m 847.561,275.661 0.71,0.835 a 25.817,25.817 0 0 1 -1,10.806 l -0.561,5.469 c 0,0 -0.982,4.63 -1.124,5.751 -0.142,1.121 -0.14,1.263 -0.421,1.682 a 0.546,0.546 0 0 0 0,0.71 l -0.84,3.075 c 0,0 -1.263,-1.542 -3.785,0.421 a 2.221,2.221 0 0 1 -0.14,-2.1 c 0.57,-0.982 0.561,-1.4 0.419,-1.684 -0.142,-0.284 0.563,-1.682 0.563,-1.963 0,-0.281 0.982,-6.733 0.982,-6.733 0,0 0.421,-6.312 0.84,-8.415 0.419,-2.103 0.142,-8.415 0.142,-8.415 a 3.244,3.244 0 0 1 4.215,0.561 z"
       transform="translate(-677.335,-209.605)"
       id="path137"
       inkscape:connector-curvature="0"
       style="fill:#f2f2f2" />
    <circle
       class="k"
       cx="5.6110001"
       cy="5.6110001"
       r="5.6110001"
       transform="translate(155.223,52.87)"
       id="circle139"
       style="fill:#fbbebe" />
    <path
       class="d"
       d="m 820.3,210.589 a 3.927,3.927 0 0 1 -7.355,0.1 6.96,6.96 0 0 1 4.429,-0.095 3.969,3.969 0 0 1 2.926,-0.005 z"
       transform="translate(-656.545,-160.532)"
       id="path141"
       inkscape:connector-curvature="0"
       style="opacity:0.1;isolation:isolate" />
    <path
       class="j"
       d="m 804.052,211.79 c 0,0 -10.8,-3.785 -8.135,14.587 0,0 2.385,1.542 4.209,0.561 0,0 -1.263,-12.775 3.645,-12.2 4.908,0.575 4.069,11.921 4.069,11.921 0,0 2.806,0.842 3.646,-0.71 0.84,-1.552 -0.281,-16.686 -7.434,-14.159 z"
       transform="translate(-643.218,-161.441)"
       id="path143"
       inkscape:connector-curvature="0"
       style="fill:#ff6584" />
    <path
       class="d"
       d="m 818.256,221.662 c -3.369,-0.386 -3.83,5.5 -3.785,9.238 0.043,-3.712 0.667,-8.753 3.785,-8.4 3.506,0.4 4.078,6.3 4.121,9.65 0.038,-3.065 -0.298,-10.05 -4.121,-10.488 z"
       transform="translate(-657.703,-169.21)"
       id="path145"
       inkscape:connector-curvature="0"
       style="opacity:0.1;isolation:isolate" />
    <path
       class="d"
       d="m 795.927,255.219 a 38.128,38.128 0 0 1 -0.419,-4.869 35.994,35.994 0 0 0 0.419,5.7 c 0,0 2.385,1.542 4.208,0.561 0,0 -0.031,-0.3 -0.064,-0.811 -1.814,0.937 -4.144,-0.581 -4.144,-0.581 z"
       transform="translate(-643.228,-191.126)"
       id="path147"
       inkscape:connector-curvature="0"
       style="opacity:0.1;isolation:isolate" />
    <path
       class="d"
       d="m 851.325,264.035 c -0.783,1.436 -3.269,0.807 -3.608,0.71 -0.017,0.52 -0.038,0.83 -0.038,0.83 0,0 2.806,0.842 3.645,-0.71 a 6.394,6.394 0 0 0 0.237,-2.415 4.374,4.374 0 0 1 -0.236,1.585 z"
       transform="translate(-683.059,-200.363)"
       id="path149"
       inkscape:connector-curvature="0"
       style="opacity:0.1;isolation:isolate" />
    <path
       class="m"
       d="m 975.666,567.622 c 0.648,-1.2 -0.088,-2.671 -0.932,-3.74 -0.844,-1.069 -1.876,-2.183 -1.855,-3.548 0.033,-1.959 2.112,-3.116 3.785,-4.154 a 18.43,18.43 0 0 0 3.39,-2.725 5.024,5.024 0 0 0 1.041,-1.393 5.686,5.686 0 0 0 0.312,-2.479 q -0.106,-4.194 -0.414,-8.382"
       transform="translate(-778.64,-413.17)"
       id="path151"
       inkscape:connector-curvature="0"
       style="fill:none;stroke:#3f3d56;stroke-width:4px;stroke-miterlimit:10" />
    <path
       class="f"
       d="m 1000.763,531.152 a 3.051,3.051 0 0 0 -1.526,-2.505 l -0.683,1.353 0.021,-1.639 a 3.093,3.093 0 0 0 -1.008,-0.121 3.056,3.056 0 1 0 3.2,2.912 z"
       transform="translate(-795.263,-403.273)"
       id="path153"
       inkscape:connector-curvature="0"
       style="fill:#ff6f08" />
    <path
       class="f"
       d="m 978.807,613.635 a 3.056,3.056 0 0 1 -5.77,-1.254 3.015,3.015 0 0 1 0.2,-1.242 3.059,3.059 0 0 1 5.72,0.033 l -1.909,1.554 2.1,-0.487 a 3.025,3.025 0 0 1 -0.341,1.396 z"
       transform="translate(-778.757,-465.069)"
       id="path155"
       inkscape:connector-curvature="0"
       style="fill:#ff6f08" />
    <path
       class="f"
       d="m 980.734,583.2 a 3.057,3.057 0 0 1 -3.2,-2.91 v 0 a 3.014,3.014 0 0 1 0.265,-1.391 3.076,3.076 0 0 1 1.961,-1.694 l -0.014,1.261 0.691,-1.372 v 0 a 3.056,3.056 0 0 1 3.198,2.906 3,3 0 0 1 -0.13,1.043 3.056,3.056 0 0 1 -2.771,2.157 z"
       transform="translate(-782.194,-440.567)"
       id="path157"
       inkscape:connector-curvature="0"
       style="fill:#ff6f08" />
    <path
       class="f"
       d="m 1012.1,562.325 a 3.057,3.057 0 0 1 -3.2,-2.91 v 0 a 3,3 0 0 1 0.289,-1.448 3.054,3.054 0 0 1 4.065,-1.46 q 0.1,0.046 0.193,0.1 l -0.539,1.479 1.109,-1.067 a 3.054,3.054 0 0 1 0.989,2.11 3,3 0 0 1 -0.078,0.842 3.056,3.056 0 0 1 -2.828,2.354 z"
       transform="translate(-806.142,-424.632)"
       id="path159"
       inkscape:connector-curvature="0"
       style="fill:#ff6f08" />
    <path
       class="d"
       d="m 1000.355,537.366 c -0.71,0.078 -1.393,0.3 -2.1,0.341 a 2.276,2.276 0 0 1 -1.933,-0.677 9.534,9.534 0 0 1 -0.565,-0.994 2.2,2.2 0 0 0 -0.769,-0.726 3.021,3.021 0 0 0 -0.329,1.526 3.056,3.056 0 0 0 6.042,0.5 c -0.117,0.008 -0.233,0.018 -0.346,0.03 z"
       transform="translate(-795.264,-408.674)"
       id="path161"
       inkscape:connector-curvature="0"
       style="opacity:0.1;isolation:isolate" />
    <path
       class="d"
       d="m 1012.1,567.98 a 3.057,3.057 0 0 1 -3.2,-2.91 v 0 a 3,3 0 0 1 0.289,-1.448 2.271,2.271 0 0 1 0.615,0.615 9.444,9.444 0 0 0 0.606,1.01 2.5,2.5 0 0 0 2.027,0.71 c 0.738,-0.033 1.448,-0.237 2.184,-0.31 0.1,0 0.206,-0.017 0.308,-0.019 a 3.056,3.056 0 0 1 -2.829,2.352 z"
       transform="translate(-806.142,-430.287)"
       id="path163"
       inkscape:connector-curvature="0"
       style="opacity:0.1;isolation:isolate" />
    <path
       class="d"
       d="m 980.734,589.033 a 3.057,3.057 0 0 1 -3.2,-2.91 v 0 a 3.014,3.014 0 0 1 0.265,-1.391 2.517,2.517 0 0 1 0.639,0.62 12.092,12.092 0 0 0 0.662,1.031 2.836,2.836 0 0 0 2.165,0.759 c 0.781,-0.017 1.486,-0.2 2.238,-0.26 a 3.056,3.056 0 0 1 -2.769,2.151 z"
       transform="translate(-782.194,-446.403)"
       id="path165"
       inkscape:connector-curvature="0"
       style="opacity:0.1;isolation:isolate" />
    <path
       class="d"
       d="m 978.807,619.956 a 3.056,3.056 0 0 1 -5.77,-1.254 3.016,3.016 0 0 1 0.2,-1.242 3.078,3.078 0 0 1 0.669,0.6 10.435,10.435 0 0 0 0.819,1.086 3.825,3.825 0 0 0 2.531,0.892 13.506,13.506 0 0 0 1.551,-0.082 z"
       transform="translate(-778.757,-471.39)"
       id="path167"
       inkscape:connector-curvature="0"
       style="opacity:0.1;isolation:isolate" />
    <path
       class="n"
       d="m 965.18,642.846 a 8.835,8.835 0 0 0 3.139,-0.591 c 0.729,-0.518 3.709,-1.135 3.892,-0.305 0.183,0.83 3.624,4.13 0.9,4.152 -2.724,0.022 -6.328,-0.423 -7.054,-0.866 -0.726,-0.443 -0.877,-2.39 -0.877,-2.39 z"
       transform="translate(-772.762,-489.776)"
       id="path169"
       inkscape:connector-curvature="0"
       style="fill:#656380" />
    <path
       class="g"
       d="m 973.159,650.009 c -2.723,0.021 -6.328,-0.426 -7.054,-0.866 -0.551,-0.338 -0.771,-1.545 -0.845,-2.1 h -0.08 c 0,0 0.151,1.947 0.878,2.389 0.727,0.442 4.331,0.887 7.054,0.866 0.785,0 1.057,-0.286 1.043,-0.71 -0.108,0.26 -0.414,0.412 -0.996,0.421 z"
       transform="translate(-772.762,-493.972)"
       id="path171"
       inkscape:connector-curvature="0"
       style="opacity:0.2;isolation:isolate" />
  </g>
</svg>
