<svg xmlns="http://www.w3.org/2000/svg" width="100.764" height="90.78" viewBox="0 0 100.764 90.78">
  <g id="Groupe_529" data-name="Groupe 529" transform="translate(0 0)">
    <path id="Tracé_1496" data-name="Tracé 1496" d="M75.739,108.142c-1.733-5.179-7.083-8.058-10.6-6.88s-6.061,6.7-4.329,11.875c1.6,4.794,6.463,7.562,9.806,7.068a.38.38,0,0,0-.047.136l-.1.853a.384.384,0,0,0,.511.407l1.722-.617a.384.384,0,0,0,.136-.639l-.621-.593a.389.389,0,0,0-.073-.052C75.121,118.092,77.346,112.947,75.739,108.142Z" transform="translate(-50.773 -85.114)" fill="#f2f2f2"/>
    <path id="Tracé_1497" data-name="Tracé 1497" d="M118.12,119.418a6.318,6.318,0,0,1,2.859,8.218c-.149.339.4.518.547.181a6.908,6.908,0,0,0-3.086-8.878C118.114,118.766,117.792,119.245,118.12,119.418Z" transform="translate(-99.426 -100.201)" fill="#fff"/>
    <path id="Tracé_1498" data-name="Tracé 1498" d="M521.739,60.142c-1.733-5.179-7.083-8.058-10.6-6.88s-6.061,6.7-4.329,11.875c1.6,4.794,6.463,7.562,9.806,7.068a.379.379,0,0,0-.047.136l-.1.853a.384.384,0,0,0,.511.407l1.722-.617a.384.384,0,0,0,.136-.639l-.621-.593a.389.389,0,0,0-.073-.052C521.121,70.092,523.346,64.947,521.739,60.142Z" transform="translate(-426.625 -44.664)" fill="#f2f2f2"/>
    <path id="Tracé_1499" data-name="Tracé 1499" d="M564.12,71.418a6.318,6.318,0,0,1,2.859,8.218c-.149.339.4.518.547.181a6.908,6.908,0,0,0-3.086-8.878C564.114,70.766,563.792,71.245,564.12,71.418Z" transform="translate(-475.278 -59.75)" fill="#fff"/>
    <path id="Tracé_1500" data-name="Tracé 1500" d="M262.739,7.142c-1.733-5.179-7.083-8.058-10.6-6.88s-6.061,6.7-4.329,11.875c1.6,4.794,6.463,7.562,9.806,7.068a.379.379,0,0,0-.047.136l-.1.853a.384.384,0,0,0,.511.407l1.722-.617a.384.384,0,0,0,.136-.639l-.621-.593a.388.388,0,0,0-.073-.052C262.121,17.092,264.346,11.947,262.739,7.142Z" transform="translate(-208.361 0)" fill="#f2f2f2"/>
    <path id="Tracé_1501" data-name="Tracé 1501" d="M305.12,18.418a6.318,6.318,0,0,1,2.859,8.218c-.149.339.4.518.547.181a6.908,6.908,0,0,0-3.086-8.878C305.114,17.766,304.792,18.245,305.12,18.418Z" transform="translate(-257.014 -15.086)" fill="#fff"/>
    <circle id="Ellipse_274" data-name="Ellipse 274" cx="0.413" cy="0.413" r="0.413" transform="translate(45.275 31.238)" fill="#ccc"/>
    <circle id="Ellipse_275" data-name="Ellipse 275" cx="0.815" cy="0.815" r="0.815" transform="translate(43.993 46.992)" fill="#ccc"/>
    <circle id="Ellipse_276" data-name="Ellipse 276" cx="0.471" cy="0.471" r="0.471" transform="translate(30.685 44.54)" fill="#ccc"/>
    <circle id="Ellipse_277" data-name="Ellipse 277" cx="0.51" cy="0.51" r="0.51" transform="translate(37.805 36.747)" fill="#ccc"/>
    <circle id="Ellipse_278" data-name="Ellipse 278" cx="0.413" cy="0.413" r="0.413" transform="translate(63.011 66.817)" fill="#ccc"/>
    <circle id="Ellipse_279" data-name="Ellipse 279" cx="0.815" cy="0.815" r="0.815" transform="translate(49.09 57.524)" fill="#ccc"/>
    <circle id="Ellipse_280" data-name="Ellipse 280" cx="0.471" cy="0.471" r="0.471" transform="translate(58.72 47.478)" fill="#ccc"/>
    <circle id="Ellipse_281" data-name="Ellipse 281" cx="0.51" cy="0.51" r="0.51" transform="translate(61.78 57.527)" fill="#ccc"/>
    <ellipse id="Ellipse_282" data-name="Ellipse 282" cx="1.063" cy="3.387" rx="1.063" ry="3.387" transform="translate(84.611 80.318) rotate(-39.938)" fill="#2f2e41"/>
    <circle id="Ellipse_283" data-name="Ellipse 283" cx="6.774" cy="6.774" r="6.774" transform="translate(73.622 74.282)" fill="#2f2e41"/>
    <rect id="Rectangle_618" data-name="Rectangle 618" width="2.058" height="3.687" transform="translate(81.205 86.372)" fill="#2f2e41"/>
    <rect id="Rectangle_619" data-name="Rectangle 619" width="2.058" height="3.687" transform="translate(77.089 86.372)" fill="#2f2e41"/>
    <ellipse id="Ellipse_284" data-name="Ellipse 284" cx="1.715" cy="0.643" rx="1.715" ry="0.643" transform="translate(79.833 89.459)" fill="#2f2e41"/>
    <ellipse id="Ellipse_285" data-name="Ellipse 285" cx="1.715" cy="0.643" rx="1.715" ry="0.643" transform="translate(75.718 89.373)" fill="#2f2e41"/>
    <path id="Tracé_1502" data-name="Tracé 1502" d="M497.121,443.184a5.04,5.04,0,0,1,9.736,2.418c-.6,2.436-2.612,2.444-5.3,1.776S496.516,445.62,497.121,443.184Z" transform="translate(-418.852 -370.643)" fill="#e6e6e6"/>
    <ellipse id="Ellipse_286" data-name="Ellipse 286" cx="1.063" cy="3.387" rx="1.063" ry="3.387" transform="translate(69.251 77.422) rotate(-64.626)" fill="#2f2e41"/>
    <circle id="Ellipse_287" data-name="Ellipse 287" cx="2.258" cy="2.258" r="2.258" transform="translate(77.125 77.368)" fill="#fff"/>
    <circle id="Ellipse_288" data-name="Ellipse 288" cx="0.753" cy="0.753" r="0.753" transform="translate(77.702 78.064)" fill="#3f3d56"/>
    <path id="Tracé_1503" data-name="Tracé 1503" d="M497.733,531.975a1.506,1.506,0,1,1-2.962.539h0v0c-.148-.818.485-1.108,1.3-1.256S497.585,531.157,497.733,531.975Z" transform="translate(-416.934 -447.643)" fill="#fff"/>
    <ellipse id="Ellipse_289" data-name="Ellipse 289" cx="3.387" cy="1.063" rx="3.387" ry="1.063" transform="matrix(0.357, -0.934, 0.934, 0.357, 21.511, 78.725)" fill="#2f2e41"/>
    <circle id="Ellipse_290" data-name="Ellipse 290" cx="6.774" cy="6.774" r="6.774" transform="translate(10.678 74.282)" fill="#2f2e41"/>
    <rect id="Rectangle_620" data-name="Rectangle 620" width="2.058" height="3.687" transform="translate(14.365 86.372)" fill="#2f2e41"/>
    <rect id="Rectangle_621" data-name="Rectangle 621" width="2.058" height="3.687" transform="translate(18.481 86.372)" fill="#2f2e41"/>
    <ellipse id="Ellipse_291" data-name="Ellipse 291" cx="1.715" cy="0.643" rx="1.715" ry="0.643" transform="translate(14.365 89.459)" fill="#2f2e41"/>
    <ellipse id="Ellipse_292" data-name="Ellipse 292" cx="1.715" cy="0.643" rx="1.715" ry="0.643" transform="translate(18.481 89.373)" fill="#2f2e41"/>
    <circle id="Ellipse_293" data-name="Ellipse 293" cx="2.315" cy="2.315" r="2.315" transform="translate(15.308 77.026)" fill="#fff"/>
    <circle id="Ellipse_294" data-name="Ellipse 294" cx="0.772" cy="0.772" r="0.772" transform="translate(16.852 78.569)" fill="#3f3d56"/>
    <path id="Tracé_1504" data-name="Tracé 1504" d="M68.646,444.964a5.041,5.041,0,0,1,9.791-2.186c.547,2.449-1.245,3.353-3.949,3.957S69.193,447.414,68.646,444.964Z" transform="translate(-57.764 -370.208)" fill="#e6e6e6"/>
    <ellipse id="Ellipse_295" data-name="Ellipse 295" cx="1.063" cy="3.387" rx="1.063" ry="3.387" transform="translate(6.307 77.422) rotate(-64.626)" fill="#2f2e41"/>
    <path id="Tracé_1505" data-name="Tracé 1505" d="M89.805,526.486c0,.663,1.707,1.972,3.6,1.972s3.67-1.866,3.67-2.529-1.776.129-3.67.129S89.805,525.823,89.805,526.486Z" transform="translate(-75.68 -442.986)" fill="#fff"/>
    <circle id="Ellipse_296" data-name="Ellipse 296" cx="6.774" cy="6.774" r="6.774" transform="translate(43.034 67.834)" fill="#2f2e41"/>
    <rect id="Rectangle_622" data-name="Rectangle 622" width="2.058" height="3.687" transform="translate(46.721 79.923)" fill="#2f2e41"/>
    <rect id="Rectangle_623" data-name="Rectangle 623" width="2.058" height="3.687" transform="translate(50.837 79.923)" fill="#2f2e41"/>
    <ellipse id="Ellipse_297" data-name="Ellipse 297" cx="1.715" cy="0.643" rx="1.715" ry="0.643" transform="translate(46.721 83.01)" fill="#2f2e41"/>
    <ellipse id="Ellipse_298" data-name="Ellipse 298" cx="1.715" cy="0.643" rx="1.715" ry="0.643" transform="translate(50.837 82.924)" fill="#2f2e41"/>
    <path id="Tracé_1506" data-name="Tracé 1506" d="M274.365,403.964a5.04,5.04,0,0,1,9.791-2.186c.547,2.45-1.245,3.353-3.949,3.957S274.912,406.414,274.365,403.964Z" transform="translate(-231.128 -335.656)" fill="#ff6f08"/>
    <ellipse id="Ellipse_299" data-name="Ellipse 299" cx="3.758" cy="1.18" rx="3.758" ry="1.18" transform="matrix(0.707, -0.707, 0.707, 0.707, 52.782, 72.638)" fill="#2f2e41"/>
    <ellipse id="Ellipse_300" data-name="Ellipse 300" cx="1.18" cy="3.758" rx="1.18" ry="3.758" transform="matrix(0.707, -0.707, 0.707, 0.707, 38.201, 69.461)" fill="#2f2e41"/>
    <path id="Tracé_1507" data-name="Tracé 1507" d="M469.973,135.387c-.225-6.946-4.982-12.428-10.625-12.245-12.559.372-12.866,23.4-.74,25.058l-.257,2.041,3.745-.121-.388-2.02C466.585,147.022,470.177,141.684,469.973,135.387Z" transform="translate(-378.984 -103.771)" fill="#ff6584"/>
    <path id="Tracé_1508" data-name="Tracé 1508" d="M461.019,182.549l-1.415.046a23.044,23.044,0,0,1-.26-8.017l1.415-.046A17.726,17.726,0,0,0,461.019,182.549Z" transform="translate(-386.9 -147.081)" fill="#fff"/>
    <rect id="Rectangle_624" data-name="Rectangle 624" width="4.247" height="0.944" transform="translate(79.051 44.435) rotate(-1.854)" fill="#3f3d56"/>
    <path id="Tracé_1509" data-name="Tracé 1509" d="M448.918,319.265l-.427-.2L459,283.429l.427.2Z" transform="translate(-377.951 -238.851)" fill="#3f3d56"/>
    <path id="Tracé_1510" data-name="Tracé 1510" d="M526.4,151.882c2.566-6.458.393-13.383-4.854-15.469-11.664-4.672-21.139,16.323-10.681,22.68l-1.05,1.769,3.482,1.384.45-2.007C518.654,161.2,524.077,157.737,526.4,151.882Z" transform="translate(-426.718 -114.392)" fill="#ff6f08"/>
    <path id="Tracé_1511" data-name="Tracé 1511" d="M518.635,175.254l-1.315-.523a23.041,23.041,0,0,1,2.962-7.454l1.315.523A17.731,17.731,0,0,0,518.635,175.254Z" transform="translate(-435.955 -140.967)" fill="#fff"/>
    <rect id="Rectangle_625" data-name="Rectangle 625" width="0.944" height="4.247" transform="matrix(0.369, -0.929, 0.929, 0.369, 83.275, 45.355)" fill="#3f3d56"/>
    <path id="Tracé_1512" data-name="Tracé 1512" d="M448.483,324.671l-.41-.233,14.671-33.48.41.233Z" transform="translate(-377.599 -245.195)" fill="#3f3d56"/>
    <path id="Tracé_1513" data-name="Tracé 1513" d="M19.942,160.179c-2.777-6.37-9.223-9.706-14.4-7.45-11.532,4.989-3.3,26.5,8.575,23.557l.516,1.991,3.435-1.5-1.107-1.733C21.1,172.242,22.459,165.955,19.942,160.179Z" transform="translate(0 -128.113)" fill="#ff6f08"/>
    <path id="Tracé_1514" data-name="Tracé 1514" d="M12.053,226.877l-1.3.566a23.042,23.042,0,0,1-3.2-7.353l1.3-.566A17.728,17.728,0,0,0,12.053,226.877Z" transform="translate(-6.362 -184.997)" fill="#fff"/>
    <rect id="Rectangle_626" data-name="Rectangle 626" width="4.247" height="0.944" transform="translate(13.588 48.389) rotate(-23.55)" fill="#3f3d56"/>
    <path id="Tracé_1515" data-name="Tracé 1515" d="M111.929,336.2h0a.236.236,0,0,1-.286-.172l-10.256-32.5.458-.114,10.256,32.5a.236.236,0,0,1-.172.286Z" transform="translate(-85.441 -255.697)" fill="#3f3d56"/>
    <path id="Tracé_1516" data-name="Tracé 1516" d="M52.69,575.494H28a.157.157,0,0,1,0-.315H52.69a.157.157,0,0,1,0,.315Z" transform="translate(-23.46 -484.714)" fill="#ccc"/>
    <path id="Tracé_1517" data-name="Tracé 1517" d="M451.69,575.494H427a.157.157,0,0,1,0-.315H451.69a.157.157,0,0,1,0,.315Z" transform="translate(-359.705 -484.714)" fill="#ccc"/>
    <path id="Tracé_1518" data-name="Tracé 1518" d="M264.69,534.494H240a.157.157,0,0,1,0-.315H264.69a.157.157,0,0,1,0,.315Z" transform="translate(-202.117 -450.162)" fill="#ccc"/>
    <circle id="Ellipse_301" data-name="Ellipse 301" cx="2.315" cy="2.315" r="2.315" transform="translate(47.208 71.332)" fill="#fff"/>
    <circle id="Ellipse_302" data-name="Ellipse 302" cx="0.772" cy="0.772" r="0.772" transform="translate(48.751 72.876)" fill="#3f3d56"/>
    <path id="Tracé_1519" data-name="Tracé 1519" d="M310.559,491.266a1.506,1.506,0,0,1-2.962.539h0v0c-.148-.818.485-1.108,1.3-1.256S310.411,490.448,310.559,491.266Z" transform="translate(-259.199 -413.337)" fill="#fff"/>
  </g>
</svg>
