<?xml version="1.0" encoding="UTF-8" standalone="no"?>
<!-- Generator: Adobe Illustrator 26.0.1, SVG Export Plug-In . SVG Version: 6.00 Build 0)  -->

<svg
   xmlns:dc="http://purl.org/dc/elements/1.1/"
   xmlns:cc="http://creativecommons.org/ns#"
   xmlns:rdf="http://www.w3.org/1999/02/22-rdf-syntax-ns#"
   xmlns:svg="http://www.w3.org/2000/svg"
   xmlns="http://www.w3.org/2000/svg"
   xmlns:sodipodi="http://sodipodi.sourceforge.net/DTD/sodipodi-0.dtd"
   xmlns:inkscape="http://www.inkscape.org/namespaces/inkscape"
   version="1.1"
   id="Calque_1"
   x="0px"
   y="0px"
   viewBox="0 0 167.24901 104.33785"
   xml:space="preserve"
   sodipodi:docname="newMoto.svg"
   width="167.24901"
   height="104.33785"
   inkscape:version="0.92.5 (2060ec1f9f, 2020-04-08)"><metadata
   id="metadata239"><rdf:RDF><cc:Work
       rdf:about=""><dc:format>image/svg+xml</dc:format><dc:type
         rdf:resource="http://purl.org/dc/dcmitype/StillImage" /></cc:Work></rdf:RDF></metadata><defs
   id="defs237" /><sodipodi:namedview
   pagecolor="#ffffff"
   bordercolor="#666666"
   borderopacity="1"
   objecttolerance="10"
   gridtolerance="10"
   guidetolerance="10"
   inkscape:pageopacity="0"
   inkscape:pageshadow="2"
   inkscape:window-width="1920"
   inkscape:window-height="1055"
   id="namedview235"
   showgrid="false"
   inkscape:zoom="0.12291667"
   inkscape:cx="83.375"
   inkscape:cy="52.337855"
   inkscape:window-x="1920"
   inkscape:window-y="0"
   inkscape:window-maximized="1"
   inkscape:current-layer="Calque_1" />
<style
   type="text/css"
   id="style2">
	.st0{fill:#2E353A;}
	.st1{fill:#407BFF;}
	.st2{opacity:0.4;enable-background:new    ;}
	.st3{opacity:0.1;fill:#FFFFFF;enable-background:new    ;}
	.st4{opacity:0.6;fill:#FFFFFF;enable-background:new    ;}
	.st5{opacity:0.2;fill:#FFFFFF;enable-background:new    ;}
	.st6{opacity:0.2;enable-background:new    ;}
	.st7{fill:#263238;}
	.st8{opacity:0.7;fill:#FFFFFF;enable-background:new    ;}
	.st9{fill:#FFFFFF;}
	.st10{fill:none;stroke:#263238;stroke-width:0.668;stroke-linecap:round;stroke-linejoin:round;}
	.st11{opacity:0.5;fill:#FFFFFF;enable-background:new    ;}
	.st12{opacity:0.4;fill:#FFFFFF;enable-background:new    ;}
	.st13{fill:#E4897B;}
	.st14{fill:#A02724;}
	.st15{fill:none;stroke:#263238;stroke-width:0.51;stroke-linecap:round;stroke-linejoin:round;}
	.st16{fill:#DC897C;}
	.st17{fill:#EEC1BB;}
</style>
<g
   id="Groupe_521"
   transform="translate(-518.327,-1102.561)">
	<g
   id="vehicle_1"
   transform="translate(131.876,228.621)">
		<g
   id="Groupe_495">
			<g
   id="Groupe_482"
   transform="translate(0,28.143)">
				<ellipse
   id="Ellipse_254"
   class="st0"
   cx="473.29999"
   cy="928.09998"
   rx="16.700001"
   ry="20.1"
   style="fill:#2e353a" />
				<ellipse
   id="Ellipse_255"
   cx="470.5"
   cy="928.09998"
   rx="10.5"
   ry="12.7" />
				<g
   id="Groupe_481"
   transform="translate(7.09,14.67)">
					<ellipse
   id="Ellipse_256"
   class="st1"
   cx="461"
   cy="913.29999"
   rx="4.4000001"
   ry="5.3000002"
   style="fill:#407bff" />
					<ellipse
   id="Ellipse_257"
   class="st2"
   cx="461"
   cy="913.29999"
   rx="4.4000001"
   ry="5.3000002"
   style="opacity:0.4;enable-background:new" />
				</g>
			</g>
			<path
   id="Tracé_1328"
   d="m 490.6,936.8 -4.6,14 2.3,1 4.1,-12.3 z"
   inkscape:connector-curvature="0" />
			<g
   id="Groupe_483"
   transform="translate(28.969,31.003)">
				<path
   id="Tracé_1329"
   class="st0"
   d="m 459.7,908.8 3.3,2.6 c 0.2,0.2 0.5,0.1 0.7,-0.1 0,0 0,0 0,0 v 0 c 0.2,-0.2 0.1,-0.5 -0.1,-0.7 l -3.3,-2.6 c -0.2,-0.2 -0.5,-0.1 -0.7,0.1 v 0 c -0.2,0.3 -0.1,0.6 0.1,0.7 z"
   inkscape:connector-curvature="0"
   style="fill:#2e353a" />
				<path
   id="Tracé_1330"
   class="st0"
   d="m 459.1,910.6 3.3,2.6 c 0.2,0.2 0.5,0.1 0.7,-0.1 v 0 c 0.2,-0.2 0.1,-0.5 -0.1,-0.7 l -3.3,-2.6 c -0.2,-0.2 -0.5,-0.1 -0.7,0.1 0,0 0,0 0,0 v 0 c -0.2,0.2 -0.1,0.5 0.1,0.7 0,0 0,0 0,0 z"
   inkscape:connector-curvature="0"
   style="fill:#2e353a" />
				<path
   id="Tracé_1331"
   class="st0"
   d="m 458.5,912.3 3.3,2.6 c 0.2,0.2 0.5,0.1 0.7,-0.1 v 0 c 0.2,-0.2 0.1,-0.5 -0.1,-0.7 l -3.3,-2.6 c -0.2,-0.2 -0.5,-0.1 -0.7,0.1 0,0 0,0 0,0 v 0 c -0.1,0.3 -0.1,0.6 0.1,0.7 0,0 0,0 0,0 z"
   inkscape:connector-curvature="0"
   style="fill:#2e353a" />
				<path
   id="Tracé_1332"
   class="st0"
   d="m 457.9,914.1 3.3,2.6 c 0.2,0.2 0.5,0.1 0.7,-0.1 0,0 0,0 0,0 v 0 c 0.2,-0.2 0.1,-0.5 -0.1,-0.7 l -3.3,-2.6 c -0.2,-0.2 -0.5,-0.1 -0.7,0.1 0,0 0,0 0,0 v 0 c -0.1,0.2 -0.1,0.5 0.1,0.7 0,0 0,0 0,0 z"
   inkscape:connector-curvature="0"
   style="fill:#2e353a" />
				<path
   id="Tracé_1333"
   class="st0"
   d="m 457.3,915.8 3.3,2.6 c 0.2,0.2 0.5,0.1 0.7,-0.1 0,0 0,0 0,0 v 0 c 0.2,-0.2 0.1,-0.5 -0.1,-0.7 l -3.3,-2.6 c -0.2,-0.2 -0.5,-0.1 -0.7,0.1 0,0 0,0 0,0 v 0 c -0.1,0.2 -0.1,0.5 0.1,0.7 0,0 0,0 0,0 z"
   inkscape:connector-curvature="0"
   style="fill:#2e353a" />
				<path
   id="Tracé_1334"
   class="st0"
   d="m 456.8,917.6 3.3,2.6 c 0.2,0.2 0.5,0.1 0.7,-0.1 v 0 c 0.2,-0.2 0.1,-0.5 -0.1,-0.7 l -3.3,-2.6 c -0.2,-0.2 -0.5,-0.1 -0.7,0.1 v 0 c -0.2,0.2 -0.1,0.5 0.1,0.7 0,-0.1 0,0 0,0 z"
   inkscape:connector-curvature="0"
   style="fill:#2e353a" />
			</g>
			<g
   id="Groupe_484"
   transform="translate(1.692,39.306)">
				<path
   id="Tracé_1335"
   class="st0"
   d="m 493.2,909.5 -34.6,-1.5 -2,2.3 5.5,0.2 3.1,7 30.6,1.3 z"
   inkscape:connector-curvature="0"
   style="fill:#2e353a" />
				<path
   id="Tracé_1336"
   class="st3"
   d="m 488.6,909.3 -30,-1.3 -2,2.3 5.5,0.2 3.1,7 26,1.1 z"
   inkscape:connector-curvature="0"
   style="opacity:0.1;fill:#ffffff;enable-background:new" />
			</g>
			<path
   id="Tracé_1337"
   class="st0"
   d="m 505,958.8 5.2,17.5 h -1.4 l -4.7,-13.9 h -4.3 l -1.8,13.9 h -1.3 l 0.9,-17.7 z"
   inkscape:connector-curvature="0"
   style="fill:#2e353a" />
			<g
   id="Groupe_485"
   transform="translate(67.751,1.373)">
				<path
   id="Tracé_1338"
   class="st1"
   d="m 463.9,929.8 2.6,8.3 5.9,18.6 2.2,-1.4 -5.7,-18.7 -2.6,-8.6 c -0.7,0.5 -1.6,1.1 -2.4,1.8 z"
   inkscape:connector-curvature="0"
   style="fill:#407bff" />
				<path
   id="Tracé_1339"
   class="st4"
   d="m 463.9,929.8 2.6,8.3 5.9,18.6 2.2,-1.4 -5.7,-18.7 -2.6,-8.6 c -0.7,0.5 -1.6,1.1 -2.4,1.8 z"
   inkscape:connector-curvature="0"
   style="opacity:0.6;fill:#ffffff;enable-background:new" />
				<path
   id="Tracé_1340"
   class="st0"
   d="m 456.6,909.6 9.2,28.5 h 0.7 c 1.3,-1.5 2.4,-1.4 2.4,-1.4 l 0.5,-0.7 -9.5,-27.5 c 0,-0.1 -2,-1.6 -3.3,1.1 z"
   inkscape:connector-curvature="0"
   style="fill:#2e353a" />
				<path
   id="Tracé_1341"
   class="st0"
   d="m 471.3,954.9 c 0,1.5 0.8,2.7 1.9,2.7 1.1,0 1.9,-1.2 1.9,-2.7 0,-1.5 -0.8,-2.7 -1.9,-2.7 -1.1,0 -1.9,1.2 -1.9,2.7 z"
   inkscape:connector-curvature="0"
   style="fill:#2e353a" />
			</g>
			<path
   id="Tracé_1342"
   d="m 466.4,926.3 -8.3,9 v 0.8 h 3.6 c 2.9,-3.7 7.3,-5.9 12,-6.1 z"
   inkscape:connector-curvature="0" />
			<g
   id="Groupe_486"
   transform="translate(10.481,18.258)">
				<path
   id="Tracé_1343"
   class="st0"
   d="m 499.7,915.1 -5.7,21.9 -6.1,5.7 v 0 c 0,0.4 -0.3,0.7 -0.7,0.7 v 0 h -4.1 c -0.4,0 -0.7,-0.3 -0.7,-0.7 v 0 -11.5 c 0,-3.5 -1.3,-6.8 -3.5,-9.4 v 0 c -1.3,-1.5 -2.9,-2.7 -4.8,-3.5 l -17.5,-8 1.3,-2.3 29.3,1.9 z"
   inkscape:connector-curvature="0"
   style="fill:#2e353a" />
				<path
   id="Tracé_1344"
   class="st3"
   d="m 499.7,915.1 -5.7,21.9 -6.1,5.7 v 0 c 0,0.4 -0.3,0.7 -0.7,0.7 v 0 h -4.1 c -0.4,0 -0.7,-0.3 -0.7,-0.7 v 0 -11.5 c 0,-3.5 -1.3,-6.8 -3.5,-9.4 v 0 c -1.3,-1.5 -2.9,-2.7 -4.8,-3.5 l -17.5,-8 1.3,-2.3 29.3,1.9 z"
   inkscape:connector-curvature="0"
   style="opacity:0.1;fill:#ffffff;enable-background:new" />
			</g>
			<path
   id="Rectangle_614"
   class="st0"
   d="m 505.1,957.9 h -4.5 c -3.2,0 -5.9,-2.6 -5.9,-5.9 v -0.6 c 0,-3.2 2.6,-5.9 5.9,-5.9 h 4.5 c 3.2,0 5.9,2.6 5.9,5.9 v 0.6 c -0.1,3.3 -2.7,5.9 -5.9,5.9 z"
   inkscape:connector-curvature="0"
   style="fill:#2e353a" />
			<path
   id="Tracé_1345"
   class="st5"
   d="m 494.7,948.3 v 6.9 c 0,1.5 1.2,2.7 2.7,2.7 h 10.8 c 1.5,0 2.7,-1.2 2.7,-2.7 v -6.9 c 0,-1.5 -1.2,-2.7 -2.7,-2.7 h -10.8 c -1.5,0 -2.7,1.2 -2.7,2.7 z"
   inkscape:connector-curvature="0"
   style="opacity:0.2;fill:#ffffff;enable-background:new" />
			<path
   id="Tracé_1346"
   class="st5"
   d="m 494.7,948.3 v 6.9 c 0,1.5 1.2,2.7 2.7,2.7 h 4.4 c 1.5,0 2.7,-1.2 2.7,-2.7 v -6.9 c 0,-1.5 -1.2,-2.7 -2.7,-2.7 h -4.4 c -1.5,0 -2.7,1.2 -2.7,2.7 z"
   inkscape:connector-curvature="0"
   style="opacity:0.2;fill:#ffffff;enable-background:new" />
			<path
   id="Tracé_1347"
   class="st1"
   d="m 526.7,918.1 c -2.2,-2.2 -8.3,-4.1 -16.5,0 -8.2,4.1 -11.6,9.2 -9.8,11.9 1.8,2.7 13.9,9.5 21.9,5.8 7.9,-3.7 8.1,-14 4.4,-17.7 z"
   inkscape:connector-curvature="0"
   style="fill:#407bff" />
			<path
   id="Tracé_1348"
   class="st6"
   d="m 526.7,918.1 c -2.2,-2.2 -8.3,-4.1 -16.5,0 -8.2,4.1 -11.6,9.2 -9.8,11.9 1.8,2.7 13.9,9.5 21.9,5.8 7.9,-3.7 8.1,-14 4.4,-17.7 z"
   inkscape:connector-curvature="0"
   style="opacity:0.2;enable-background:new" />
			<path
   id="Tracé_1349"
   class="st1"
   d="m 490.7,928.9 c 0.1,0.4 0.2,0.7 0.4,1 1.8,2.6 13.9,9.5 21.9,5.8 8,-3.7 8.2,-13.9 4.5,-17.7 -2.2,-2.2 -8.3,-4.1 -16.5,0 -1.9,0.9 -3.6,2 -5.3,3.2 -3.7,2.9 -5.4,5.7 -5,7.7 z"
   inkscape:connector-curvature="0"
   style="fill:#407bff" />
			<path
   id="Tracé_1350"
   class="st7"
   d="m 531.5,923.8 h -10.4 c -1,0 -1.8,-0.8 -1.8,-1.8 v 0 -3.8 c 0,-1 0.6,-2.8 1.6,-2.8 l 9.1,1 z"
   inkscape:connector-curvature="0"
   style="fill:#263238" />
			<path
   id="Tracé_1351"
   class="st7"
   d="m 515.5,955.4 h 3.8 c 1.1,0 2,-0.6 2.5,-1.5 2,-3.7 7.8,-13.3 15.9,-15.6 10.2,-2.9 -5.5,-4.7 -11.2,-0.6 -5.6,4 -11,17.7 -11,17.7 z"
   inkscape:connector-curvature="0"
   style="fill:#263238" />
			<path
   id="Tracé_1352"
   class="st2"
   d="m 515.5,955.4 h 3.8 c 1.1,0 2,-0.6 2.5,-1.5 2,-3.7 7.8,-13.3 15.9,-15.6 10.2,-2.9 -5.5,-4.7 -11.2,-0.6 -5.6,4 -11,17.7 -11,17.7 z"
   inkscape:connector-curvature="0"
   style="opacity:0.4;enable-background:new" />
			<ellipse
   id="Ellipse_258"
   class="st0"
   cx="537.70001"
   cy="957"
   rx="16"
   ry="19.299999"
   style="fill:#2e353a" />
			<ellipse
   id="Ellipse_259"
   cx="535.09998"
   cy="957"
   rx="10.1"
   ry="12.2" />
			<g
   id="Groupe_487"
   transform="translate(71.938,43.801)">
				<ellipse
   id="Ellipse_260"
   class="st1"
   cx="460.79999"
   cy="913.09998"
   rx="4.1999998"
   ry="5.0999999"
   style="fill:#407bff" />
				<ellipse
   id="Ellipse_261"
   class="st2"
   cx="460.79999"
   cy="913.09998"
   rx="4.1999998"
   ry="5.0999999"
   style="opacity:0.4;enable-background:new" />
			</g>
			<path
   id="Tracé_1353"
   class="st1"
   d="m 550.7,944.9 h -1.8 c -1.5,0 -2.9,-0.5 -4.1,-1.4 -2.8,-2.1 -8.6,-5.5 -14.7,-3.5 -7,2.3 -11.8,11.6 -13.2,14.5 -0.3,0.5 -0.8,0.9 -1.4,0.9 v 0 c 0,0 2.2,-18.1 14.6,-23 12,-4.8 20.1,5.3 21.9,10.7 0.2,0.7 -0.2,1.5 -0.9,1.7 -0.1,0.1 -0.3,0.1 -0.4,0.1 z"
   inkscape:connector-curvature="0"
   style="fill:#407bff" />
			<g
   id="Groupe_488"
   transform="translate(58.107,1.373)">
				<path
   id="Tracé_1354"
   class="st1"
   d="m 463.9,929.8 2.6,8.3 5.9,18.6 2.2,-1.4 -5.7,-18.7 -2.6,-8.6 c -0.7,0.5 -1.6,1.1 -2.4,1.8 z"
   inkscape:connector-curvature="0"
   style="fill:#407bff" />
				<path
   id="Tracé_1355"
   class="st4"
   d="m 463.9,929.8 2.6,8.3 5.9,18.6 2.2,-1.4 -5.7,-18.7 -2.6,-8.6 c -0.7,0.5 -1.6,1.1 -2.4,1.8 z"
   inkscape:connector-curvature="0"
   style="opacity:0.6;fill:#ffffff;enable-background:new" />
				<path
   id="Tracé_1356"
   class="st0"
   d="m 456.6,909.6 9.2,28.5 h 0.7 c 1.3,-1.5 2.4,-1.4 2.4,-1.4 l 0.5,-0.7 -9.5,-27.5 c 0,-0.1 -2,-1.6 -3.3,1.1 z"
   inkscape:connector-curvature="0"
   style="fill:#2e353a" />
				<path
   id="Tracé_1357"
   class="st0"
   d="m 471.3,954.9 c 0,1.5 0.8,2.7 1.9,2.7 1.1,0 1.9,-1.2 1.9,-2.7 0,-1.5 -0.8,-2.7 -1.9,-2.7 -1.1,0 -1.9,1.2 -1.9,2.7 z"
   inkscape:connector-curvature="0"
   style="fill:#2e353a" />
			</g>
			<g
   id="Groupe_490"
   transform="translate(70.29,8.285)">
				<g
   id="Groupe_489">
					<path
   id="Tracé_1358"
   class="st1"
   d="m 456.6,908.7 c 0,0 1.1,6.7 4.6,6.8 3.3,0 3.6,-6.3 0.5,-7.2 -1.7,-0.5 -3.5,-0.3 -5.1,0.4 z"
   inkscape:connector-curvature="0"
   style="fill:#407bff" />
					<path
   id="Tracé_1359"
   class="st7"
   d="m 456.6,908.7 c 0,0 1.1,6.7 4.6,6.8 3.3,0 3.6,-6.3 0.5,-7.2 -1.7,-0.5 -3.5,-0.3 -5.1,0.4 z"
   inkscape:connector-curvature="0"
   style="fill:#263238" />
				</g>
				<path
   id="Tracé_1360"
   class="st1"
   d="m 463.6,911.8 c 0.1,1.7 -0.9,3.1 -2.3,3.1 -1.4,0 -2.5,-1.4 -2.6,-3.1 -0.1,-1.7 0.9,-3.1 2.3,-3.1 1.4,0 2.5,1.4 2.6,3.1 z"
   inkscape:connector-curvature="0"
   style="fill:#407bff" />
				<path
   id="Tracé_1361"
   class="st8"
   d="m 463.6,911.8 c 0.1,1.7 -0.9,3.1 -2.3,3.1 -1.4,0 -2.5,-1.4 -2.6,-3.1 -0.1,-1.7 0.9,-3.1 2.3,-3.1 1.4,0 2.5,1.4 2.6,3.1 z"
   inkscape:connector-curvature="0"
   style="opacity:0.7;fill:#ffffff;enable-background:new" />
				<path
   id="Tracé_1362"
   class="st9"
   d="m 460.6,912.6 c 0.1,0.6 0.7,0.9 1.3,0.8 0.6,-0.1 0.9,-0.7 0.8,-1.3 -0.1,-0.5 -0.6,-0.8 -1.1,-0.8 -0.6,0 -1.1,0.6 -1,1.3 z"
   inkscape:connector-curvature="0"
   style="fill:#ffffff" />
				<path
   id="Tracé_1363"
   class="st9"
   d="m 459.7,910.8 c 0.1,0.3 0.4,0.5 0.7,0.4 0.3,-0.1 0.5,-0.4 0.4,-0.7 -0.1,-0.2 -0.3,-0.4 -0.5,-0.4 -0.4,0.1 -0.7,0.4 -0.6,0.7 z"
   inkscape:connector-curvature="0"
   style="fill:#ffffff" />
			</g>
			<g
   id="Groupe_492"
   transform="translate(64.714,8.285)">
				<g
   id="Groupe_491">
					<path
   id="Tracé_1364"
   class="st1"
   d="m 456.6,908.7 c 0,0 1.1,6.7 4.6,6.8 3.3,0 3.6,-6.3 0.5,-7.2 -1.7,-0.5 -3.5,-0.3 -5.1,0.4 z"
   inkscape:connector-curvature="0"
   style="fill:#407bff" />
					<path
   id="Tracé_1365"
   class="st7"
   d="m 456.6,908.7 c 0,0 1.1,6.7 4.6,6.8 3.3,0 3.6,-6.3 0.5,-7.2 -1.7,-0.5 -3.5,-0.3 -5.1,0.4 z"
   inkscape:connector-curvature="0"
   style="fill:#263238" />
				</g>
				
					<ellipse
   id="Ellipse_262"
   transform="matrix(0.9929,-0.119,0.119,0.9929,-105.2173,61.3518)"
   class="st1"
   cx="461.20001"
   cy="911.79999"
   rx="2.4000001"
   ry="3.0999999"
   style="fill:#407bff" />
				
					<ellipse
   id="Ellipse_263"
   transform="matrix(0.9929,-0.119,0.119,0.9929,-105.2173,61.3518)"
   class="st8"
   cx="461.20001"
   cy="911.79999"
   rx="2.4000001"
   ry="3.0999999"
   style="opacity:0.7;fill:#ffffff;enable-background:new" />
				<path
   id="Tracé_1366"
   class="st9"
   d="m 460.6,912.6 c 0.1,0.6 0.7,0.9 1.3,0.8 0.6,-0.1 0.9,-0.7 0.8,-1.3 -0.1,-0.5 -0.6,-0.8 -1.1,-0.8 -0.6,0 -1.1,0.6 -1,1.3 z"
   inkscape:connector-curvature="0"
   style="fill:#ffffff" />
				<ellipse
   id="Ellipse_264"
   class="st9"
   cx="460.20001"
   cy="910.79999"
   rx="0.5"
   ry="0.69999999"
   style="fill:#ffffff" />
			</g>
			<path
   id="Tracé_1367"
   class="st1"
   d="m 521,921.4 v 0 c -0.2,0 -0.4,-0.1 -0.4,-0.3 l -3.1,-9.1 c -0.1,-0.4 0.1,-0.7 0.4,-0.9 0.1,0 0.1,0 0.2,0 h 7.5 c 0.4,0 0.9,0.2 1.1,0.6 l 3.5,4.5 h -7.6 c -0.6,0 -1.2,0.5 -1.2,1.2 v 0 3.6 c 0.1,0.2 -0.1,0.4 -0.4,0.4 0,0 0,0 0,0 z"
   inkscape:connector-curvature="0"
   style="fill:#407bff" />
			<g
   id="Groupe_493"
   transform="translate(63.821,15.765)">
				<path
   id="Tracé_1368"
   class="st0"
   d="m 459.8,914.2 h 10.1 c 0.4,0 0.8,-0.3 0.9,-0.7 0,-0.2 0,-0.3 -0.1,-0.4 l -1.5,-3.9 c -0.3,-0.7 -0.9,-1.1 -1.6,-1.1 h -10.1 c -0.4,0 -0.8,0.3 -0.9,0.7 0,0.2 0,0.3 0.1,0.4 l 1.5,3.9 c 0.2,0.6 0.9,1.1 1.6,1.1 z"
   inkscape:connector-curvature="0"
   style="fill:#2e353a" />
				<path
   id="Tracé_1369"
   class="st5"
   d="m 459.8,914.2 h 10.1 c 0.4,0 0.8,-0.3 0.9,-0.7 0,-0.2 0,-0.3 -0.1,-0.4 l -1.5,-3.9 c -0.3,-0.7 -0.9,-1.1 -1.6,-1.1 h -10.1 c -0.4,0 -0.8,0.3 -0.9,0.7 0,0.2 0,0.3 0.1,0.4 l 1.5,3.9 c 0.2,0.6 0.9,1.1 1.6,1.1 z"
   inkscape:connector-curvature="0"
   style="opacity:0.2;fill:#ffffff;enable-background:new" />
			</g>
			<ellipse
   id="Ellipse_265"
   class="st5"
   cx="500.89999"
   cy="951.79999"
   rx="3.2"
   ry="5.3000002"
   style="opacity:0.2;fill:#ffffff;enable-background:new" />
			<path
   id="Tracé_1370"
   class="st1"
   d="m 502.8,939 -1.6,4.7 c -0.2,0.6 -0.8,1.1 -1.5,1.1 H 494 c -0.5,0 -1,-0.3 -1.3,-0.7 l -4,-5.7 c -0.5,-0.7 -0.3,-1.6 0.3,-2.1 l 2.9,-2.2 c 0.5,-0.4 1.1,-0.4 1.7,-0.1 2.5,1.4 5.1,2.4 7.9,3.1 0.8,0.2 1.4,1 1.2,1.8 0.1,-0.1 0.1,0 0.1,0.1 z"
   inkscape:connector-curvature="0"
   style="fill:#407bff" />
			<path
   id="Tracé_1371"
   class="st0"
   d="m 513.9,949.4 -4,8.8 c -0.7,1.6 -2.3,2.5 -4,2.5 -3.3,-0.1 -8.3,0.1 -8.3,0.1 -0.6,-0.9 -0.9,-1.9 -0.9,-3 h 6.3 c 1.4,0 2.6,-0.9 3,-2.1 l 2.1,-6.1 z"
   inkscape:connector-curvature="0"
   style="fill:#2e353a" />
			<g
   id="Groupe_494"
   transform="translate(48.363,28.04)">
				<path
   id="Tracé_1372"
   class="st0"
   d="m 456.6,911.2 v 0.3 0.4 l 0.1,1.2 v 0.4 l 0.1,1.2 v 0.4 l 0.1,1.2 v 0.4 l 0.1,1.2 v 0.4 l 0.1,1.4 c 0.1,1 0.9,1.8 1.9,1.8 h 7 c 0.9,0 1.6,-0.6 1.9,-1.4 l 0.5,-1.8 0.1,-0.4 0.3,-1.2 0.1,-0.4 0.3,-1.2 0.1,-0.4 0.3,-1.2 0.1,-0.4 0.3,-1.2 0.1,-0.4 0.3,-1 c 0.2,-0.8 -0.1,-1.7 -0.8,-2.1 -0.3,-0.2 -0.7,-0.3 -1,-0.3 H 460 c -0.4,0 -0.8,0.1 -1.2,0.4 l -1.5,1.1 c -0.5,0.3 -0.8,0.9 -0.7,1.6 z"
   inkscape:connector-curvature="0"
   style="fill:#2e353a" />
				<path
   id="Tracé_1373"
   class="st5"
   d="m 456.6,911.2 v 0.3 0.4 l 0.1,1.2 v 0.4 l 0.1,1.2 v 0.4 l 0.1,1.2 v 0.4 l 0.1,1.2 v 0.4 l 0.1,1.4 c 0.1,1 0.9,1.8 1.9,1.8 h 7 c 0.9,0 1.6,-0.6 1.9,-1.4 l 0.5,-1.8 0.1,-0.4 0.3,-1.2 0.1,-0.4 0.3,-1.2 0.1,-0.4 0.3,-1.2 0.1,-0.4 0.3,-1.2 0.1,-0.4 0.3,-1 c 0.2,-0.8 -0.1,-1.7 -0.8,-2.1 -0.3,-0.2 -0.7,-0.3 -1,-0.3 H 460 c -0.4,0 -0.8,0.1 -1.2,0.4 l -1.5,1.1 c -0.5,0.3 -0.8,0.9 -0.7,1.6 z"
   inkscape:connector-curvature="0"
   style="opacity:0.2;fill:#ffffff;enable-background:new" />
				<path
   id="Tracé_1374"
   class="st5"
   d="m 456.6,911.2 v 0.3 0.4 l 0.1,1.2 v 0.4 l 0.1,1.2 v 0.4 l 0.1,1.2 v 0.4 l 0.1,1.2 v 0.4 l 0.1,1.4 c 0.1,1 0.9,1.8 1.9,1.8 h 0.6 c 0.9,0 1.6,-0.6 1.9,-1.4 l 0.5,-1.8 0.1,-0.4 0.3,-1.2 0.1,-0.4 0.3,-1.2 0.1,-0.4 0.3,-1.2 0.1,-0.4 0.3,-1.2 0.1,-0.4 0.3,-1 c 0.2,-0.8 -0.1,-1.7 -0.8,-2.1 -0.3,-0.2 -0.7,-0.3 -1,-0.3 H 460 c -0.4,0 -0.8,0.1 -1.2,0.4 l -1.5,1.1 c -0.5,0.3 -0.8,0.9 -0.7,1.6 z"
   inkscape:connector-curvature="0"
   style="opacity:0.2;fill:#ffffff;enable-background:new" />
				<path
   id="Tracé_1375"
   class="st6"
   d="m 456.6,911.5 v 0.4 h 13.6 l 0.1,-0.4 z"
   inkscape:connector-curvature="0"
   style="opacity:0.2;enable-background:new" />
				<path
   id="Tracé_1376"
   class="st6"
   d="m 456.7,913.1 v 0.4 h 13.1 l 0.1,-0.4 z"
   inkscape:connector-curvature="0"
   style="opacity:0.2;enable-background:new" />
				<path
   id="Tracé_1377"
   class="st6"
   d="m 456.9,914.7 v 0.4 h 12.5 l 0.1,-0.4 z"
   inkscape:connector-curvature="0"
   style="opacity:0.2;enable-background:new" />
				<path
   id="Tracé_1378"
   class="st6"
   d="m 457,916.3 v 0.4 h 12 l 0.1,-0.4 z"
   inkscape:connector-curvature="0"
   style="opacity:0.2;enable-background:new" />
				<path
   id="Tracé_1379"
   class="st6"
   d="m 457.1,917.9 v 0.4 h 11.4 l 0.1,-0.4 z"
   inkscape:connector-curvature="0"
   style="opacity:0.2;enable-background:new" />
			</g>
			<path
   id="Tracé_1380"
   class="st5"
   d="m 496.8,957.9 c 0,1 0.3,2.1 0.9,2.9 v 0.1 c 0,0 2.5,-0.1 5.1,-0.1 h 0.4 c 0.5,0 1,0 1.5,0 0.5,0 0.9,0 1.3,0 1.7,0 3.3,-0.9 4,-2.5 l 4,-8.8 -1.9,0.1 -3.9,0.1 -2.1,6.1 c -0.4,1.3 -1.6,2.1 -3,2.1 z"
   inkscape:connector-curvature="0"
   style="opacity:0.2;fill:#ffffff;enable-background:new" />
			<path
   id="Tracé_1381"
   class="st5"
   d="m 496.8,957.9 c 0,1 0.3,2.1 0.9,2.9 1.4,0 3.4,-0.1 5.2,-0.1 h 0.4 c 0.3,0 0.7,0 1,0 0.2,0 0.3,0 0.5,0 1.5,-0.1 2.8,-1.1 3.5,-2.5 l 3.9,-8.8 -3.9,0.1 -2.1,6.1 c -0.4,1.3 -1.6,2.1 -3,2.1 z"
   inkscape:connector-curvature="0"
   style="opacity:0.2;fill:#ffffff;enable-background:new" />
			<path
   id="Tracé_1382"
   class="st0"
   d="m 490.7,927.7 h -0.3 c -0.4,0 -0.6,0.3 -0.6,0.7 0,0.6 0,1.6 0,2.1 0,1.2 -2.3,3.6 -2.7,3.7 -0.5,0.1 -21.6,-6.6 -21.6,-6.6 0,0 -0.4,-4.6 1.6,-5.5 2,-0.9 13,0.1 14,1 2.1,1.8 4.7,2.9 7.5,3.1 -0.1,0.1 2.1,0.6 2.1,1.5 z"
   inkscape:connector-curvature="0"
   style="fill:#2e353a" />
			<path
   id="Tracé_1383"
   class="st1"
   d="m 459.5,922.3 9.3,9 11,3.3 0.3,-2.3 -10.9,-7.7 c -0.3,-0.2 -0.5,-0.7 -0.3,-1.1 l 0.2,-0.5 c 0.2,-0.4 0.5,-0.6 0.9,-0.6 h 8.3 c 0,0 -1.8,-0.6 -3.3,-1.2 -1.5,-0.5 -12.1,0 -13.6,0 -0.6,0 -1.2,0.2 -1.7,0.6 0,0.1 -0.1,0.3 -0.2,0.5 z"
   inkscape:connector-curvature="0"
   style="fill:#407bff" />
			<path
   id="Tracé_1384"
   class="st0"
   d="m 517.1,912.2 c -2.6,-0.1 -4.8,-1.8 -5.8,-4.2 h -3.2 v 1.4 l -8.9,2.8 c 0,0 -0.2,1.5 0.4,1.8 l 9.7,-2.5 h 2.6 c 0,0 1.9,2.5 4.1,2.6 2.2,0 1.1,-1.9 1.1,-1.9 z"
   inkscape:connector-curvature="0"
   style="fill:#2e353a" />
			<path
   id="Tracé_1385"
   class="st0"
   d="m 510.7,910.3 v 2.1 c 0,0 -4.2,0.8 -5.7,2.4 v 0.5 h -0.5 v -0.5 c 0,0 0.4,-1 4.4,-2.8 v -1.7 z"
   inkscape:connector-curvature="0"
   style="fill:#2e353a" />
			<path
   id="Tracé_1386"
   class="st0"
   d="m 526.8,911.7 c 0.5,-1.1 0.7,-2.2 0.7,-3.4 h 2.5 l 0.5,1.3 5.5,4.1 c 0,0 0.4,1.3 -1.4,1.2 l -4.9,-3.3 0.3,1 c 1.1,0.6 2.1,1.4 3,2.3 0.7,1 -0.6,0.8 -0.6,0.8 l -0.1,-0.8 c -0.9,-0.9 -2.1,-1.4 -3.3,-1.6 z"
   inkscape:connector-curvature="0"
   style="fill:#2e353a" />
			<path
   id="Tracé_1387"
   class="st6"
   d="m 490.7,929 c 1.8,3.5 10.1,6.6 13.7,5.6 3.6,-1 10,-6.3 4.4,-8.3 -4.5,-1.6 -10.8,-4 -13.2,-5 -3.6,2.8 -5.3,5.6 -4.9,7.7 z"
   inkscape:connector-curvature="0"
   style="opacity:0.2;enable-background:new" />
			<path
   id="Tracé_1388"
   class="st6"
   d="m 469,923.4 0.2,-0.5 c 0.2,-0.4 0.5,-0.6 0.9,-0.6 h 8.3 c 0,0 -1.8,-0.6 -3.3,-1.2 -1.5,-0.5 -12.1,0 -13.6,0 -0.6,0 -1.2,0.2 -1.7,0.6 0,0 6.7,0.8 9.5,2.8 -0.3,-0.2 -0.5,-0.7 -0.3,-1.1 z"
   inkscape:connector-curvature="0"
   style="opacity:0.2;enable-background:new" />
			<path
   id="Tracé_1389"
   class="st0"
   d="m 492.9,957.7 -8.4,-0.7 c 0,0 -4.8,-1.7 -5.9,-1.7 -1.2,0 -12.5,-0.5 -12.5,-0.5 -0.8,0.6 -1.5,1.3 -2,2.2 -0.4,1.1 1.4,3.5 1.4,3.5 0,0 18,0.6 18.8,0.6 0.6,-0.1 1.2,-0.3 1.7,-0.6 l 6.9,-0.5 z"
   inkscape:connector-curvature="0"
   style="fill:#2e353a" />
			<path
   id="Tracé_1390"
   class="st5"
   d="m 492.9,957.7 -8.4,-0.7 c 0,0 -4.8,-1.7 -5.9,-1.7 -1.2,0 -12.5,-0.5 -12.5,-0.5 -0.8,0.6 -1.5,1.3 -2,2.2 -0.4,1.1 1.4,3.5 1.4,3.5 0,0 18,0.6 18.8,0.6 0.6,-0.1 1.2,-0.3 1.7,-0.6 l 6.9,-0.5 z"
   inkscape:connector-curvature="0"
   style="opacity:0.2;fill:#ffffff;enable-background:new" />
		</g>
	</g>
	<g
   id="vehicle_2"
   transform="translate(87.11,227.474)">
		<g
   id="Groupe_515">
			<g
   id="Groupe_512">
				<path
   id="Tracé_1391"
   d="m 508.7,977.5 -3.3,-9.3 h -6.5 l 0.4,9.3 h 1.2 l 0.5,-8.3 h 3.1 l 3.6,8.3 z"
   inkscape:connector-curvature="0" />
				<path
   id="Tracé_1392"
   class="st0"
   d="m 482.4,963.6 1.8,4.1 c 0.7,1.6 2.3,2.6 4,2.6 h 7.5 c 1,0 2,-0.4 2.7,-1.1 h 14.1 c 1.1,0 2.1,-0.5 2.8,-1.4 l 1.9,-2.6 z"
   inkscape:connector-curvature="0"
   style="fill:#2e353a" />
				<path
   id="Tracé_1393"
   class="st2"
   d="m 482.4,963.6 1.8,4.1 c 0.7,1.6 2.3,2.6 4,2.6 h 7.5 c 1,0 2,-0.4 2.7,-1.1 h 14.1 c 1.1,0 2.1,-0.5 2.8,-1.4 l 1.9,-2.6 z"
   inkscape:connector-curvature="0"
   style="opacity:0.4;enable-background:new" />
				<path
   id="Tracé_1394"
   class="st10"
   d="m 507.1,915.2 c 0.7,0.2 1.5,0.3 2.3,0.3 2.2,0.2 5.3,1.4 5.8,2.8"
   inkscape:connector-curvature="0"
   style="fill:none;stroke:#263238;stroke-width:0.66799998;stroke-linecap:round;stroke-linejoin:round" />
				<path
   id="Tracé_1395"
   class="st10"
   d="m 526,915.2 c 0,0 -1.1,-0.2 -1.4,0.8 -0.3,1 -0.4,1.6 -1.4,2.1"
   inkscape:connector-curvature="0"
   style="fill:none;stroke:#263238;stroke-width:0.66799998;stroke-linecap:round;stroke-linejoin:round" />
				<g
   id="Groupe_498"
   transform="translate(0,41.667)">
					<path
   id="Tracé_1396"
   class="st0"
   d="m 457.5,918.2 h 0.9 v -1.3 h -1.7 c -0.1,0.6 0.3,1.1 0.8,1.3 z"
   inkscape:connector-curvature="0"
   style="fill:#2e353a" />
					<g
   id="Groupe_497"
   transform="translate(2.673)">
						<ellipse
   id="Ellipse_266"
   class="st0"
   cx="468.10001"
   cy="921.90002"
   rx="11.6"
   ry="13.9"
   style="fill:#2e353a" />
						<ellipse
   id="Ellipse_267"
   class="st2"
   cx="468.10001"
   cy="921.90002"
   rx="11.6"
   ry="13.9"
   style="opacity:0.4;enable-background:new" />
						<ellipse
   id="Ellipse_268"
   cx="466.20001"
   cy="921.90002"
   rx="7.3000002"
   ry="8.8000002" />
						<g
   id="Groupe_496"
   transform="translate(4.91,10.159)">
							<path
   id="Tracé_1397"
   class="st1"
   d="m 459.6,908 c -1.7,0 -3,1.6 -3,3.7 0,2 1.4,3.7 3,3.7 1.7,0 3,-1.6 3,-3.7 0.1,-2.1 -1.3,-3.7 -3,-3.7 z"
   inkscape:connector-curvature="0"
   style="fill:#407bff" />
							<path
   id="Tracé_1398"
   class="st2"
   d="m 459.6,908 c -1.7,0 -3,1.6 -3,3.7 0,2 1.4,3.7 3,3.7 1.7,0 3,-1.6 3,-3.7 0.1,-2.1 -1.3,-3.7 -3,-3.7 z"
   inkscape:connector-curvature="0"
   style="opacity:0.4;enable-background:new" />
						</g>
					</g>
					<path
   id="Tracé_1399"
   class="st0"
   d="m 458.6,914.8 c 0,0 -1.3,2.8 0,5.1 3.9,1.9 8.2,2.9 12.5,3 6.8,0 -2.1,-8.8 -12.5,-8.1 z"
   inkscape:connector-curvature="0"
   style="fill:#2e353a" />
					<path
   id="Tracé_1400"
   class="st5"
   d="m 458.6,914.8 c 0,0 -1.3,2.8 0,5.1 3.9,1.9 8.2,2.9 12.5,3 6.8,0 -2.1,-8.8 -12.5,-8.1 z"
   inkscape:connector-curvature="0"
   style="opacity:0.2;fill:#ffffff;enable-background:new" />
				</g>
				<path
   id="Tracé_1401"
   class="st7"
   d="m 463.3,938.8 c 0,0 -1.1,0.3 -1.1,2.9 0.2,1.2 0.7,2.2 1.5,3.1 0,-0.1 2.5,-6.1 -0.4,-6 z"
   inkscape:connector-curvature="0"
   style="fill:#263238" />
				<path
   id="Tracé_1402"
   class="st8"
   d="m 463.3,938.8 c 0,0 -1.1,0.3 -1.1,2.9 0.2,1.2 0.7,2.2 1.5,3.1 0,-0.1 2.5,-6.1 -0.4,-6 z"
   inkscape:connector-curvature="0"
   style="opacity:0.7;fill:#ffffff;enable-background:new" />
				<path
   id="Tracé_1403"
   class="st7"
   d="m 468.3,938.1 h -5.5 c 0,0 -0.9,1.5 1.4,3.2 2.3,1.7 4.1,-3.2 4.1,-3.2 z"
   inkscape:connector-curvature="0"
   style="fill:#263238" />
				<path
   id="Tracé_1404"
   class="st9"
   d="m 462.5,941 c 0,0.5 0.2,0.9 0.3,0.9 0.1,0 0.3,-0.4 0.3,-0.9 0,-0.5 -0.2,-0.9 -0.3,-0.9 -0.1,0 -0.3,0.4 -0.3,0.9 z"
   inkscape:connector-curvature="0"
   style="fill:#ffffff" />
				<g
   id="Groupe_499"
   transform="translate(16.161,24.592)">
					<path
   id="Tracé_1405"
   class="st1"
   d="m 477.7,922.6 c 0,2 7.9,16.1 8.7,16.6 0.8,0.5 11.1,-0.1 11.1,-0.1 l -0.8,2.9 h -28.3 l -11.8,-22.8 7.8,-11.2 14.2,0.4 c -0.1,0 -0.9,12.2 -0.9,14.2 z"
   inkscape:connector-curvature="0"
   style="fill:#407bff" />
					<path
   id="Tracé_1406"
   class="st11"
   d="m 477.7,922.6 c 0,2 7.9,16.1 8.7,16.6 0.8,0.5 11.1,-0.1 11.1,-0.1 l -0.8,2.9 h -28.3 l -11.8,-22.8 7.8,-11.2 14.2,0.4 c -0.1,0 -0.9,12.2 -0.9,14.2 z"
   inkscape:connector-curvature="0"
   style="opacity:0.5;fill:#ffffff;enable-background:new" />
				</g>
				<g
   id="Groupe_500"
   transform="translate(47.476,29.829)">
					<path
   id="Tracé_1407"
   class="st1"
   d="m 487.7,912.7 c 0,0 -9.2,7.1 -13.6,21.6 -0.5,1.7 -2.1,2.9 -3.9,2.9 h -13.6 l 15.8,-25.7 8.3,-3.5 z"
   inkscape:connector-curvature="0"
   style="fill:#407bff" />
					<path
   id="Tracé_1408"
   class="st5"
   d="m 488.8,911.9 c -6.9,5.9 -12,13.7 -14.7,22.4 -0.5,1.7 -2.1,2.9 -3.8,2.9 h -13.6 l 15.8,-25.7 8.3,-3.5 z"
   inkscape:connector-curvature="0"
   style="opacity:0.2;fill:#ffffff;enable-background:new" />
				</g>
				<path
   id="Tracé_1409"
   class="st1"
   d="m 456.9,955.1 c 0.1,0.6 0.5,1 1.1,1 h 2 c 0.4,0 0.7,0.2 1,0.4 l 6,6.6 c 0.2,0.2 0.4,0.4 0.6,0.5 4,2.2 8.5,3.4 13,3.4 h 28 c 1.5,0 2.8,-1.2 2.9,-2.7 0.7,-8.1 5.6,-14 9.7,-17.7 1.3,-1.2 2.7,-2.2 4.2,-3.2 1,-0.7 2.2,-1 3.4,-1 h 6.4 c 0.8,-0.1 1.3,-0.8 1.2,-1.6 0,-0.1 0,-0.2 -0.1,-0.2 -1.3,-3.4 -2.9,-6.7 -5,-9.7 -1.8,-2.7 -3.7,-5.2 -5.7,-7.6 h -9 c -0.9,0 -1.8,0.5 -2.3,1.3 -0.5,0.7 -0.7,1.5 -0.5,2.3 0.6,3.7 0.6,7.5 0.1,11.2 -1.3,11 -6.2,21 -8.7,25.5 -0.9,1.7 -2.6,2.7 -4.5,2.8 h -7 c -5.1,-1.5 -9.1,-15.8 -9.1,-19.5 0,-4 4,-13.6 4,-13.6 h -20.1 v 4.8 c -0.4,0 -0.2,0.1 -0.3,0.1 -7.7,3.1 -10.4,11 -11.3,15.6 -0.1,0.3 -0.1,0.8 0,1.3 z"
   inkscape:connector-curvature="0"
   style="fill:#407bff" />
				<path
   id="Tracé_1410"
   class="st8"
   d="m 468.3,938.1 c 0.1,-0.1 -0.1,-0.1 0.3,-0.1 v -4.8 h 20.1 c 0,0 -4,9.6 -4,13.6 0,3.7 4,18.1 9.1,19.5 h 7 c 1.9,0 3.6,-1.1 4.5,-2.8 2.6,-4.6 7.4,-14.5 8.7,-25.5 0.5,-3.7 0.4,-7.5 -0.1,-11.2 -0.1,-0.8 0.1,-1.6 0.5,-2.3 0.5,-0.8 1.4,-1.2 2.3,-1.3 h 9 c 2.1,2.4 4,5 5.7,7.6 2.1,3 3.7,6.2 5,9.7 0.2,0.7 -0.2,1.5 -0.9,1.8 -0.1,0 -0.1,0 -0.2,0.1 h -6.4 c -1.2,0 -2.4,0.3 -3.4,1 -1.5,1 -2.8,2 -4.2,3.2 -4.1,3.6 -9,9.6 -9.7,17.7 -0.1,1.5 -1.4,2.7 -2.9,2.7 h -23.3 v -8.9 c 0,-2.6 -0.6,-5.2 -1.7,-7.5 l -3.3,-7.1 c -1.5,-3.3 -4.9,-5.4 -8.5,-5.4 h -3.1 -0.5 c -0.7,0.3 -0.8,0.3 0,0 z"
   inkscape:connector-curvature="0"
   style="opacity:0.7;fill:#ffffff;enable-background:new" />
				<g
   id="Groupe_501"
   transform="translate(42.837,5.603)">
					<path
   id="Tracé_1411"
   class="st0"
   d="m 478,914.7 h -2.6 c -0.7,0 -1.3,-0.2 -1.9,-0.7 l -5.3,-4.3 c -0.2,-0.2 -0.5,-0.3 -0.7,-0.3 h -10.2 c -0.4,0 -0.7,-0.4 -0.7,-0.8 0,-0.4 0.3,-0.7 0.7,-0.7 h 10.2 c 0.6,0 1.2,0.2 1.7,0.6 l 5.3,4.3 c 0.3,0.2 0.6,0.3 0.9,0.3 h 2.6 c 0.7,0 1.4,-0.5 1.5,-1.3 l 0.2,-1.7 c 0.2,-1.3 1.3,-2.3 2.6,-2.3 h 1.9 c 0.4,0 0.7,0.3 0.7,0.7 0,0.4 -0.3,0.7 -0.7,0.7 v 0 h -1.9 c -0.6,0 -1.1,0.4 -1.2,1 l -0.2,1.7 c -0.2,1.7 -1.5,2.8 -2.9,2.8 z"
   inkscape:connector-curvature="0"
   style="fill:#2e353a" />
				</g>
				<g
   id="Groupe_502"
   transform="translate(57.463,9.156)">
					<path
   id="Tracé_1412"
   class="st7"
   d="m 456.9,913.1 1.1,1.8 h 10.7 l 0.8,-1.6 c 0.3,-0.5 0.2,-1.2 -0.2,-1.6 l -3.2,-3.2 c -0.1,-0.1 -0.3,-0.2 -0.4,-0.3 -0.1,0 -0.2,-0.1 -0.2,-0.1 -0.2,-0.1 -0.4,-0.1 -0.6,-0.1 h -6.1 c 0,0 0,1.7 -1.6,1.6 l -0.5,1.9 c -0.2,0.5 -0.1,1.1 0.2,1.6 z"
   inkscape:connector-curvature="0"
   style="fill:#263238" />
					<path
   id="Tracé_1413"
   class="st12"
   d="m 462.8,910.3 3.4,-0.1 -0.5,-2 c -0.1,0 -0.2,-0.1 -0.2,-0.1 -0.2,-0.1 -0.4,-0.1 -0.6,-0.1 h -5.3 z"
   inkscape:connector-curvature="0"
   style="opacity:0.4;fill:#ffffff;enable-background:new" />
				</g>
				<path
   id="Tracé_1414"
   class="st0"
   d="m 496.5,932.7 v 1.4 c 0,1.2 -1,2.1 -2.2,2.1 0,0 -0.1,0 -0.1,0 h -24.9 c -1.2,0.1 -2.2,-0.8 -2.3,-1.9 0,0 0,-0.1 0,-0.1 v -1.4 c 0,-1.2 1,-2.1 2.1,-2.1 0,0 0.1,0 0.1,0 h 24.9 c 1.2,-0.1 2.2,0.8 2.3,1.9 0.1,0 0.1,0 0.1,0.1 z"
   inkscape:connector-curvature="0"
   style="fill:#2e353a" />
				<path
   id="Tracé_1415"
   class="st3"
   d="m 488.4,932.7 v 1.4 c 0.1,1.1 -0.8,2 -1.9,2.1 -0.1,0 -0.2,0 -0.2,0 h -16.9 c -1.2,0.1 -2.2,-0.8 -2.3,-1.9 0,0 0,-0.1 0,-0.1 v -1.4 c 0,-1.2 1,-2.1 2.1,-2.1 0,0 0.1,0 0.1,0 h 16.9 c 1.1,-0.1 2,0.7 2.1,1.8 0.1,0 0.1,0.1 0.1,0.2 z"
   inkscape:connector-curvature="0"
   style="opacity:0.1;fill:#ffffff;enable-background:new" />
				<g
   id="Groupe_503"
   transform="translate(48.897,0.635)">
					
						<rect
   id="Rectangle_615"
   x="458.5"
   y="907.5"
   transform="matrix(0.7944,-0.6075,0.6075,0.7944,-458.9207,466.0582)"
   class="st0"
   width="0.69999999"
   height="6.5999999"
   style="fill:#2e353a" />
				</g>
				<path
   id="Tracé_1416"
   class="st7"
   d="m 503.7,908 h 1.9 c 0.4,0 0.8,0.2 0.9,0.6 l 0.3,0.6 c 0.2,0.5 0,1.1 -0.5,1.3 -0.1,0.1 -0.3,0.1 -0.4,0.1 h -2 c -0.5,0 -0.9,-0.4 -1,-0.9 l -0.1,-0.6 c -0.1,-0.5 0.3,-1 0.8,-1.1 0,0 0,0 0.1,0 z"
   inkscape:connector-curvature="0"
   style="fill:#263238" />
				<g
   id="Groupe_504"
   transform="translate(67.218,1.457)">
					
						<rect
   id="Rectangle_616"
   x="455.10001"
   y="910"
   transform="matrix(0.206,-0.9785,0.9785,0.206,-527.6687,1170.4716)"
   class="st0"
   width="4.8000002"
   height="0.69999999"
   style="fill:#2e353a" />
				</g>
				<path
   id="Tracé_1417"
   class="st7"
   d="m 527.4,908 h -2 c -0.4,0 -0.8,0.3 -0.8,0.7 l -0.1,0.9 c -0.1,0.4 0.2,0.9 0.7,0.9 0,0 0.1,0 0.1,0 h 2 c 0.4,0 0.8,-0.3 0.8,-0.7 l 0.1,-0.9 c 0.1,-0.4 -0.2,-0.9 -0.7,-0.9 -0.1,0 -0.1,0 -0.1,0 z"
   inkscape:connector-curvature="0"
   style="fill:#263238" />
				<g
   id="Groupe_505"
   transform="translate(57.199,16.53)">
					<path
   id="Tracé_1418"
   class="st1"
   d="m 456.9,912.5 c 0.2,2.2 0.2,4.4 0.1,6.5 -0.1,0.8 -0.1,1.6 -0.2,2.4 l 3.2,6.2 c 0.8,1.5 2.3,2.4 4,2.4 v 0 0 c 0.2,-0.2 0.3,-0.3 0.5,-0.4 1.1,-1 2.3,-1.9 3.5,-2.7 1,-0.7 2.3,-1.1 3.5,-1.1 h 6.4 c 0.8,-0.1 1.3,-0.8 1.2,-1.6 0,-0.1 0,-0.2 -0.1,-0.2 -1.3,-3.4 -2.9,-6.7 -5,-9.7 -0.1,3.5 0.2,6.9 0.8,10.4 h -3.1 c 0,0 -5.6,-8 -10.5,-9.5 l -4.3,-7.2 c -0.5,0.7 -0.7,1.5 -0.5,2.3 0.3,0.7 0.4,1.4 0.5,2.2 z"
   inkscape:connector-curvature="0"
   style="fill:#407bff" />
					<path
   id="Tracé_1419"
   class="st11"
   d="m 456.9,912.5 c 0.2,2.2 0.2,4.4 0.1,6.5 -0.1,0.8 -0.1,1.6 -0.2,2.4 l 3.2,6.2 c 0.8,1.5 2.3,2.4 4,2.4 v 0 0 c 0.2,-0.2 0.3,-0.3 0.5,-0.4 1.1,-1 2.3,-1.9 3.5,-2.7 1,-0.7 2.3,-1.1 3.5,-1.1 h 6.4 c 0.8,-0.1 1.3,-0.8 1.2,-1.6 0,-0.1 0,-0.2 -0.1,-0.2 -1.3,-3.4 -2.9,-6.7 -5,-9.7 -0.1,3.5 0.2,6.9 0.8,10.4 h -3.1 c 0,0 -5.6,-8 -10.5,-9.5 l -4.3,-7.2 c -0.5,0.7 -0.7,1.5 -0.5,2.3 0.3,0.7 0.4,1.4 0.5,2.2 z"
   inkscape:connector-curvature="0"
   style="opacity:0.5;fill:#ffffff;enable-background:new" />
					<path
   id="Tracé_1420"
   class="st1"
   d="m 475,916.6 c -0.2,2.3 0.1,4.6 0.8,6.8 h 2.7 c 0,-0.1 -1.8,-4.7 -3.5,-6.8 z"
   inkscape:connector-curvature="0"
   style="fill:#407bff" />
					<path
   id="Tracé_1421"
   class="st8"
   d="m 475,916.6 c -0.2,2.3 0.1,4.6 0.8,6.8 h 2.7 c 0,-0.1 -1.8,-4.7 -3.5,-6.8 z"
   inkscape:connector-curvature="0"
   style="opacity:0.7;fill:#ffffff;enable-background:new" />
					<path
   id="Tracé_1422"
   class="st1"
   d="m 462.4,916.6 c -0.1,-0.1 2.7,7.2 2.7,7.2 h 4 c -1.5,-3 -3.8,-5.5 -6.7,-7.2 z"
   inkscape:connector-curvature="0"
   style="fill:#407bff" />
					<path
   id="Tracé_1423"
   class="st8"
   d="m 462.4,916.6 c -0.1,-0.1 2.7,7.2 2.7,7.2 h 4 c -1.5,-3 -3.8,-5.5 -6.7,-7.2 z"
   inkscape:connector-curvature="0"
   style="opacity:0.7;fill:#ffffff;enable-background:new" />
					<path
   id="Tracé_1424"
   class="st9"
   d="m 464.8,921.8 c 0.2,0.7 0.9,1.1 1.6,0.9 0.7,-0.2 1.1,-0.9 0.9,-1.6 -0.1,-0.6 -0.7,-1 -1.3,-1 -0.7,0.2 -1.3,0.9 -1.2,1.7 z"
   inkscape:connector-curvature="0"
   style="fill:#ffffff" />
					<path
   id="Tracé_1425"
   class="st9"
   d="m 475.5,921.3 c 0,0.9 0.4,1.6 0.9,1.6 0.5,0 0.9,-0.7 0.9,-1.6 0,-0.9 -0.4,-1.6 -0.9,-1.6 -0.5,0 -0.9,0.7 -0.9,1.6 z"
   inkscape:connector-curvature="0"
   style="fill:#ffffff" />
					<path
   id="Tracé_1426"
   class="st9"
   d="m 463.6,919.4 c 0.1,0.3 0.4,0.6 0.8,0.5 0.3,-0.1 0.6,-0.4 0.5,-0.8 -0.1,-0.3 -0.3,-0.5 -0.6,-0.5 -0.4,0 -0.7,0.4 -0.7,0.8 z"
   inkscape:connector-curvature="0"
   style="fill:#ffffff" />
					<path
   id="Tracé_1427"
   class="st9"
   d="m 475.2,919 c 0,0.4 0.2,0.8 0.4,0.8 0.2,0 0.4,-0.4 0.4,-0.8 0,-0.4 -0.2,-0.8 -0.4,-0.8 -0.2,0 -0.4,0.3 -0.4,0.8 z"
   inkscape:connector-curvature="0"
   style="fill:#ffffff" />
				</g>
				<g
   id="Groupe_507"
   transform="translate(63.45,15.202)">
					<g
   id="Groupe_506">
						<path
   id="Tracé_1428"
   class="st1"
   d="m 456.6,909.3 c 0,0 1.9,12 8.2,12.1 5.9,0.1 6.5,-11.2 0.8,-12.9 -3,-0.8 -6.2,-0.5 -9,0.8 z"
   inkscape:connector-curvature="0"
   style="fill:#407bff" />
						<path
   id="Tracé_1429"
   class="st7"
   d="m 456.6,909.3 c 0,0 1.9,12 8.2,12.1 5.9,0.1 6.5,-11.2 0.8,-12.9 -3,-0.8 -6.2,-0.5 -9,0.8 z"
   inkscape:connector-curvature="0"
   style="fill:#263238" />
					</g>
					
						<ellipse
   id="Ellipse_269"
   transform="matrix(0.9928,-0.1194,0.1194,0.9928,-105.9121,62.0472)"
   class="st1"
   cx="464.79999"
   cy="914.79999"
   rx="4.3000002"
   ry="5.5"
   style="fill:#407bff" />
					
						<ellipse
   id="Ellipse_270"
   transform="matrix(0.9928,-0.1194,0.1194,0.9928,-105.9121,62.0472)"
   class="st8"
   cx="464.79999"
   cy="914.79999"
   rx="4.3000002"
   ry="5.5"
   style="opacity:0.7;fill:#ffffff;enable-background:new" />
					<path
   id="Tracé_1430"
   class="st9"
   d="m 463.7,916.3 c 0.3,1 1.3,1.7 2.4,1.4 1,-0.3 1.7,-1.3 1.4,-2.4 -0.2,-0.9 -1,-1.5 -1.9,-1.5 -1.2,0.2 -2,1.3 -1.9,2.5 z"
   inkscape:connector-curvature="0"
   style="fill:#ffffff" />
					<path
   id="Tracé_1431"
   class="st9"
   d="m 462.1,913.1 c 0.1,0.5 0.7,0.8 1.2,0.7 0.5,-0.1 0.8,-0.7 0.7,-1.2 -0.1,-0.4 -0.5,-0.7 -0.9,-0.7 -0.6,0 -1,0.6 -1,1.2 z"
   inkscape:connector-curvature="0"
   style="fill:#ffffff" />
				</g>
				<path
   id="Tracé_1432"
   class="st1"
   d="m 457.2,952.6 h 1.9 c 0.3,0 0.6,0.3 0.6,0.6 v 0 1.1 c 0,0.3 -0.3,0.6 -0.6,0.6 0,0 0,0 0,0 h -2.2 c -0.3,-0.9 -0.1,-1.7 0.3,-2.3 z"
   inkscape:connector-curvature="0"
   style="fill:#407bff" />
				<path
   id="Tracé_1433"
   class="st8"
   d="m 457.2,952.6 h 1.9 c 0.3,0 0.6,0.3 0.6,0.6 v 0 1.1 c 0,0.3 -0.3,0.6 -0.6,0.6 0,0 0,0 0,0 h -2.2 c -0.3,-0.9 -0.1,-1.7 0.3,-2.3 z"
   inkscape:connector-curvature="0"
   style="opacity:0.7;fill:#ffffff;enable-background:new" />
				<path
   id="Tracé_1434"
   class="st0"
   d="m 505.5,913.6 c 0,0 0.1,-0.4 1,-0.4 0.9,0 1.3,1.4 1.3,1.4 l -0.4,1.2 h -1.3 l -0.6,-0.2 c 0,0 -2.3,0.6 -2.6,1 -0.3,0.4 -0.5,0.5 -0.4,0 0.1,-0.5 2.6,-1.5 2.6,-1.5 z"
   inkscape:connector-curvature="0"
   style="fill:#2e353a" />
				<path
   id="Tracé_1435"
   class="st0"
   d="m 524.4,913.7 c 0.1,-0.3 0.4,-0.5 0.7,-0.5 0.4,-0.1 0.8,0.2 0.9,0.7 0,0 0,0.1 0,0.1 0,0.3 0,0.6 0,0.9 l 0.5,0.4 c 0,0 1.6,0.8 1.7,0.9 0.1,0.1 0.2,0.5 -0.1,0.5 -0.4,-0.2 -0.8,-0.4 -1.2,-0.7 -0.4,-0.2 -0.9,-0.3 -1.4,-0.3 l -1,-0.6 z"
   inkscape:connector-curvature="0"
   style="fill:#2e353a" />
				<g
   id="Groupe_511"
   transform="translate(61.978,34.388)">
					<g
   id="Groupe_508"
   transform="translate(10.759)">
						<path
   id="Tracé_1436"
   class="st1"
   d="m 459.2,908.2 6.4,20.7 -1.6,1 -6.4,-20.1 z"
   inkscape:connector-curvature="0"
   style="fill:#407bff" />
						<path
   id="Tracé_1437"
   class="st4"
   d="m 459.2,908.2 6.4,20.7 -1.6,1 -6.4,-20.1 z"
   inkscape:connector-curvature="0"
   style="opacity:0.6;fill:#ffffff;enable-background:new" />
						<path
   id="Tracé_1438"
   class="st0"
   d="m 456.6,908 2.7,8.5 h 0.5 c 0.9,-1.1 1.7,-1 1.7,-1 l 0.3,-0.5 -2,-7 z"
   inkscape:connector-curvature="0"
   style="fill:#2e353a" />
						<path
   id="Tracé_1439"
   class="st0"
   d="m 463.2,928.6 c 0,1.1 0.6,1.9 1.4,1.9 0.8,0 1.4,-0.9 1.4,-1.9 0,-1.1 -0.6,-1.9 -1.4,-1.9 -0.8,0 -1.4,0.9 -1.4,1.9 z"
   inkscape:connector-curvature="0"
   style="fill:#2e353a" />
					</g>
					<ellipse
   id="Ellipse_271"
   class="st0"
   cx="472.60001"
   cy="929.20001"
   rx="11.6"
   ry="13.9"
   style="fill:#2e353a" />
					<ellipse
   id="Ellipse_272"
   class="st2"
   cx="472.60001"
   cy="929.20001"
   rx="11.6"
   ry="13.9"
   style="opacity:0.4;enable-background:new" />
					<path
   id="Tracé_1440"
   class="st7"
   d="m 456.6,928 h 2.7 c 0.8,0 1.5,-0.4 1.8,-1.1 1.4,-2.7 5.6,-9.6 11.5,-11.3 7.3,-2.1 -4,-3.4 -8,-0.5 -4,2.9 -8,12.9 -8,12.9 z"
   inkscape:connector-curvature="0"
   style="fill:#263238" />
					<path
   id="Tracé_1441"
   class="st2"
   d="m 456.6,928 h 2.7 c 0.8,0 1.5,-0.4 1.8,-1.1 1.4,-2.7 5.6,-9.6 11.5,-11.3 7.3,-2.1 -4,-3.4 -8,-0.5 -4,2.9 -8,12.9 -8,12.9 z"
   inkscape:connector-curvature="0"
   style="opacity:0.4;enable-background:new" />
					<ellipse
   id="Ellipse_273"
   cx="470.70001"
   cy="929.20001"
   rx="7.3000002"
   ry="8.8000002" />
					<g
   id="Groupe_509"
   transform="translate(9.363,17.439)">
						<path
   id="Tracé_1442"
   class="st1"
   d="m 459.6,908 c -1.7,0 -3,1.6 -3,3.7 0,2 1.4,3.7 3,3.7 1.6,0 3,-1.6 3,-3.7 0.1,-2.1 -1.3,-3.7 -3,-3.7 z"
   inkscape:connector-curvature="0"
   style="fill:#407bff" />
						<path
   id="Tracé_1443"
   class="st2"
   d="m 459.6,908 c -1.7,0 -3,1.6 -3,3.7 0,2 1.4,3.7 3,3.7 1.6,0 3,-1.6 3,-3.7 0.1,-2.1 -1.3,-3.7 -3,-3.7 z"
   inkscape:connector-curvature="0"
   style="opacity:0.4;enable-background:new" />
					</g>
					<path
   id="Tracé_1444"
   class="st1"
   d="m 481.9,920.5 h -1.3 c -1.1,0 -2.1,-0.4 -3,-1 -2,-1.5 -6.2,-4 -10.6,-2.5 -5.1,1.7 -8.5,8.3 -9.5,10.4 -0.2,0.4 -0.6,0.6 -1,0.6 v 0 c 0,0 1.6,-13 10.5,-16.6 8.6,-3.4 14.5,3.8 15.8,7.7 0.2,0.5 -0.1,1.1 -0.6,1.2 -0.1,0.2 -0.2,0.2 -0.3,0.2 z"
   inkscape:connector-curvature="0"
   style="fill:#407bff" />
					<path
   id="Tracé_1445"
   class="st11"
   d="m 481.9,920.5 h -1.3 c -1.1,0 -2.1,-0.4 -3,-1 -2,-1.5 -6.2,-4 -10.6,-2.5 -5.1,1.7 -8.5,8.3 -9.5,10.4 -0.2,0.4 -0.6,0.6 -1,0.6 v 0 c 0,0 1.6,-13 10.5,-16.6 8.6,-3.4 14.5,3.8 15.8,7.7 0.2,0.5 -0.1,1.1 -0.6,1.2 -0.1,0.2 -0.2,0.2 -0.3,0.2 z"
   inkscape:connector-curvature="0"
   style="opacity:0.5;fill:#ffffff;enable-background:new" />
					<g
   id="Groupe_510"
   transform="translate(4.274,0.954)">
						<path
   id="Tracé_1446"
   class="st1"
   d="m 457,909.6 1.9,6 4.3,13.4 1.6,-1 -4.1,-13.4 -1.9,-6.2 c -0.6,0.3 -1.2,0.7 -1.8,1.2 z"
   inkscape:connector-curvature="0"
   style="fill:#407bff" />
						<path
   id="Tracé_1447"
   class="st4"
   d="m 457,909.6 1.9,6 4.3,13.4 1.6,-1 -4.1,-13.4 -1.9,-6.2 c -0.6,0.3 -1.2,0.7 -1.8,1.2 z"
   inkscape:connector-curvature="0"
   style="opacity:0.6;fill:#ffffff;enable-background:new" />
						<path
   id="Tracé_1448"
   class="st0"
   d="m 456.6,909.9 1.8,5.7 h 0.5 c 0.9,-1.1 1.7,-1 1.7,-1 l 0.3,-0.5 -1.7,-6.1 c 0,0 -0.1,0 -0.1,0.1 -0.1,0.1 -0.3,0.2 -0.4,0.3 -0.5,0.4 -1.1,0.8 -1.7,1.3 z"
   inkscape:connector-curvature="0"
   style="fill:#2e353a" />
						<path
   id="Tracé_1449"
   class="st0"
   d="m 462.3,927.7 c 0,1.1 0.6,1.9 1.4,1.9 0.8,0 1.4,-0.9 1.4,-1.9 0,-1.1 -0.6,-1.9 -1.4,-1.9 -0.8,0 -1.4,0.8 -1.4,1.9 z"
   inkscape:connector-curvature="0"
   style="fill:#2e353a" />
					</g>
				</g>
				<path
   id="Tracé_1450"
   class="st11"
   d="m 456.9,955.1 c 0.1,0.6 0.5,1 1.1,1 h 2 c 0.4,0 0.7,0.2 1,0.4 l 6,6.6 c 0.2,0.2 0.4,0.4 0.6,0.5 4,2.2 8.5,3.4 13,3.4 h 4.7 v -8.9 c 0,-2.6 -0.6,-5.2 -1.7,-7.5 l -3.3,-7.1 c -1.5,-3.3 -4.9,-5.4 -8.5,-5.4 h -3.1 -0.4 c -3,1.2 -5.5,3.2 -7.3,5.9 -0.2,0.3 -0.4,0.5 -0.5,0.8 -0.5,0.8 -1,1.7 -1.5,2.6 -0.4,0.7 -0.7,1.5 -0.9,2.3 -0.5,1.3 -0.8,2.6 -1.1,4 -0.1,0.4 -0.2,0.9 -0.1,1.4 z"
   inkscape:connector-curvature="0"
   style="opacity:0.5;fill:#ffffff;enable-background:new" />
			</g>
			<g
   id="Groupe_514"
   transform="translate(16.207,8.937)">
				<path
   id="Tracé_1451"
   class="st1"
   d="m 469.8,910.7 c 0.1,0.2 0.2,0.3 0.3,0.5 0.1,0.2 0.1,0.5 0.2,0.7 0.6,2.2 0.9,4.7 0.1,6.9 -0.3,1.1 -1.1,2 -2.1,2.5 -0.9,0.1 -1.8,0.2 -2.6,0.1 l -2.8,0.1 c -0.2,0 -0.4,0 -0.5,-0.1 -0.2,-0.1 -0.3,-0.2 -0.4,-0.4 -0.5,-0.7 -1,-1.4 -1.4,-2.1 -0.5,-0.7 -0.8,-1.6 -1,-2.4 -0.1,-1.1 0,-2.1 0.5,-3.1 0.5,-1.3 1.4,-2.4 2.7,-3.1 0.3,-0.2 0.7,-0.3 1.1,-0.4 1.2,-0.3 4.8,-0.8 5.9,0.8 z"
   inkscape:connector-curvature="0"
   style="fill:#407bff" />
				<path
   id="Tracé_1452"
   class="st2"
   d="m 469.8,910.7 c 0.1,0.2 0.2,0.3 0.3,0.5 0.1,0.2 0.1,0.5 0.2,0.7 0.6,2.2 0.9,4.7 0.1,6.9 -0.3,1.1 -1.1,2 -2.1,2.5 -0.9,0.1 -1.8,0.2 -2.6,0.1 l -2.8,0.1 c -0.2,0 -0.4,0 -0.5,-0.1 -0.2,-0.1 -0.3,-0.2 -0.4,-0.4 -0.5,-0.7 -1,-1.4 -1.4,-2.1 -0.5,-0.7 -0.8,-1.6 -1,-2.4 -0.1,-1.1 0,-2.1 0.5,-3.1 0.5,-1.3 1.4,-2.4 2.7,-3.1 0.3,-0.2 0.7,-0.3 1.1,-0.4 1.2,-0.3 4.8,-0.8 5.9,0.8 z"
   inkscape:connector-curvature="0"
   style="opacity:0.4;enable-background:new" />
				<path
   id="Tracé_1453"
   class="st13"
   d="m 462.8,917.9 c -0.1,-0.8 -0.9,-1.3 -1.7,-1.1 -1,0.2 -1.3,2.3 1.3,2.6 0.4,-0.1 0.6,-0.5 0.4,-1.5 z"
   inkscape:connector-curvature="0"
   style="fill:#e4897b" />
				<path
   id="Tracé_1454"
   class="st7"
   d="m 460.9,909.9 c 0,0 4.4,-1.7 8,0.3 3.5,2.1 -5,3.7 -5,3.7 l 1.9,-1.5 c 0,0 -2.5,1.4 -3.7,1.3 z"
   inkscape:connector-curvature="0"
   style="fill:#263238" />
				<g
   id="Groupe_513"
   transform="translate(6.452,11.207)">
					<path
   id="Tracé_1455"
   class="st7"
   d="m 463.8,908 c -0.2,0.9 -0.9,1.6 -1.7,1.8 -2,0.5 -5.3,-1.2 -5.3,-1.2 l -0.2,0.9 c 0,0 3.3,1.4 5.5,0.9 1.2,-0.1 2.1,-1.6 1.7,-2.4 z"
   inkscape:connector-curvature="0"
   style="fill:#263238" />
					<path
   id="Tracé_1456"
   class="st7"
   d="m 461.3,910.6 0.1,-0.7 c 0.3,-0.2 0.7,-0.3 1,-0.5 0.2,-0.1 0.4,-0.1 0.7,0 0,0.4 -0.2,0.8 -0.5,1 -0.4,0.2 -0.9,0.3 -1.3,0.2 z"
   inkscape:connector-curvature="0"
   style="fill:#263238" />
					<path
   id="Tracé_1457"
   class="st11"
   d="m 461.3,910.6 0.1,-0.7 c 0.3,-0.2 0.7,-0.3 1,-0.5 0.2,-0.1 0.4,-0.1 0.7,0 0,0.4 -0.2,0.8 -0.5,1 -0.4,0.2 -0.9,0.3 -1.3,0.2 z"
   inkscape:connector-curvature="0"
   style="opacity:0.5;fill:#ffffff;enable-background:new" />
				</g>
				<path
   id="Tracé_1458"
   class="st1"
   d="m 457.7,919.4 c 1.6,2.2 4.2,3.5 5.6,1.9 1.4,-1.7 -0.6,-7.9 -0.6,-7.9 2.2,-1.2 4.8,-1.8 7.3,-1.7 -0.3,-2.5 -3.5,-5 -9,-2.8 -1.7,0.6 -3.1,1.9 -3.8,3.5 -0.1,0.2 -0.1,0.3 -0.2,0.5 -0.1,0.3 -0.2,0.7 -0.3,1.1 -0.1,0.4 -0.1,0.8 -0.1,1.2 -0.1,1.4 0.3,2.9 1.1,4.2 z"
   inkscape:connector-curvature="0"
   style="fill:#407bff" />
				<path
   id="Tracé_1459"
   class="st7"
   d="m 469.9,910.7 c -2.7,-0.3 -5.5,0.3 -7.9,1.6 -0.2,0.7 -0.4,1.4 -0.5,2.1 0,0.5 9.9,-1.6 10.4,-2.3 0.5,-0.7 -1.4,-0.6 -1.4,-0.6 z"
   inkscape:connector-curvature="0"
   style="fill:#263238" />
			</g>
		</g>
	</g>
	<g
   id="Character"
   transform="translate(61.702,194.561)">
		<g
   id="Groupe_520">
			<g
   id="Groupe_517"
   transform="translate(4.112)">
				<path
   id="Tracé_1460"
   class="st13"
   d="m 470.2,918.4 c 0.1,1.8 -0.7,4.6 -2,5.6 0,0 0.9,1.9 4.1,2.5 3.5,0.6 2,-1.4 2,-1.4 -1.9,-0.8 -1.6,-2.2 -1,-3.5 z"
   inkscape:connector-curvature="0"
   style="fill:#e4897b" />
				<g
   id="Groupe_516"
   transform="translate(13.08,2.901)">
					<path
   id="Tracé_1461"
   class="st7"
   d="m 464.6,914 c -0.1,0.2 0,0.4 0.2,0.5 0.1,0 0.3,-0.1 0.4,-0.3 0.1,-0.2 0,-0.4 -0.2,-0.5 -0.2,-0.1 -0.4,0.1 -0.4,0.3 z"
   inkscape:connector-curvature="0"
   style="fill:#263238" />
					<path
   id="Tracé_1462"
   class="st7"
   d="m 464.9,913.6 h 0.6 c 0,0 -0.4,0.4 -0.6,0 z"
   inkscape:connector-curvature="0"
   style="fill:#263238" />
					<path
   id="Tracé_1463"
   class="st14"
   d="m 464.7,914.3 c 0.1,0.6 0.2,1.1 0.4,1.7 -0.3,0.1 -0.6,0.1 -0.9,-0.1 z"
   inkscape:connector-curvature="0"
   style="fill:#a02724" />
					<path
   id="Tracé_1464"
   class="st7"
   d="m 465.3,912.5 c -0.1,0 -0.1,0 0,0 -0.4,-0.2 -0.7,-0.3 -1.1,-0.2 -0.1,0 -0.2,0 -0.2,-0.1 0,-0.1 0,-0.1 0.1,-0.2 0.4,-0.1 0.9,-0.1 1.3,0.2 0.1,0 0.1,0.1 0,0.2 0,0.1 -0.1,0.1 -0.1,0.1 z"
   inkscape:connector-curvature="0"
   style="fill:#263238" />
					<path
   id="Tracé_1465"
   class="st13"
   d="m 457.1,911.2 c -0.5,2.9 -0.8,4 0.2,5.9 1.6,2.8 5.2,2.9 6.6,0.3 1.2,-2.3 1.9,-6.6 -0.5,-8.5 -1.7,-1.4 -4.1,-1.1 -5.5,0.6 -0.4,0.4 -0.7,1 -0.8,1.7 z"
   inkscape:connector-curvature="0"
   style="fill:#e4897b" />
				</g>
				<path
   id="Tracé_1466"
   class="st7"
   d="m 469.1,911.8 c 1.2,-2.1 2.6,-3.2 6.6,-2.1 3,0.8 5.5,5.1 0.7,7.5 -0.8,1.1 -1.8,2 -2.9,2.7 -1.6,0.7 -2,0.9 -3.6,0 -1.4,-0.9 -2.7,-4.9 -0.8,-8.1 z"
   inkscape:connector-curvature="0"
   style="fill:#263238" />
				<path
   id="Tracé_1467"
   class="st13"
   d="m 475.7,916.6 c -0.2,0.5 -0.2,1.1 0,1.6 0.2,0.7 0.8,0.7 1.1,0.3 0.4,-0.6 0.4,-1.3 0.1,-1.9 -0.4,-0.6 -1,-0.5 -1.2,0 z"
   inkscape:connector-curvature="0"
   style="fill:#e4897b" />
				<path
   id="Tracé_1468"
   class="st7"
   d="m 470.6,910.6 c 0,0 -0.2,-2.6 -2.5,-2.6 -2.3,0 -4.1,2.3 -4.3,6.3 -0.2,4.1 -4.8,2.5 -6,3.3 -0.6,0.3 -1,0.9 -1.2,1.6 0.3,-0.7 1.1,-1.1 1.9,-0.9 -0.5,0.1 -0.9,0.6 -0.9,1.1 0.3,-0.2 0.7,-0.3 1,-0.3 0,0 -0.4,1.1 2.3,1.2 2.7,0.1 5.8,-0.5 7.5,-4.6 1.7,-4.1 2.2,-5.1 2.2,-5.1 z"
   inkscape:connector-curvature="0"
   style="fill:#263238" />
				<path
   id="Tracé_1469"
   class="st15"
   d="m 469.3,909.3 c 0,0 -4.6,-2.7 -5.9,3.5 -0.9,4.2 -4.1,3.4 -4.1,3.4"
   inkscape:connector-curvature="0"
   style="fill:none;stroke:#263238;stroke-width:0.50999999;stroke-linecap:round;stroke-linejoin:round" />
				<path
   id="Tracé_1470"
   class="st15"
   d="m 476.9,911.3 c 0,0 2.5,0.3 2.5,2.5 0,2.2 -2.9,3.5 -4.8,3.1"
   inkscape:connector-curvature="0"
   style="fill:none;stroke:#263238;stroke-width:0.50999999;stroke-linecap:round;stroke-linejoin:round" />
			</g>
			<path
   id="Tracé_1471"
   class="st16"
   d="m 469.3,926.3 c -0.1,1 -0.4,2 -0.6,2.9 -0.2,0.9 -0.5,1.9 -0.8,2.9 -0.6,1.9 -1.3,3.8 -2.3,5.6 -0.9,1.7 -1.9,3.3 -2.9,5 l -1.5,2.4 c -0.5,0.8 -1,1.6 -1.6,2.4 l -1.5,-0.8 c 0.4,-0.9 0.8,-1.8 1.1,-2.6 l 1.2,-2.6 2.4,-5.1 c 0.7,-1.7 1.3,-3.4 1.7,-5.1 0.2,-0.9 0.4,-1.8 0.6,-2.7 0.2,-0.9 0.4,-1.8 0.5,-2.7 z"
   inkscape:connector-curvature="0"
   style="fill:#dc897c" />
			<path
   id="Tracé_1472"
   class="st13"
   d="m 458.3,946.5 c -0.6,0.8 -1.1,1.7 -1.6,2.6 -0.1,0.6 -0.1,1.1 0,1.7 0.1,0 2.1,0.2 2.1,0.2 l 1.2,-2.1 c 0.2,-0.7 0.2,-1.3 0.1,-2 z"
   inkscape:connector-curvature="0"
   style="fill:#e4897b" />
			<path
   id="Tracé_1473"
   class="st16"
   d="m 483.8,927.8 c 0.4,0.8 0.9,1.6 1.3,2.4 0.5,0.8 0.9,1.6 1.4,2.4 0.9,1.5 2,3 3.2,4.4 l 3.8,4.2 1.9,2.1 c 0.6,0.7 1.3,1.4 1.9,2.2 l -1.2,1.3 c -0.8,-0.6 -1.5,-1.2 -2.2,-1.8 l -2.2,-1.9 c -1.4,-1.3 -2.8,-2.5 -4.3,-3.9 -1.4,-1.4 -2.7,-3 -3.8,-4.7 -0.5,-0.8 -1.1,-1.6 -1.6,-2.5 -0.5,-0.9 -1,-1.7 -1.4,-2.6 z"
   inkscape:connector-curvature="0"
   style="fill:#dc897c" />
			<path
   id="Tracé_1474"
   class="st13"
   d="m 497.1,945.4 c 0.8,0.6 1.6,1.3 2.3,2 0.2,0.5 0.4,1 0.5,1.6 -0.1,0.1 -1.9,0.8 -1.9,0.8 l -1.7,-1.6 c -0.4,-0.6 -0.6,-1.2 -0.6,-1.9 z"
   inkscape:connector-curvature="0"
   style="fill:#e4897b" />
			<path
   id="Tracé_1475"
   class="st1"
   d="m 467.2,924.6 c -1.6,0.2 -3.3,5.1 -3.3,5.1 l 4.8,1.9 c -0.1,0 2.2,-7.4 -1.5,-7 z"
   inkscape:connector-curvature="0"
   style="fill:#407bff" />
			<path
   id="Tracé_1476"
   class="st7"
   d="m 469.2,942.4 c 2.3,0.1 7.2,0.3 12,0.4 3,-17 1.6,-17.3 1.6,-17.3 -0.9,-0.3 -1.9,-0.6 -2.8,-0.8 -0.1,0 -0.1,0 -0.2,0 -0.8,-0.2 -0.9,-0.2 -2,-0.3 -1.8,-0.1 -3.4,-0.2 -5.4,-0.2 -0.1,0 -0.3,0 -0.4,0 -0.4,0 -0.7,0 -1.1,0 -0.2,0 -0.5,0 -0.7,0.1 -0.3,0 -0.5,0.1 -0.8,0.1 -1.3,0.1 -2.2,0.3 -2.2,0.3 2.3,9.9 2.2,12.9 2,17.7 z"
   inkscape:connector-curvature="0"
   style="fill:#263238" />
			<path
   id="Tracé_1477"
   class="st6"
   d="m 481.2,930.8 c -0.1,1.7 0.3,3.5 1.1,5 0.5,-3.3 0.7,-5.6 0.7,-7.1 -0.9,0 -1.8,0.5 -1.8,2.1 z"
   inkscape:connector-curvature="0"
   style="opacity:0.2;enable-background:new" />
			<path
   id="Tracé_1478"
   class="st17"
   d="m 475,984.3 c 2.4,8.6 5.3,17 8.7,25.2 l 2,-0.8 -5.8,-24.5 z"
   inkscape:connector-curvature="0"
   style="fill:#eec1bb" />
			<path
   id="Tracé_1479"
   class="st7"
   d="m 482.7,1008.4 c -0.1,-0.3 3.2,-0.8 3.2,-0.8 1.3,0.8 2.9,1.3 4.5,1.5 2,0 1.2,1.4 -0.9,1.9 l -5.3,1.3 c -1.5,0.3 -0.9,-1.2 -1.5,-3.9 z"
   inkscape:connector-curvature="0"
   style="fill:#263238" />
			<g
   id="Groupe_518"
   transform="translate(29.669,98.558)">
				<path
   id="Tracé_1480"
   class="st1"
   d="m 456.7,909.3 c -0.1,0 -0.1,0 0,0 v 0 c -0.1,0 -0.1,0 0,0 v 0 c -0.1,0 -0.1,0 0,0 v 0 c -0.1,-0.1 -0.1,-0.1 0,0 0,-0.5 0.1,-0.9 0.4,-1.2 0.1,-0.1 0.3,-0.1 0.4,-0.1 0.2,0 0.3,0.1 0.3,0.2 0,0.2 -0.2,0.4 -0.4,0.6 0.2,-0.1 0.5,-0.1 0.7,-0.1 0.1,0 0.2,0.1 0.2,0.2 0.1,0.1 0.1,0.2 0,0.4 -0.1,0.1 -0.2,0.1 -0.3,0.1 -0.4,0.1 -0.9,0 -1.3,-0.1 z m 0.2,-0.1 c 0.5,0.1 1.1,0.1 1.3,0 0,0 0,-0.1 0,-0.2 0,0 -0.1,-0.1 -0.1,-0.1 -0.1,0 -0.3,0 -0.4,0 -0.3,0.1 -0.5,0.2 -0.8,0.3 z m 0.3,-1 c -0.2,0.2 -0.3,0.5 -0.4,0.8 0.4,-0.3 0.8,-0.7 0.8,-0.8 0,0 -0.1,-0.1 -0.1,-0.1 -0.1,0 -0.3,0.1 -0.3,0.1 z"
   inkscape:connector-curvature="0"
   style="fill:#407bff" />
			</g>
			<path
   id="Tracé_1481"
   class="st1"
   d="m 469.1,940.7 c 0,0 -4.5,9.4 -2.9,18.3 1.6,8.9 6.3,20.3 7.6,23 1.3,2.7 6.1,19.1 6.1,19.1 l 4.1,-1.4 c 0,0 -3.7,-16.2 -4.9,-21.9 -0.6,-2.7 -5.3,-21.7 -5.3,-21.7 0,0 8.1,-6 7.5,-15.4 z"
   inkscape:connector-curvature="0"
   style="fill:#407bff" />
			<path
   id="Tracé_1482"
   class="st5"
   d="m 484.1,999.8 -4.1,1.4 c 0,0 -4.8,-16.4 -6.1,-19.1 -0.7,-1.4 -2.2,-5.1 -3.8,-9.6 -1.6,-4.4 -2.9,-8.9 -3.8,-13.4 -1.6,-8.9 2.9,-18.3 2.9,-18.3 l 12.3,0.1 c 0.6,9.4 -7.5,15.4 -7.5,15.4 0,0 0.8,3.3 1.8,7.4 1.4,5.7 3.1,12.7 3.4,14.3 1.2,5.6 4.9,21.8 4.9,21.8 z"
   inkscape:connector-curvature="0"
   style="opacity:0.2;fill:#ffffff;enable-background:new" />
			<path
   id="Tracé_1483"
   class="st17"
   d="m 465.3,988.9 c -2.1,5.9 -3.9,12 -5.3,18.1 l 2,0.7 8.4,-18.7 h -5.1 z"
   inkscape:connector-curvature="0"
   style="fill:#eec1bb" />
			<path
   id="Tracé_1484"
   class="st7"
   d="m 459.8,1005.4 c 0.1,-0.2 3,1.4 3,1.4 0.5,1.5 1.4,2.9 2.5,4 1.6,1.3 0.1,1.8 -1.9,0.9 l -4.9,-2.4 c -1.4,-0.7 0.1,-1.4 1.3,-3.9 z"
   inkscape:connector-curvature="0"
   style="fill:#263238" />
			<g
   id="Groupe_519"
   transform="translate(6.351,98.668)">
				<path
   id="Tracé_1485"
   class="st1"
   d="m 456.6,908.7 c 0,0 0,0 0,0 v 0 c 0,-0.1 0,-0.1 0,0 v 0 c 0,-0.1 0,-0.1 0,0 v 0 c 0,-0.1 0,-0.1 0,-0.1 0,0 0.6,-0.6 1.1,-0.6 0.1,0 0.3,0.1 0.4,0.2 0.1,0.1 0.1,0.2 0.1,0.3 -0.1,0.1 -0.4,0.2 -0.7,0.2 0.2,0.1 0.5,0.2 0.6,0.4 0.1,0.1 0.1,0.2 0.1,0.3 0,0.2 -0.1,0.3 -0.2,0.3 -0.1,0 -0.2,0 -0.3,-0.1 -0.4,-0.2 -0.8,-0.5 -1.1,-0.9 z m 0.3,0.1 c 0.3,0.4 0.8,0.8 1,0.8 0,0 0.1,0 0.1,-0.1 0,-0.1 0,-0.1 0,-0.1 -0.1,-0.1 -0.2,-0.2 -0.3,-0.2 -0.3,-0.3 -0.5,-0.4 -0.8,-0.4 z m 0.8,-0.6 c -0.3,0 -0.6,0.2 -0.8,0.4 0.5,0 1,0 1.1,-0.1 0,0 0,-0.1 -0.1,-0.2 0,0 -0.1,-0.1 -0.1,-0.1 0,0 -0.1,0 -0.1,0 z"
   inkscape:connector-curvature="0"
   style="fill:#407bff" />
			</g>
			<path
   id="Tracé_1486"
   class="st6"
   d="m 484.1,999.8 -4.1,1.4 c 0,0 -4.8,-16.4 -6.1,-19.1 -0.7,-1.4 -2.2,-5.1 -3.8,-9.6 l 1.5,-12.8 c 0,0 -1.8,-1 -2.9,-5 1,0.8 2.2,1.4 3.4,1.5 0.5,0 1.9,3.1 3.7,7.6 1.4,5.7 3.1,12.7 3.4,14.3 1.2,5.5 4.9,21.7 4.9,21.7 z"
   inkscape:connector-curvature="0"
   style="opacity:0.2;enable-background:new" />
			<path
   id="Tracé_1487"
   class="st1"
   d="m 482.4,961.5 c -0.6,3.8 -1.6,7.5 -3.1,11.1 -1.6,3.8 -3.4,6.6 -4.8,9.5 -2.3,5.1 -8.5,18.9 -8.5,18.9 l -4.8,-1.7 c 0,0 6.6,-18.6 9.1,-22.7 0,0 1.6,-13.3 1.7,-20.6 -1.3,-1.4 -2.1,-3.1 -2.3,-4.9 -0.6,-3.6 11.5,-9.2 11.5,-9.2 1.8,6.4 2.2,13.1 1.2,19.6 z"
   inkscape:connector-curvature="0"
   style="fill:#407bff" />
			<path
   id="Tracé_1488"
   class="st5"
   d="m 482.4,961.5 c -0.6,3.8 -1.6,7.5 -3.1,11.1 -1.6,3.8 -3.4,6.6 -4.8,9.5 -2.3,5.1 -8.5,18.9 -8.5,18.9 l -4.8,-1.7 c 0,0 6.6,-18.6 9.1,-22.7 0,0 1.6,-13.3 1.7,-20.6 -1.3,-1.4 -2.1,-3.1 -2.3,-4.9 -0.6,-3.6 11.5,-9.2 11.5,-9.2 1.8,6.4 2.2,13.1 1.2,19.6 z"
   inkscape:connector-curvature="0"
   style="opacity:0.2;fill:#ffffff;enable-background:new" />
			<path
   id="Tracé_1489"
   class="st1"
   d="m 479.5,924.6 c 0,0 -0.7,-2.1 -4.5,-2.8 -3.8,-0.6 -6.3,-0.7 -5,3.2 1.3,3.9 9.5,-0.4 9.5,-0.4 z"
   inkscape:connector-curvature="0"
   style="fill:#407bff" />
			<path
   id="Tracé_1490"
   class="st1"
   d="m 482.7,925.5 c 1.8,0.8 3.9,6.2 3.9,6.2 l -3.9,2.1 -1.6,-2.9 c -0.2,-1.1 -0.2,-2.3 0,-3.4 0.3,-1 0.9,-1.6 1.6,-2 z"
   inkscape:connector-curvature="0"
   style="fill:#407bff" />
		</g>
	</g>
</g>
</svg>